<?xml version="1.0" standalone="no"?>
<!DOCTYPE svg PUBLIC "-//W3C//DTD SVG 1.1//EN" "http://www.w3.org/Graphics/SVG/1.1/DTD/svg11.dtd" >
<svg xmlns="http://www.w3.org/2000/svg">
<metadata>
Created by FontPrep 20130207 at Wed Dec 24 21:17:10 2014
 By Max Wheeler
Copyright (c) 2004-2009, Joshua Darden &#38; Phil's Fonts, Inc. All rights reserved. Published by Garagefonts USA 301-879-9222 www.garagefonts.com
</metadata>
<defs>
<font id="0981c7e4aac694eacf79da99cdbcab05" horiz-adv-x='1024' >
  <font-face 
    font-family="FreightTextProBold-Italic"
    font-weight="400"
    font-style="italic"
    font-stretch="normal"
    units-per-em="2048"
    panose-1="2 0 8 3 7 0 0 9 0 4"
    ascent="1489"
    descent="-559"
    x-height="961"
    cap-height="1280"
    bbox="-473 -590 3025 2025"
    underline-thickness="40"
    underline-position="-231"
    slope="-12"
    unicode-range="U+0020-FB04"
  />
<missing-glyph 
 />
    <glyph glyph-name="ff" unicode="ff" horiz-adv-x="1142" 
d="M834 1081q-59 2 -99.5 58.5t-52.5 140.5l-137 -27q-14 -41 -74 -335h315q28 106 48 163zM1268 1421q96 0 156.5 -50.5t60.5 -118.5t-36 -109t-95 -41t-100.5 56t-49.5 142l-106 -18q-20 -51 -84 -364h250l8 -117h-283l-108 -549q-88 -440 -230 -588q-104 -106 -248 -106
q-84 0 -142 45t-58 108t33.5 99t91.5 36t97.5 -49t45.5 -121l100 35q45 117 80 344l111 746h-316l-118 -611q-88 -440 -230 -587q-106 -106 -256 -107q-86 0 -144 46t-58 110t33.5 98.5t90.5 34.5t98.5 -48t47.5 -120l106 33q45 113 80 346l123 790l-178 15l6 69l197 64
q42 211 168 337t313 126q80 0 138 -35t81 -90q149 149 324 149z" />
    <glyph glyph-name="fi" unicode="fi" horiz-adv-x="1101" 
d="M-360 -348q0 64 33.5 98.5t90.5 34.5t98.5 -48t47.5 -120l106 33q45 113 80 346l123 790l-178 15l6 69l197 64q37 221 170 350q141 145 377 146q117 0 185 -55.5t68 -139.5q0 -55 -37 -95t-95 -40t-100 56t-58 142l-191 -26q-57 -137 -92 -354h242q63 43 107 43
t116 -51.5t65 -75.5l-186 -689l37 -18l168 119l35 -45q-51 -88 -135 -160t-158 -72q-37 0 -106.5 51.5t-63.5 73.5l184 694l-16 13h-314l-118 -611q-88 -440 -230 -587q-106 -106 -256 -107q-86 0 -144 46t-58 110z" />
    <glyph glyph-name="fl" unicode="fl" horiz-adv-x="1114" 
d="M831 1128q-55 45 -77 170l-191 -26q-57 -137 -92 -354h315zM-360 -348q0 64 33.5 98.5t90.5 34.5t98.5 -48t47.5 -120l110 33q49 113 80 346l115 790l-174 15l6 69l197 64q37 221 170 350q141 145 377 146q96 0 163 -41l158 38l-276 -1282l38 -18l166 119l37 -45
q-53 -90 -136 -161t-157 -71q-37 0 -104.5 51.5t-63.5 73.5l146 707h-316l-118 -611q-88 -440 -230 -587q-106 -106 -256 -107q-86 0 -144 46t-58 110z" />
    <glyph glyph-name="ffi" unicode="ffi" horiz-adv-x="1644" 
d="M834 1098q-51 10 -87 65.5t-49 128.5l-149 -24q-47 -152 -78 -350h315q21 112 48 180zM1587 1235q0 -55 -37 -95t-95 -40t-100 56t-59 142l-194 -26q-51 -123 -88 -354h241q63 43 107 43t116 -51.5t66 -75.5l-186 -689l37 -18l168 119l34 -45q-51 -88 -135 -160t-157 -72
q-37 0 -107 51.5t-63 73.5l184 694l-16 13h-314l-108 -549q-88 -440 -230 -588q-104 -106 -248 -106q-84 0 -142 45t-58 108t33.5 99t91.5 36t97.5 -49t45.5 -121l100 35q45 117 80 344l111 746h-316l-118 -611q-88 -440 -230 -587q-106 -106 -256 -107q-86 0 -144 46
t-58 110t33.5 98.5t90.5 34.5t98.5 -48t47.5 -120l106 33q45 113 80 346l123 790l-178 15l6 69l197 64q37 221 164 344q72 70 146.5 103.5t170.5 33.5q180 0 242 -121q141 135 366 136q117 0 185.5 -55.5t68.5 -139.5z" />
    <glyph glyph-name="ffl" unicode="ffl" horiz-adv-x="1656" 
d="M834 1098q-51 10 -87 65.5t-49 128.5l-149 -24q-47 -152 -78 -350h315q21 112 48 180zM1374 1128q-51 43 -78 170l-194 -26q-51 -123 -88 -354h315zM1327 -31q-37 0 -104.5 51.5t-63.5 73.5l146 707h-316l-108 -549q-88 -440 -230 -588q-104 -106 -248 -106
q-84 0 -142 45t-58 108t33.5 99t91.5 36t97.5 -49t45.5 -121l100 35q45 117 80 344l111 746h-316l-118 -611q-88 -440 -230 -587q-106 -106 -256 -107q-86 0 -144 46t-58 110t33.5 98.5t90.5 34.5t98.5 -48t47.5 -120l106 33q45 113 80 346l123 790l-178 15l6 69l197 64
q37 221 164 344q72 70 146.5 103.5t170.5 33.5q180 0 242 -121q141 135 366 136q96 0 164 -41l158 38l-277 -1282l39 -18l166 119l37 -45q-53 -90 -136 -161t-157 -71z" />
    <glyph glyph-name=".notdef" 
 />
    <glyph glyph-name=".null" horiz-adv-x="0" 
 />
    <glyph glyph-name="nonmarkingreturn" horiz-adv-x="681" 
 />
    <glyph glyph-name="space" unicode=" " horiz-adv-x="466" 
 />
    <glyph glyph-name="exclam" unicode="!" horiz-adv-x="602" 
d="M393 110.5q0 -57.5 -41 -100.5t-101 -43t-101 42t-41 101.5t40.5 100.5t100.5 41t101.5 -42t41.5 -99.5zM401 1309h9q76 0 111.5 -32t19.5 -85l-224 -778q-4 -14 -27.5 -13.5t-23.5 15.5l8 792q0 47 35 74t92 27z" />
    <glyph glyph-name="quotedbl" unicode="&#x22;" horiz-adv-x="778" 
d="M477 1257l-323 -432h-93l228 496h2zM827 1257l-323 -432h-90l227 496h2z" />
    <glyph glyph-name="numbersign" unicode="#" horiz-adv-x="1189" 
d="M748 461l90 354h-322l-92 -354h324zM1219 815h-281l-92 -354h256l-2 -99h-283l-100 -374h-99l99 374h-322l-100 -374h-100l100 374h-254l2 99h281l92 354h-256l4 96h280l103 381h100l-100 -381h319l103 381h98l-100 -381h256z" />
    <glyph glyph-name="dollar" unicode="$" horiz-adv-x="1103" 
d="M504 74q113 0 176 55t64 136t-43 131.5t-132 105.5l-114 -426q16 -2 49 -2zM610 1200q-88 0 -149.5 -47t-61.5 -113q0 -129 162 -227l103 385q-16 2 -54 2zM160 946q0 150 138 255.5t335 105.5q41 0 57 -2l58 206h94l-58 -215q74 -10 172 -36l113 34l-55 -420l-129 5
l-43 274q-27 12 -88 29l-111 -410q172 -92 256 -175t84 -222q0 -184 -143.5 -295t-362.5 -111q-33 0 -49 2l-84 -311h-94l84 315q-125 14 -287 62l35 393l131 -2l63 -307q35 -18 89 -31l122 453q-170 84 -248.5 168.5t-78.5 234.5z" />
    <glyph glyph-name="percent" unicode="%" horiz-adv-x="1527" 
d="M1384 314q0 106 -66 169.5t-170 63.5t-181.5 -86.5t-77.5 -192.5t64.5 -167.5t168.5 -61.5t183 84.5t79 190.5zM696 998q0 108 -64 172.5t-170 64.5t-183.5 -86.5t-77.5 -192.5t65.5 -167.5t171.5 -61.5t182 81.5t76 189.5zM1483 326q0 -148 -110.5 -260.5t-258.5 -112.5
t-235.5 82.5t-87.5 230.5t107.5 259.5t253.5 111.5t238.5 -81.5t92.5 -229.5zM1493 1309l-1290 -1340h-121l1290 1340h121zM799 1012q0 -148 -109.5 -259.5t-255.5 -111.5t-239 84.5t-93 230.5t110 257.5t255 111.5t238.5 -82.5t93.5 -230.5z" />
    <glyph glyph-name="ampersand" unicode="&#x26;" horiz-adv-x="1357" 
d="M238 352q0 -86 52 -137t134 -51q117 0 287 123l-301 336q-172 -123 -172 -271zM784 1032q0 80 -41 135.5t-115 55.5t-122.5 -55.5t-48.5 -139.5t28.5 -139t98.5 -127q200 116 200 270zM4 300q0 146 106.5 241.5t247.5 126.5v4q-141 130 -141 286t133 253.5t300 97.5
t269.5 -75t102.5 -196q0 -240 -381 -325v-4l260 -277h4l217 195v4q-82 43 -82 109t42 104.5t107 38.5t108.5 -45t43.5 -121q0 -152 -305 -291l-86 -45l312 -332l-250 -96l-246 287h-4q-229 -270 -469 -271q-123 0 -206 92.5t-83 238.5z" />
    <glyph glyph-name="quotesingle" unicode="'" horiz-adv-x="428" 
d="M477 1257l-323 -432h-93l228 496h2z" />
    <glyph glyph-name="parenleft" unicode="(" horiz-adv-x="808" 
d="M184 429q0 177 53.5 340t180.5 338.5t317 270.5l56 -80q-175 -96 -286.5 -257.5t-158.5 -308t-47 -302.5q0 -299 154.5 -535.5t337.5 -332.5l-56 -80q-191 96 -317.5 269t-180 337t-53.5 341z" />
    <glyph glyph-name="parenright" unicode=")" horiz-adv-x="808" 
d="M510 406q0 338 -158.5 567t-333.5 325l60 80q184 -92 312 -269t181.5 -340t53.5 -340t-53.5 -341t-181 -338.5t-312.5 -267.5l-60 78q263 142 377.5 404t114.5 442z" />
    <glyph glyph-name="asterisk" unicode="*" horiz-adv-x="724" 
d="M793 948l-99 -76l-209 84l-20 -26l147 -172l-39 -117l-43 -14l-102 69l10 228l-30 8l-111 -191l-125 -4l-31 35l33 123l215 57v41l-215 60l-33 121l29 36l127 -4l111 -192l32 10l-10 225l102 68l43 -14l39 -117l-149 -172l20 -27l209 84l99 -78v-45z" />
    <glyph glyph-name="plus" unicode="+" horiz-adv-x="983" 
d="M551 422v-373h-117v373h-375l7 117h368v374h117v-374h367l6 -117h-373z" />
    <glyph glyph-name="comma" unicode="," horiz-adv-x="475" 
d="M358 78q0 -227 -385 -428l-51 49q98 57 161.5 130t63.5 144q0 98 -69.5 138.5t-69.5 42.5q0 49 48 89t121 40t127 -60.5t54 -144.5z" />
    <glyph glyph-name="hyphen" unicode="-" horiz-adv-x="681" 
d="M618 440h-550l6 123h538z" />
    <glyph glyph-name="period" unicode="." horiz-adv-x="475" 
d="M354 128q0 -64 -46 -112.5t-112 -48.5t-112.5 47t-46.5 113t46 112t113.5 46t112.5 -46.5t45 -110.5z" />
    <glyph glyph-name="slash" unicode="/" horiz-adv-x="571" 
d="M8 -434l443 1796h108l-442 -1796h-109z" />
    <glyph glyph-name="zero" unicode="0" horiz-adv-x="1052" 
d="M795 574q0 110 -71 192t-173 82t-202.5 -104.5t-100.5 -329.5q0 -127 70 -208t172 -81t174.5 74.5t101.5 169.5t29 205zM965 543q0 -219 -134.5 -396.5t-345.5 -177.5q-176 0 -291.5 120.5t-115.5 340.5t135 397t344 177q176 0 292 -121t116 -340z" />
    <glyph glyph-name="one" unicode="1" horiz-adv-x="780" 
d="M657 0h-614l12 86l133 23q49 6 54 47l88 663l-217 27l16 69l465 91l-113 -850q-4 -41 41 -47l135 -23v-86z" />
    <glyph glyph-name="two" unicode="2" horiz-adv-x="964" 
d="M281 176q266 0 341.5 14.5t110.5 69.5l58 86h88l-115 -346h-750l6 150q37 25 99.5 66.5t94.5 63t82 56.5t76.5 56.5t70 57t81.5 87.5t43 124q4 72 -46 124.5t-142 54.5q-117 6 -266 -109l-17 57q86 92 212 154t250 58t205 -78t73 -191q-7 -177 -188 -287t-282.5 -169.5
t-148.5 -88.5l-2 -10h66z" />
    <glyph glyph-name="three" unicode="3" horiz-adv-x="892" 
d="M778 73q0 -126 -91 -240t-222 -175t-241 -61t-212 41t-102 137q0 51 37 88t99 37t101 -62.5t39 -138.5q23 -6 47 -6q125 0 208 91.5t83 207.5t-64.5 184t-170.5 68q-55 0 -150 -29l-26 64q225 121 299 182q114 97 114 191t-55 141t-151 47t-257 -111l-18 59
q213 213 451 213q121 0 212 -65.5t91 -181.5q0 -146 -134.5 -241.5t-287.5 -164.5v-10q49 14 108 14q123 0 208 -76.5t85 -202.5z" />
    <glyph glyph-name="four" unicode="4" horiz-adv-x="1071" 
d="M559 172l80 535h-10l-500 -535h430zM1001 59h-231l-55 -436h-228l56 436h-553l-4 93l805 864l102 -23l-107 -821h246z" />
    <glyph glyph-name="five" unicode="5" horiz-adv-x="948" 
d="M762 47q0 -201 -161 -329t-365 -128q-160 0 -241 56t-81 116t36 98t100 38t99 -58.5t33 -136.5q51 -20 99 -20q111 0 186.5 74.5t75.5 168.5q0 175 -146 275t-313 170l240 604h577l-35 -213h-514l-88 -217q498 -195 498 -498z" />
    <glyph glyph-name="six" unicode="6" horiz-adv-x="1107" 
d="M776 446q0 146 -53 217.5t-127 71.5q-141 0 -244 -178q-33 -98 -33 -215t53.5 -201t152.5 -84t175 121.5t76 267.5zM1024 498q0 -219 -161 -374t-349 -155t-310 134.5t-122 354.5t145.5 422.5t385 332.5t507.5 155l37 -76q-309 -70 -520 -230.5t-301 -397.5l16 -5
q78 92 173.5 147.5t189.5 55.5q129 0 219 -100t90 -264z" />
    <glyph glyph-name="seven" unicode="7" horiz-adv-x="974" 
d="M590 780q-219 0 -272.5 -9t-79.5 -50l-78 -123h-78l98 377h791v-86l-799 -1266h-149l749 1151l2 6h-184z" />
    <glyph glyph-name="eight" unicode="8" horiz-adv-x="1083" 
d="M301 301q0 -111 64.5 -178.5t168.5 -67.5t162 50.5t58 154.5t-81.5 171t-139.5 104q-58 36 -61 37t-7 4.5t-8 5.5q-156 -102 -156 -281zM795 991q0 98 -51.5 166t-142.5 68t-143 -53.5t-52 -151.5t80 -165t176 -124q133 86 133 260zM979 357q0 -183 -140.5 -284.5
t-320.5 -101.5t-314 86.5t-134 228.5t88 225t223 114v6q-199 121 -200 294t130 277.5t303 104.5t291 -83t119 -233q-2 -225 -287 -301v-6q242 -144 242 -327z" />
    <glyph glyph-name="nine" unicode="9" horiz-adv-x="1107" 
d="M324 526q0 -146 54 -222.5t128 -76.5q139 0 242 179q32 111 32 226t-53 199t-151 84t-175 -121.5t-77 -267.5zM76 475q0 219 160 374t350 155t311 -133.5t121 -353.5t-145.5 -424t-385 -334t-507.5 -154l-37 78q307 68 519 227.5t302 388.5l-16 4q-78 -92 -173.5 -147.5
t-189.5 -55.5q-127 0 -218 104.5t-91 270.5z" />
    <glyph glyph-name="colon" unicode=":" horiz-adv-x="475" 
d="M354 128q0 -64 -46 -112.5t-112 -48.5t-112.5 47t-46.5 113t46 112t113.5 46t112.5 -46.5t45 -110.5zM440 746q0 -64 -45 -111t-113 -47t-114.5 46t-46.5 113t47 112.5t114 45.5t112.5 -47.5t45.5 -111.5z" />
    <glyph glyph-name="semicolon" unicode=";" horiz-adv-x="475" 
d="M358 68q0 -227 -385 -428l-51 49q98 57 161.5 129.5t63.5 144.5q0 101 -69.5 139.5t-69.5 40.5q0 49 48 89t121 40t127 -60t54 -144zM440 746q0 -64 -45 -111t-112.5 -47t-113.5 47t-46 112.5t46 111.5t113 46t112.5 -47.5t45.5 -111.5z" />
    <glyph glyph-name="less" unicode="&#x3c;" horiz-adv-x="983" 
d="M885 68l-832 383v59l832 385l28 -107l-667 -305v-2l667 -307z" />
    <glyph glyph-name="equal" unicode="=" horiz-adv-x="983" 
d="M903 248h-823l6 117h811zM897 596h-811l-6 117h823z" />
    <glyph glyph-name="greater" unicode="&#x3e;" horiz-adv-x="983" 
d="M930 451l-832 -383l-28 106l667 307v2l-667 305l28 107l832 -385v-59z" />
    <glyph glyph-name="question" unicode="?" horiz-adv-x="794" 
d="M403 110.5q0 -57.5 -40.5 -100.5t-100.5 -43t-101.5 42t-41.5 101.5t41 100.5t101 41t101 -42t41 -99.5zM330 510q0 -66 69 -129l-100 2q-47 33 -83 88t-36 113q0 115 86.5 168t216.5 90q129 37 153 57t23 41q0 59 -88 104.5t-211 45.5q-59 0 -129 -13q-31 33 -31 89
t53.5 99.5t147.5 43.5q160 0 278 -107.5t118 -256.5t-84.5 -212t-198.5 -98q-8 -2 -31.5 -10.5t-32 -11.5t-28 -9t-26.5 -11t-21.5 -12.5t-19.5 -14.5t-15 -18.5t-10 -37.5z" />
    <glyph glyph-name="at" unicode="@" horiz-adv-x="1785" 
d="M885 860q-45 0 -80 -34t-84 -186t-49 -230t29.5 -115t69.5 -37t98.5 78t109.5 160t59 94q6 12 26.5 71.5t20.5 63.5q-27 49 -91 92t-109 43zM672 102q-82 0 -147.5 68t-65.5 178t68.5 264t174.5 260t242 107q135 0 182 -160h21l55 146h178l-123 -344l-71 -355
q-8 -37 28.5 -64.5t102.5 -27.5q129 0 219 127t96 311q10 289 -182.5 467.5t-498.5 182.5t-527 -214.5t-231 -519.5q-8 -326 193.5 -532.5t508.5 -206.5q121 0 260 41l23 -76q-147 -51 -293 -51q-338 0 -567.5 234.5t-219.5 581.5t259 589t594 237t565.5 -206t209.5 -523
q-8 -236 -148 -392t-335 -156q-131 0 -192.5 53t-53.5 119q0 47 70 256h-27q-145 -244 -215 -319q-71 -75 -153 -75z" />
    <glyph glyph-name="A" unicode="A" horiz-adv-x="1269" 
d="M717 526l-84 527h-17l-227 -527h328zM1227 0h-604l6 84l80 12q53 8 62 42t-9 116l-29 172h-385l-35 -94q-88 -209 23 -232l74 -16l6 -84h-486l7 84l57 18q66 18 102.5 62.5t118.5 220.5l356 786v78l273 62l221 -1125q8 -39 23.5 -57t54.5 -27l78 -18z" />
    <glyph glyph-name="B" unicode="B" horiz-adv-x="1247" 
d="M918 946q0 115 -78 179.5t-203 64.5h-47l-68 -488h117q119 0 199 64.5t80 179.5zM872 352q0 114 -75.5 186t-188.5 72h-98l-68 -499l113 -23h43q121 0 197.5 75t76.5 189zM1167 350q0 -121 -94 -219q-135 -131 -411 -131h-648l9 82l100 22q47 10 53 50l131 972
q6 39 -41 50l-92 22l-6 82h598q219 0 327.5 -77t108.5 -208t-98 -215t-250 -118q6 -6 6 -11q135 -29 221 -104.5t86 -196.5z" />
    <glyph glyph-name="C" unicode="C" horiz-adv-x="1331" 
d="M100 545q0 147 62.5 291.5t171.5 253.5q219 219 518 219q178 0 309 -52l176 48l-61 -457h-141l-48 295q-92 66 -215 65q-197 0 -335 -201t-138 -469t127 -391q80 -79 196 -79t212 49l143 305h156l-96 -422l-123 25q-154 -57 -316 -58q-293 0 -445.5 156t-152.5 422z" />
    <glyph glyph-name="D" unicode="D" horiz-adv-x="1404" 
d="M1065 717q0 219 -96.5 344t-298.5 125h-82l-144 -1063l138 -31q211 10 347 174t136 451zM1360 698q0 -272 -209 -481q-98 -98 -259 -157.5t-351 -59.5h-527l9 82l100 22q47 10 53 50l131 972q6 39 -41 50l-92 22l-6 82l545 2q305 0 476 -156t171 -428z" />
    <glyph glyph-name="E" unicode="E" horiz-adv-x="1284" 
d="M559 692q92 0 133 12.5t62 53.5l69 139h105l-113 -496h-104l2 131q2 39 -32 53.5t-142 14.5h-31l-68 -508h88q178 0 256 11.5t120 42t77 106.5l70 151h147l-94 -403h-1090l9 82l100 22q47 10 53 50l133 972q6 39 -41 50l-94 22l-4 82h1108l-55 -422h-142l-22 170
q-10 79 -50.5 119.5t-338.5 40.5h-80l-70 -496h39z" />
    <glyph glyph-name="F" unicode="F" horiz-adv-x="1232" 
d="M637 1188h-47l-70 -520h45q94 0 134 12t63 55l69 139h103l-113 -495h-102l8 129q2 41 -35 54t-147 13h-41l-55 -421q-6 -41 40 -50l107 -22l6 -82h-588l9 82l100 22q47 10 53 50l133 972q6 39 -41 50l-94 22l-4 82h1077l-55 -422h-141l-23 170q-16 111 -79.5 135.5
t-311.5 24.5z" />
    <glyph glyph-name="G" unicode="G" horiz-adv-x="1435" 
d="M706 -33q-290 0 -448 153.5t-158 424.5q0 147 63 292t167 249t248 163.5t308 59.5t296 -52l176 48l-62 -451h-141l-45 289q-96 66 -238 65q-197 0 -335 -201t-138 -469t127 -391q80 -80 217 -79q88 0 162 26l51 332q4 23 -5 33t-40 16l-96 23l-6 82h571l-8 -82l-96 -23
q-49 -12 -55 -49l-50 -291l119 -18l6 -68q-300 -82 -590 -82z" />
    <glyph glyph-name="H" unicode="H" horiz-adv-x="1517" 
d="M1386 0h-573l6 82l101 22q29 6 40 16.5t13 33.5l61 450h-524l-61 -450q-6 -39 40 -50l97 -22l6 -82h-574l7 82l100 22q47 10 53 50l131 972q6 39 -41 50l-92 22l-6 82h573l-6 -82l-102 -22q-47 -12 -53 -50l-58 -421h525l57 421q4 25 -4 34t-37 16l-94 22l-6 82h575
l-8 -82l-100 -22q-47 -12 -54 -50l-133 -972q-6 -39 41 -50l94 -22z" />
    <glyph glyph-name="I" unicode="I" horiz-adv-x="763" 
d="M635 0h-617l7 82l120 22q47 10 54 50l133 972q6 41 -41 50l-115 22l-6 82h614l-6 -82l-123 -22q-47 -10 -53 -50l-131 -972q-6 -37 41 -50l115 -22z" />
    <glyph glyph-name="J" unicode="J" horiz-adv-x="903" 
d="M219 -33q-113 0 -187.5 47t-72.5 127q2 49 39 82t86 33q160 0 172 -209h2q61 31 98 119t62 270l92 690q6 41 -41 50l-133 22l-6 82h622l-8 -82l-108 -22q-47 -8 -54 -50l-82 -610q-74 -549 -481 -549z" />
    <glyph glyph-name="K" unicode="K" horiz-adv-x="1374" 
d="M1296 0h-522l6 82l54 18q43 12 12 72l-215 432l-142 -119l-43 -331q-6 -39 41 -50l95 -22l4 -82h-574l8 82l101 22q47 10 53 50l133 972q6 39 -41 50l-94 22l-4 82h573l-8 -82l-102 -22q-47 -12 -53 -50l-66 -505l358 337q142 140 142 176t-47 52l-54 14l-4 80h535
l-8 -78l-54 -14q-102 -27 -274 -168l-283 -246l314 -575q42 -74 64 -86.5t54 -22.5l37 -8z" />
    <glyph glyph-name="L" unicode="L" horiz-adv-x="1185" 
d="M500 92q203 0 274.5 31t118.5 129l76 170h145l-100 -422h-1002l8 82l101 22q47 10 53 50l131 972q6 39 -41 50l-94 22l-4 82h582l-9 -82l-108 -22q-47 -12 -53 -50l-140 -1034h62z" />
    <glyph glyph-name="M" unicode="M" horiz-adv-x="1767" 
d="M1675 0h-600l6 82l111 24q33 6 49 74t41 301l68 641h-21l-487 -1081h-246l-131 1100h-21l-108 -652q-56 -351 -44.5 -364.5t27.5 -18.5l113 -24l6 -82h-454l6 82l108 24q27 6 52 38t75 345l107 635q8 47 -35 54l-119 20l-4 82h539l114 -971h21l438 971h514l-6 -82
l-121 -22q-49 -8 -53 -52l-70 -643q-35 -293 -21.5 -330.5t40.5 -44.5l102 -24z" />
    <glyph glyph-name="N" unicode="N" horiz-adv-x="1464" 
d="M1518 1280l-7 -82l-98 -20q-51 -10 -78.5 -87t-60.5 -321l-109 -786h-198l-537 1042h-14l-70 -516q-35 -252 -31 -324.5t54 -83.5l106 -20l6 -82h-489l6 82l98 20q51 10 78 87t59 321l76 549q6 53 -3 79.5t-46 37.5l-88 22l-4 82h428l487 -952h17l59 442q35 256 32 326.5
t-50 81.5l-111 20l-6 82h494z" />
    <glyph glyph-name="O" unicode="O" horiz-adv-x="1464" 
d="M806 1206q-116 0 -199 -75.5t-149.5 -251t-66.5 -398.5t109 -329q80 -80 197 -80t199.5 75.5t149 245.5t66.5 396q0 227 -106 339q-84 78 -200 78zM1405 713q0 -317 -227 -549q-188 -195 -464 -195t-446 167t-170 427q0 305 203 524t504 220q262 0 431 -167t169 -427z
" />
    <glyph glyph-name="P" unicode="P" horiz-adv-x="1204" 
d="M915 898q0 136 -76.5 215t-189.5 79h-59l-82 -588q66 -12 98 -12q139 0 224 85t85 221zM1196 909q0 -179 -161 -291t-400 -112q-29 0 -137 10l-49 -362q-6 -43 40 -50l127 -22l5 -82h-607l9 82l100 22q47 10 53 50l133 972q6 39 -41 50l-94 22l-4 82h543q221 0 352 -96
t131 -275z" />
    <glyph glyph-name="Q" unicode="Q" horiz-adv-x="1468" 
d="M806 1208q-116 0 -199 -76.5t-148.5 -250.5t-65.5 -401q0 -226 107 -330q80 -80 198 -80t200.5 75.5t148 248t65.5 399.5t-108 337q-82 78 -198 78zM98 563q0 299 199 521t506 223q262 0 432 -167t170 -427q0 -158 -59.5 -301.5t-163.5 -245.5q-164 -164 -398 -191
q90 -147 211 -204.5t336 -61.5l6 -65q-137 -39 -333 -40t-319.5 86t-229.5 324q-164 68 -260.5 213.5t-96.5 335.5z" />
    <glyph glyph-name="R" unicode="R" horiz-adv-x="1296" 
d="M922 925q0 124 -72 194.5t-191 70.5h-71l-72 -531l127 -26q125 18 202 93t77 199zM770 1280q213 0 332 -86t119 -222t-93.5 -234.5t-265.5 -145.5l223 -404q29 -60 56.5 -75t54.5 -23l35 -8l4 -82h-369l-69 164l-185 385l-106 6l-57 -401q-6 -33 40 -50l91 -22l6 -82
h-570l7 82l100 22q47 10 53 50l129 972q6 39 -41 50l-94 22l-4 82h604z" />
    <glyph glyph-name="S" unicode="S" horiz-adv-x="1095" 
d="M983 375q0 -184 -143.5 -295t-359.5 -111t-433 68l35 393l131 -2l63 -307q100 -45 220 -45t181.5 54t62.5 145t-71.5 149.5t-216.5 136.5q-145 78 -218.5 158.5t-73.5 228.5t138 253.5t335 105.5q127 0 323 -47l113 34l-55 -420l-129 5l-43 274q-110 45 -214 45
t-164.5 -46t-60.5 -104t17.5 -96.5t61.5 -75t82 -59t112 -63.5q154 -80 230.5 -163t76.5 -216z" />
    <glyph glyph-name="T" unicode="T" horiz-adv-x="1312" 
d="M602 1188q-139 0 -195.5 -29t-103.5 -133l-72 -176h-147l92 430h1184l-55 -430h-134l-22 170q-14 104 -64.5 135t-191.5 33h-12l-138 -1034q-6 -39 41 -50l123 -22l6 -82h-626l6 82l127 22q49 8 53 50l137 1034h-8z" />
    <glyph glyph-name="U" unicode="U" horiz-adv-x="1449" 
d="M682 -43q-219 0 -352 106.5t-133 309.5q0 61 6 112l88 641q6 39 -41 50l-92 22l-6 82h573l-6 -82l-103 -22q-47 -12 -53 -50l-88 -641q-10 -88 -10 -123q0 -127 81 -199.5t222 -72.5t229 85t117 282l45 313q35 254 31 325.5t-53 82.5l-107 20l-6 82h492l-7 -82l-98 -20
q-51 -10 -77.5 -86t-61.5 -322l-49 -348q-35 -231 -178.5 -348t-362.5 -117z" />
    <glyph glyph-name="V" unicode="V" horiz-adv-x="1253" 
d="M1384 1280l-6 -84l-61 -18q-63 -18 -99 -62.5t-120 -220.5l-422 -895h-225l-226 1094q-12 70 -78 84l-75 18l-6 84h604l-6 -84l-82 -12q-53 -8 -62.5 -42t8.5 -116l138 -790h14l326 737q84 184 -29 207l-70 16l-6 84h483z" />
    <glyph glyph-name="W" unicode="W" horiz-adv-x="1908" 
d="M2060 1280l-6 -84l-61 -18q-72 -20 -117 -72.5t-119 -210.5l-381 -895h-233l-115 788h-14l-359 -788h-235l-193 1094q-8 39 -24.5 57t-52.5 27l-84 18l-7 84h617l-6 -84l-86 -12q-78 -10 -54 -158l107 -795h14l324 730l-21 133q-4 37 -21.5 56t-55.5 28l-84 18l-7 84h615
l-6 -84l-86 -12q-45 -6 -56.5 -42t2.5 -116l105 -793h16l266 676q57 135 55.5 195.5t-61.5 75.5l-61 16l-6 84h491z" />
    <glyph glyph-name="X" unicode="X" horiz-adv-x="1310" 
d="M1257 0h-598l7 82l69 12q102 20 19 166l-138 272h-14l-215 -260q-127 -143 4 -176l62 -14l6 -82h-508l6 82l72 18q86 20 211 160l317 354l-225 398q-51 86 -76 119.5t-55 44.5l-76 22l-4 82h598l-8 -82l-68 -12q-100 -20 -18 -166l112 -227h15l198 239q111 123 -6 152
l-63 14l-7 82h490l-6 -82l-72 -18q-92 -25 -235 -189l-250 -278l252 -459q43 -78 67.5 -108.5t57.5 -41.5l73 -22z" />
    <glyph glyph-name="Y" unicode="Y" horiz-adv-x="1222" 
d="M1348 1280l-7 -84l-49 -14q-61 -16 -108 -55.5t-131 -159.5l-295 -428l-49 -385q-6 -41 41 -50l120 -22l-2 -82h-628l12 82l131 22q45 6 53 50l49 372l-249 543q-27 51 -49.5 73.5t-59.5 33.5l-61 20l-7 84h588l-6 -84l-82 -12q-53 -8 -54 -55.5t42 -145.5l145 -356h17
l235 354q66 96 68 142t-62 59l-73 14l-7 84h478z" />
    <glyph glyph-name="Z" unicode="Z" horiz-adv-x="1232" 
d="M930 1186h-211q-182 0 -244.5 -32t-112.5 -142l-63 -158h-137l55 426h1049l-13 -94l-917 -1077l-2 -17h215q257 0 303.5 50.5t81.5 119.5l65 148h146l-98 -410h-1039l15 92l907 1077v17z" />
    <glyph glyph-name="bracketleft" unicode="[" horiz-adv-x="753" 
d="M717 -455h-529v1788h529v-98h-416v-1591h416v-99z" />
    <glyph glyph-name="backslash" unicode="\" horiz-adv-x="571" 
d="M561 -434h-108l-443 1796h109z" />
    <glyph glyph-name="bracketright" unicode="]" horiz-adv-x="753" 
d="M37 -455v99h416v1591h-416v98h528v-1788h-528z" />
    <glyph glyph-name="asciicircum" unicode="^" horiz-adv-x="819" 
d="M764 1055h-94l-176 245h-5l-241 -245h-94l235 372h242z" />
    <glyph glyph-name="underscore" unicode="_" horiz-adv-x="962" 
d="M950 -109h-999l6 109h987z" />
    <glyph glyph-name="grave" unicode="`" horiz-adv-x="817" 
d="M596 1055h-94l-309 372h260z" />
    <glyph glyph-name="a" unicode="a" horiz-adv-x="1081" 
d="M511 831q-44 0 -77 -32q-61 -61 -111.5 -213t-50.5 -252q0 -184 105 -184q61 0 151 129q35 49 150 233l47 162q-37 61 -103.5 109t-110.5 48zM760 -33q-43 0 -114 29t-71 55q0 30 52.5 178t62.5 181h-20q-158 -264 -207 -324q-91 -117 -189 -117t-163.5 73.5t-65.5 213.5
t69.5 297.5t176.5 263.5q141 141 281 141t182 -157h16l55 157h211l-123 -370l-108 -459l55 -18l152 104l35 -43q-49 -82 -130 -143.5t-157 -61.5z" />
    <glyph glyph-name="b" unicode="b" horiz-adv-x="1040" 
d="M758 574q0 206 -102 206q-50 0 -103 -68.5t-113 -167.5t-64.5 -107.5t-12 -19.5t-13.5 -22l-51 -190q45 -57 114.5 -98t108.5 -41t72 32q68 68 116 221t48 255zM985 654q0 -142 -62.5 -289.5t-166.5 -251.5q-145 -145 -334 -146q-82 0 -167 36t-132 76t-43 58l203 1004
q12 53 -25 69l-117 56l13 57l417 104l-227 -909h21q119 236 205 339.5t186 103.5t164.5 -82.5t64.5 -224.5z" />
    <glyph glyph-name="c" unicode="c" horiz-adv-x="872" 
d="M489 844q-14 0 -38 -25q-53 -51 -107.5 -198t-54.5 -263t50.5 -176.5t120.5 -60.5t269 135l33 -43q-186 -244 -385 -244q-147 0 -233.5 97.5t-86.5 246.5q0 236 166 442t389 206q109 0 182.5 -58.5t73.5 -134.5t-39 -119t-93 -43t-82 32t-28 77t25 86q-23 16 -73 29.5
t-89 13.5z" />
    <glyph glyph-name="d" unicode="d" horiz-adv-x="1081" 
d="M511 831q-44 0 -77 -32q-61 -61 -111.5 -213t-50.5 -252q0 -184 105 -184q61 0 151 129q35 49 150 233l47 162q-37 61 -103.5 109t-110.5 48zM760 -33q-41 0 -109.5 39t-68.5 66t48 164t60 174h-20q-158 -264 -207 -324q-91 -117 -189 -117t-163.5 73.5t-65.5 213.5
t69.5 297.5t176.5 263.5q141 141 284 141q72 0 107 -40.5t57 -116.5h17l71 340q12 53 -24 69l-117 56l12 57l420 104l-225 -905l-88 -393l55 -18l152 104l35 -43q-49 -82 -130 -143.5t-157 -61.5z" />
    <glyph glyph-name="e" unicode="e" horiz-adv-x="864" 
d="M649 745q0 37 -55 67t-96 30t-73 -32t-77 -146.5t-61 -243.5h6q205 113 280.5 179.5t75.5 145.5zM289 322q0 -88 50.5 -144.5t120.5 -56.5t269 135l33 -43q-186 -244 -385 -244q-150 0 -235 97.5t-85 246.5q0 238 163 443t378 205q119 0 185.5 -57.5t66.5 -147.5
q0 -54 -21.5 -80.5t-37 -43t-48 -39t-59.5 -38.5t-78 -43t-89 -46.5t-107.5 -55t-120.5 -62.5v-26z" />
    <glyph glyph-name="f" unicode="f" horiz-adv-x="620" 
d="M963 1246q0 -66 -36 -106t-94 -40t-98.5 55t-52.5 141l-129 -22q-49 -137 -82 -356h246l8 -117h-274l-123 -611q-84 -440 -230 -587q-100 -106 -256 -107q-86 0 -144 46t-58 110t33.5 98.5t90.5 34.5t97.5 -48t48.5 -120l108 33q35 88 80 344l123 792l-178 15l6 69
l199 64q47 229 175 357t312 128q100 0 164 -53.5t64 -119.5z" />
    <glyph glyph-name="g" unicode="g" horiz-adv-x="954" 
d="M633 -309q0 51 -52.5 87t-178.5 77t-199 71q-150 -72 -150 -182q0 -78 87.5 -129t215.5 -51t202.5 38t74.5 89zM639 729q0 43 -49.5 81t-97.5 38t-70 -23q-49 -49 -81 -150.5t-29 -188.5t37 -121t71 -33q63 0 112 53q53 51 80 151.5t27 192.5zM453 252q-68 0 -144 20
q-31 -8 -51 -33.5t-20 -55.5t38.5 -51t129.5 -52l94 -27q158 -47 237.5 -109t79.5 -178t-147.5 -209.5t-403.5 -93.5q-184 0 -295.5 64.5t-111.5 177.5q0 86 82 148.5t200 93.5v16q-88 51 -88 135q0 137 187 195v16q-66 41 -106 109.5t-40 146.5q0 170 127 283t307 113
q109 0 244 -41l258 4l-51 -185l-242 60l-2 -21q105 -82 105 -213t-117 -222t-270 -91z" />
    <glyph glyph-name="h" unicode="h" horiz-adv-x="1089" 
d="M971 797q0 -137 -187 -668l56 -18l151 104l35 -43q-49 -82 -129 -143.5t-156 -61.5q-43 0 -112.5 30t-69.5 56q0 43 115 387q68 217 68 253t-29 56.5t-72 20.5t-111.5 -107.5t-187.5 -357.5l-68 -309l-247 -2l75 307l177 840q12 53 -25 69l-117 56l13 57l417 104
l-243 -1003h22q166 364 252 450t178 86t143.5 -46t51.5 -117z" />
    <glyph glyph-name="i" unicode="i" horiz-adv-x="573" 
d="M250 -33q-41 0 -115 33t-67 53l196 742l-61 12l-133 -148l-41 46q45 98 118.5 177t147.5 79q27 0 77 -14.5t90 -36t36 -36.5l-205 -745l55 -18l152 104l35 -43q-49 -82 -129 -143.5t-156 -61.5zM612 1266q0 -66 -42 -118t-100 -52t-95 40t-37 106t42 118.5t100 52.5
t95 -40.5t37 -106.5z" />
    <glyph glyph-name="j" unicode="j" horiz-adv-x="546" 
d="M-350 -385q0 61 36 95t90 34t95 -43t55 -111l51 13q37 86 111 417l176 773l-69 16l-129 -150l-43 46q45 98 119.5 177t148.5 79q45 0 127 -31t76 -56l-166 -712q-98 -438 -250 -590q-111 -106 -236 -107q-82 0 -137 44.5t-55 105.5zM618 1266q0 -66 -42 -118t-100 -52
t-95 40t-37 106t42 118.5t100 52.5t95 -40.5t37 -106.5z" />
    <glyph glyph-name="k" unicode="k" horiz-adv-x="964" 
d="M657 -27q-23 0 -62.5 17.5t-43.5 32.5l-143 428l-76 -33l-60 -422l-245 -2l75 307l177 840q12 53 -25 69l-117 56l13 57l413 104l-114 -469l-119 -464h14l395 208v25q-90 27 -90 119q0 57 43 97t107 40t109.5 -45t45.5 -107q0 -94 -67.5 -153.5t-204.5 -112.5l-94 -37
l153 -383h41l117 107l43 -43q-35 -88 -120 -162t-165 -74z" />
    <glyph glyph-name="l" unicode="l" horiz-adv-x="559" 
d="M238 -33q-41 0 -113 33t-68 53l226 1088q12 53 -25 69l-117 56l13 57l409 104l-282 -1298l57 -18l149 104l37 -43q-49 -82 -130 -143.5t-156 -61.5z" />
    <glyph glyph-name="m" unicode="m" horiz-adv-x="1669" 
d="M1339 -33q-43 0 -111.5 30t-68.5 56q-1 37 91 317t92 319q0 40 -29 60.5t-72 20.5t-112.5 -107.5t-190.5 -357.5l-80 -309l-250 -2l103 364q86 299 86 335t-29 56.5t-72 20.5t-111.5 -107.5t-187.5 -357.5l-67 -309l-248 -2l76 307l100 494l-59 12l-131 -148l-43 46
q47 100 120.5 178t147.5 78q47 0 123 -24t76 -50q0 -74 -113 -463h22q166 364 252 450q87 86 179 86t137 -46t45 -112t-45 -218t-49 -160h22q164 360 252 448t182 88t144.5 -46t50.5 -117q0 -109 -94 -387q-53 -170 -95 -281l58 -18l149 104l37 -43q-49 -82 -130 -143.5
t-157 -61.5z" />
    <glyph glyph-name="n" unicode="n" horiz-adv-x="1126" 
d="M813 -33q-59 0 -129 30t-70 56q0 43 115 387q68 217 68 253t-29 56.5t-72 20.5t-111.5 -107.5t-187.5 -357.5l-67 -309l-248 -2l76 307l100 487l-57 15l-135 -144l-41 46q47 98 119.5 177t146.5 79q47 0 124 -24t77 -50q0 -74 -113 -463h22q166 364 252 450q87 86 179 86
t143 -46t51 -130t-94 -374l-92 -281l55 -18l152 104l34 -43q-49 -82 -129 -143.5t-139 -61.5z" />
    <glyph glyph-name="o" unicode="o" horiz-adv-x="985" 
d="M696 645q0 92 -35.5 154.5t-109.5 62.5t-141.5 -112.5t-95.5 -237.5t-28 -218t37 -160.5t101 -67.5q86 0 151 114.5t93 243.5t28 221zM920 526q0 -206 -143.5 -381.5t-350.5 -175.5q-172 0 -267.5 115.5t-95.5 319.5t145.5 380.5t350.5 176.5q172 0 266.5 -114.5
t94.5 -320.5z" />
    <glyph glyph-name="p" unicode="p" horiz-adv-x="1085" 
d="M801 576q1 204 -101 204q-48 0 -113 -85t-192 -300l-45 -159q47 -66 107.5 -118t97.5 -52t70 32q70 70 123 224t53 254zM293 961q43 0 119.5 -34t76.5 -61q0 -43 -26.5 -122.5t-43 -128t-24.5 -76.5h21q115 229 199.5 325.5t184.5 96.5t164 -81.5t64 -223.5t-63.5 -292.5
t-167.5 -254.5q-139 -139 -283 -140q-120 1 -188 107h-13l-86 -428q-6 -37 43 -49l133 -23l9 -80h-562l7 80l96 23q41 10 51 49l256 1145l-61 14l-131 -148l-43 46q47 100 120.5 178t147.5 78z" />
    <glyph glyph-name="q" unicode="q" horiz-adv-x="1030" 
d="M511 831q-44 0 -77 -32q-61 -61 -111.5 -213t-50.5 -252q0 -184 105 -184q61 0 151 129q35 49 150 233l47 162q-37 61 -103.5 109t-110.5 48zM274 -31q-98 0 -163.5 73.5t-65.5 213.5t69.5 297.5t176.5 263.5q141 141 280 141t183 -157h16l55 157h211l-123 -370
l-198 -940q-6 -39 43 -49l104 -23l6 -80h-555l6 80l119 23q41 10 51 49l109 461l92 301h-20q-158 -264 -207 -324q-91 -117 -189 -117z" />
    <glyph glyph-name="r" unicode="r" horiz-adv-x="923" 
d="M293 961q47 0 123 -24t76 -50q0 -45 -49.5 -225.5t-84.5 -278.5h29q33 88 106.5 241.5t108.5 186.5q49 88 90 121t110 33t115 -45.5t46 -117.5t-39.5 -116.5t-97.5 -44.5t-91.5 45t-15.5 111l-37 10q-29 -25 -143.5 -236t-159.5 -309l-49 -266l-248 -2l76 307l100 494
l-59 12l-131 -148l-43 46q47 100 120.5 178t147.5 78z" />
    <glyph glyph-name="s" unicode="s" horiz-adv-x="784" 
d="M778 786q0 -59 -33 -94t-85 -35t-81.5 32t-29.5 69t12 59q-82 45 -168 51q-29 -18 -55.5 -56t-28.5 -58t7.5 -41t30 -44.5t36.5 -41t46 -45t39 -36.5t33.5 -33t32 -31t29 -27.5t28.5 -29.5t22.5 -27.5t21.5 -30t21.5 -36.5t15.5 -85q-4 -121 -119 -199t-251 -78t-224 43
t-88 138q0 57 34 91.5t86 34.5t80.5 -31.5t28.5 -68.5t-12 -59q100 -49 194 -54q27 18 52.5 58.5t26.5 60.5t-2 33.5t-13 29t-30.5 38t-102.5 96.5q-83 75 -118.5 112t-66 91.5t-28.5 105.5q6 129 115.5 201t248.5 72q295 -1 295 -175z" />
    <glyph glyph-name="t" unicode="t" horiz-adv-x="677" 
d="M262 -33q-41 0 -114.5 30t-67.5 50l158 737l-168 17l6 69l190 76l51 266h222l-62 -294h258l6 -117h-284l-152 -672l57 -18l150 104l37 -43q-49 -82 -130 -143.5t-157 -61.5z" />
    <glyph glyph-name="u" unicode="u" horiz-adv-x="1126" 
d="M319 961q41 0 116 -39t75 -66q0 -45 -109 -367q-65 -215 -65 -247t28.5 -58t63.5 -26q49 0 117.5 106.5t193.5 358.5l72 313h248l-86 -307q-94 -473 -105 -504l56 -21l145 105l37 -41q-49 -84 -127.5 -142.5t-138.5 -58.5t-129.5 30t-69.5 56q0 80 117 453h-23
q-172 -365 -258 -451t-178 -86t-143.5 50.5t-51.5 134.5t77 318t104 323l-60 12l-131 -148l-43 46q45 98 120 177t148 79z" />
    <glyph glyph-name="v" unicode="v" horiz-adv-x="970" 
d="M262 961q45 0 122 -30t77 -54v-762h22l228 383q69 121 69 176t-43 93t-106 50q16 63 64 104.5t117 41.5t119 -46.5t50 -126.5t-49 -169.5t-166 -245.5l-264 -367l-256 -39l-19 826l-59 12l-131 -148l-41 46q45 98 118.5 177t147.5 79z" />
    <glyph glyph-name="w" unicode="w" horiz-adv-x="1499" 
d="M262 961q45 0 122 -30t77 -54l6 -762h18l289 651l-10 195l223 -41l33 -805h20l195 383q70 135 70 183t-39 86t-101 50q16 63 63.5 104.5t113.5 41.5t112.5 -46.5t45.5 -113.5t-30.5 -137t-61.5 -120t-114 -171l-241 -367l-246 -39l-12 627h-17l-268 -588l-262 -39
l-21 826l-59 12l-131 -148l-41 46q45 98 118.5 177t147.5 79z" />
    <glyph glyph-name="x" unicode="x" horiz-adv-x="1044" 
d="M973 672q-117 0 -105 135l-57 10l-188 -319l137 -363h43l115 127l36 -43q-117 -248 -245 -248q-29 0 -98.5 30t-71.5 44l-74 309h-16q-155 -327 -202.5 -356t-113.5 -29t-117 41t-49 105t35 104.5t87 40.5t82 -36t22 -99l55 -12q17 28 74 131.5t86 152.5l26 47l-139 353
h-45l-113 -127l-37 43q115 248 244 248q33 0 99.5 -25t72.5 -49l74 -309h12q102 238 168 311.5t144 73.5t129 -40t49 -103.5t-36 -105.5t-83 -42z" />
    <glyph glyph-name="y" unicode="y" horiz-adv-x="974" 
d="M983 797q0 -145 -260 -482l-186 -252l-115 -229q-174 -348 -372 -348q-97 0 -156.5 47t-59.5 111t36 99.5t91 35.5t96 -46t39 -118l37 -2l258 342l-139 41l-23 799l-59 12l-131 -148l-41 46q45 98 118.5 177t147.5 79q45 0 121 -29t78 -55l-14 -777h26l320 553v25
q-115 45 -115 133q0 63 40 107.5t106 44.5t111.5 -45t45.5 -121z" />
    <glyph glyph-name="z" unicode="z" horiz-adv-x="874" 
d="M301 727q0 -47 -28.5 -75t-79.5 -32t-82 28t-31 79q0 84 78 153.5t198 77.5q153 0 208.5 -66.5t90.5 -152.5l25 2l55 220q63 4 108.5 -33.5t45.5 -101.5t-53.5 -116.5t-151.5 -72.5l-414 -358q81 -31 195 -113t149 -109l33 31q-49 54 -49 104t30 78.5t80 30.5t79.5 -29.5
t29.5 -81.5q0 -88 -71.5 -157.5t-194.5 -79.5q-133 0 -208 64.5t-118 183.5l-26 -2l-58 -228q-63 -2 -109 35t-46 92q0 147 198 193l424 368q-109 39 -319 203l-33 -31q45 -57 45 -104z" />
    <glyph glyph-name="braceleft" unicode="{" horiz-adv-x="714" 
d="M219 -147q0 80 55.5 204.5t55.5 191.5t-60.5 103.5t-193.5 48.5l-23 66l23 61q129 14 191.5 50t62.5 102t-55.5 192.5t-55.5 204.5q0 137 110.5 219t329.5 93v-78q-225 -20 -225 -178q0 -59 55.5 -186.5t55.5 -219.5t-89 -163.5t-227 -86.5v-24q139 -16 227.5 -88
t88.5 -163t-55.5 -217t-55.5 -188q0 -160 225 -180v-74q-217 8 -328.5 90t-111.5 220z" />
    <glyph glyph-name="bar" unicode="|" horiz-adv-x="563" 
d="M231 -322v1797h101v-1797h-101z" />
    <glyph glyph-name="braceright" unicode="}" horiz-adv-x="714" 
d="M381 249q0 -66 55.5 -191.5t55.5 -204.5q0 -137 -111 -219.5t-328 -90.5v74q225 20 226 180q0 61 -55.5 187.5t-55.5 217.5t88 163.5t227 87.5v24q-139 14 -227 86t-88 164t55.5 219t55.5 187q0 158 -226 178v78q217 -10 328 -92.5t111 -219.5q0 -78 -55.5 -203.5
t-55.5 -192.5t63.5 -102.5t192.5 -50.5l22 -61l-22 -66q-133 -12 -194.5 -49t-61.5 -103z" />
    <glyph glyph-name="asciitilde" unicode="~" horiz-adv-x="786" 
d="M8 369q62 268 232 268q80 0 178 -71.5t130 -71.5t57.5 27.5t60.5 96.5h84q-61 -268 -232 -268q-80 0 -180 73t-132 73t-52.5 -27t-57.5 -100h-88z" />
    <glyph glyph-name="nbspace" unicode="&#xa0;" horiz-adv-x="466" 
 />
    <glyph glyph-name="exclamdown" unicode="&#xa1;" horiz-adv-x="602" 
d="M260 1166q0 58 41 100.5t101 42.5t102.5 -42.5t42.5 -100.5t-42.5 -100t-102.5 -42t-101 42t-41 100zM254 -33h-8q-76 0 -112.5 33t-20.5 86l225 778q4 14 27.5 12t23.5 -16l-8 -790q-2 -47 -36 -75t-91 -28z" />
    <glyph glyph-name="cent" unicode="&#xa2;" horiz-adv-x="839" 
d="M289 324q0 -144 88 -189l178 686q-39 16 -88 17q-14 0 -39 -21q-49 -49 -94 -199t-45 -294zM57 319q0 238 149.5 437.5t373.5 204.5h4l88 342h96l-92 -357q76 -23 122 -72t46 -111t-38 -101t-102 -39t-96 55l-141 -553q57 10 250 131l35 -43q-160 -202 -326 -233
l-80 -318h-94l78 309q-123 10 -198 108.5t-75 239.5z" />
    <glyph glyph-name="sterling" unicode="&#xa3;" horiz-adv-x="1079" 
d="M1087 1122q-1 -142 -131 -141q-64 0 -97.5 57.5t-6.5 132.5q-37 33 -90 33q-145 0 -184 -305q-23 -214 -31 -281h293l6 -94h-314q-21 -193 -108 -307v-10q99 -33 184.5 -49.5t116.5 -16.5q94 0 139 45q39 43 82 133l51 -18q0 -162 -73.5 -256t-214.5 -94q-61 0 -123 25.5
t-101.5 55t-119.5 109.5q-139 -158 -363 -190l-14 96q154 33 229.5 125t83.5 352h-225l6 94h227q6 125 19 205q29 205 161 335t330 130q125 0 196.5 -48t71.5 -118z" />
    <glyph glyph-name="currency" unicode="&#xa4;" horiz-adv-x="890" 
d="M645 735q0 84 -54 144.5t-144.5 60.5t-145.5 -60.5t-55 -144.5t55 -144.5t144 -60.5t144.5 60.5t55.5 144.5zM754 737q0 -94 -49 -178l126 -127l-81 -82l-125 125q-77 -51 -175 -51t-182 49l-114 -115l-80 80l114 115q-51 80 -51 182.5t49 177.5l-118 119l82 82l118 -119
q78 51 178.5 51.5t182.5 -53.5l112 113l80 -80l-114 -115q47 -80 47 -174z" />
    <glyph glyph-name="yen" unicode="&#xa5;" horiz-adv-x="1253" 
d="M1339 1280l-6 -82l-39 -12q-61 -16 -109 -55t-126 -150l-252 -356h303l8 -95h-354l-21 -161h367l8 -95h-383l-16 -122q-6 -41 41 -50l129 -22l6 -80h-623l7 80l133 22q47 8 53 50l16 122h-327l4 95h340l20 161h-366l6 95h331l-237 489q-27 49 -80 64l-70 20l-6 82h570
l-7 -82l-71 -12q-92 -16 0 -215l125 -307h12l215 315q74 106 80 151.5t-55 57.5l-45 10l-7 82h426z" />
    <glyph glyph-name="brokenbar" unicode="&#xa6;" horiz-adv-x="563" 
d="M231 -285v686h101v-686h-101zM231 629v686h101v-686h-101z" />
    <glyph glyph-name="section" unicode="&#xa7;" horiz-adv-x="935" 
d="M735 465q0 57 -44 104t-128 103q-186 121 -239 174q-80 -43 -80 -125q0 -57 46 -104.5t136 -102.5q20 -14 103.5 -69t129.5 -103q76 39 76 123zM895 575q0 -90 -56.5 -163.5t-142.5 -114.5q51 -57 52 -129q0 -115 -109 -206t-272 -91q-119 0 -201 45t-82 125q0 53 37 90
t95 37t104.5 -53.5t44.5 -132.5q39 -20 91 -20t87 36.5t35 81.5t-39 87t-75 66.5t-109 70.5q-118 75 -196.5 141.5t-77.5 160.5t58.5 168t143.5 115q-49 59 -50 129q0 117 104.5 202t242.5 85t214 -45.5t76 -110.5t-37 -103t-93 -38t-94 52t-36 134q-36 20 -92 20
t-85.5 -33.5t-29.5 -75.5t33 -82t102 -87.5t93 -58.5q201 -125 232.5 -190t31.5 -112z" />
    <glyph glyph-name="dieresis" unicode="&#xa8;" horiz-adv-x="819" 
d="M422 1241q0 -59 -36 -100t-97.5 -41t-98 41t-36.5 100t36.5 101t98 42t97.5 -42t36 -101zM860 1241q0 -59 -36 -100t-97 -41t-97 41t-36 100t36 101t97 42t97 -42t36 -101z" />
    <glyph glyph-name="copyright" unicode="&#xa9;" horiz-adv-x="1572" 
d="M395 636q0 173 119 285.5t291 112.5q94 0 178 -30l107 28v-282h-86l-56 174q-51 39 -153 39t-167 -79t-65 -228t69.5 -248t190.5 -99q72 0 113 29l72 182h92l-25 -260l-78 16q-84 -37 -190 -36q-203 0 -307.5 111.5t-104.5 284.5zM1417 638q0 263 -185 451.5
t-445.5 188.5t-445.5 -188.5t-185 -451.5t185 -450.5t445.5 -187.5t445.5 187.5t185 450.5zM1501 638q0 -298 -209 -507t-506 -209t-505.5 209t-208.5 507t208.5 508t505.5 210t506 -210t209 -508z" />
    <glyph glyph-name="ordfeminine" unicode="&#xaa;" horiz-adv-x="788" 
d="M285 862q0 -138 80 -137q43 0 204 266l31 103q-104 109 -170 108q-26 0 -54 -28t-59.5 -132t-31.5 -180zM625 584q-27 0 -70 34t-43 54t13.5 58t39 108.5t45.5 132.5h-14q-115 -209 -184.5 -298t-140.5 -89t-112.5 54t-41.5 156t47 219t121 191q100 102 215 103
q87 0 118 -115h13l31 115l149 -9l-78 -303l-63 -288l41 -11l118 107l23 -31q-43 -72 -108.5 -130t-118.5 -58z" />
    <glyph glyph-name="guillemotleft" unicode="&#xab;" 
d="M496 147l-29 -43l-430 295v115l518 303l16 -43l-333 -321zM924 127l-29 -43l-436 315v115l530 324l19 -43l-373 -342z" />
    <glyph glyph-name="logicalnot" unicode="&#xac;" horiz-adv-x="983" 
d="M911 637v-438h-116v321h-723l6 117h833z" />
    <glyph glyph-name="uni00AD" unicode="&#xad;" horiz-adv-x="681" 
d="M618 440h-550l6 123h538z" />
    <glyph glyph-name="registered" unicode="&#xae;" horiz-adv-x="1572" 
d="M926 801q0 76 -48.5 114.5t-132.5 36.5l-49 -2v-291l72 -8q158 7 158 150zM696 375q0 -20 29 -29l55 -12l4 -70h-342l7 70l57 12q29 8 29 29v534q0 23 -29 29l-57 14l-7 70h365q143 0 216 -55.5t73 -137.5q0 -160 -183 -211l154 -231q23 -29 59 -43l43 -10l7 -70h-230
l-45 84l-141 236l-64 4v-213zM1417 640q0 263 -183.5 451.5t-445.5 188.5t-447 -188.5t-185 -450.5t185 -449.5t446 -187.5t445.5 186.5t184.5 449.5zM1501 641q0 -297 -208 -506t-506 -209t-506.5 209t-208.5 506t208.5 507t505.5 210t506 -210t209 -507z" />
    <glyph glyph-name="macron" unicode="&#xaf;" horiz-adv-x="819" 
d="M778 1118h-608l25 119h581z" />
    <glyph glyph-name="degree" unicode="&#xb0;" horiz-adv-x="839" 
d="M658.5 808.5q76.5 81.5 77.5 189.5t-63.5 172.5t-170.5 65.5t-183 -84.5t-78 -191.5t64 -168.5t171 -63.5t182.5 80.5zM840 1014q0 -148 -110 -259.5t-256 -111.5t-238.5 84.5t-92.5 230.5t109.5 257.5t255.5 111.5t239 -82.5t93 -230.5z" />
    <glyph glyph-name="plusminus" unicode="&#xb1;" horiz-adv-x="983" 
d="M551 483v-333h-117v333h-371l7 117h364v330h117v-330h362l7 -117h-369zM918 4h-852l6 117h839z" />
    <glyph glyph-name="twosuperior" unicode="&#xb2;" horiz-adv-x="675" 
d="M-18 559v82q45 37 157.5 121.5t192.5 162.5t80 179q0 53 -39 83t-86 30q-98 0 -219 -84l-15 34q49 66 142 123.5t197 57.5t170.5 -55.5t66.5 -147.5q0 -115 -135 -216.5t-338 -221.5v-9h86q162 0 206 4.5t62 22.5l41 57h57l-78 -223h-548z" />
    <glyph glyph-name="threesuperior" unicode="&#xb3;" horiz-adv-x="675" 
d="M233 590q70 0 111 58.5t41 139.5q0 104 -98 105q-20 0 -86 -19l-25 54q182 88 218 122t36 76t-36 65t-85 23q-106 0 -219 -94l-14 37q72 90 166 140.5t186 50.5t157.5 -42t65.5 -104t-19.5 -86t-30.5 -38.5t-36.5 -29t-39 -22.5t-45 -20.5t-43 -16.5t-47.5 -15t-42 -13
v-13q55 18 103 19q158 0 157 -160q0 -119 -117 -199t-260 -80q-78 0 -157.5 35t-79.5 105q0 35 26.5 61.5t63.5 26.5q63 0 90 -50.5t23 -111.5q24 -4 36 -4z" />
    <glyph glyph-name="acute" unicode="&#xb4;" horiz-adv-x="817" 
d="M838 1427l-412 -372h-92l244 372h260z" />
    <glyph glyph-name="mu" unicode="&#xb5;" horiz-adv-x="1146" 
d="M748 96h-11q-49 -66 -94 -96.5t-113 -30.5q-100 0 -168 115h-10l31 -569l-260 -19l27 780l2 529q0 18 -14.5 24.5t-71.5 14.5l-41 4l-7 80h383l-12 -617q0 -88 44 -124.5t138 -36.5t177 63v594q0 16 -15.5 24.5t-62.5 12.5l-60 4l-8 80h385v-752q0 -61 35 -74l104 -32
l-6 -60l-372 -41v127z" />
    <glyph glyph-name="mu" unicode="&#x3bc;" horiz-adv-x="1146" 
d="M748 96h-11q-49 -66 -94 -96.5t-113 -30.5q-100 0 -168 115h-10l31 -569l-260 -19l27 780l2 529q0 18 -14.5 24.5t-71.5 14.5l-41 4l-7 80h383l-12 -617q0 -88 44 -124.5t138 -36.5t177 63v594q0 16 -15.5 24.5t-62.5 12.5l-60 4l-8 80h385v-752q0 -61 35 -74l104 -32
l-6 -60l-372 -41v127z" />
    <glyph glyph-name="paragraph" unicode="&#xb6;" horiz-adv-x="1001" 
d="M610 498q-217 0 -352 102t-135 266q0 414 557 414h287l-176 -1346h-132l78 574q-78 -10 -127 -10z" />
    <glyph glyph-name="periodcentered" unicode="&#xb7;" horiz-adv-x="475" 
d="M379 488q0 -64 -46 -112t-113 -48t-113 47t-46 112.5t46.5 111.5t114 46t112.5 -46.5t45 -110.5z" />
    <glyph glyph-name="cedilla" unicode="&#xb8;" horiz-adv-x="819" 
d="M379 -334q0 98 -158 98q-74 0 -143 -14l6 49l266 244h103l-174 -154q121 -4 190.5 -50t69.5 -126q0 -115 -136.5 -190.5t-355.5 -85.5l-12 55q166 20 255 65.5t89 108.5z" />
    <glyph glyph-name="onesuperior" unicode="&#xb9;" horiz-adv-x="675" 
d="M53 559l4 70l123 14q33 2 37 29l76 522l-148 25l11 49l372 88l-98 -684q-4 -25 25 -29l88 -14l4 -70h-494z" />
    <glyph glyph-name="ordmasculine" unicode="&#xba;" horiz-adv-x="718" 
d="M588 1074q0 159 -106 159q-54 0 -103 -83t-69 -170t-19 -158q0 -71 25.5 -117t80.5 -46t103.5 84t68.5 185q19 75 19 146zM752 990q0 -150 -103.5 -278t-257.5 -128q-125 0 -195.5 83t-70.5 233t104.5 278.5t244.5 128.5t209 -83.5t69 -233.5z" />
    <glyph glyph-name="guillemotright" unicode="&#xbb;" 
d="M537 399l-531 -323l-18 43l370 342l-286 325l26 43l439 -315v-115zM956 399l-516 -303l-18 43l336 322l-258 305l30 43l426 -295v-115z" />
    <glyph glyph-name="onequarter" unicode="&#xbc;" horiz-adv-x="1464" 
d="M94 559l4 70l123 14q33 2 37 29l76 522l-148 25l11 49l372 88l-98 -684q-4 -25 25 -29l88 -14l4 -70h-494zM35 -238l1294 1518h123l-1294 -1518h-123zM850 -2h252l51 311h-14zM1059 -293l35 209h-334l-6 70l485 522l127 -37l-74 -473h133l-18 -82h-123l-35 -209h-190z
" />
    <glyph glyph-name="onehalf" unicode="&#xbd;" horiz-adv-x="1464" 
d="M729 -293v82q45 37 158 121t192.5 163t79.5 179q0 53 -39 83t-86 30q-98 0 -219 -84l-14 34q49 66 142 123.5t197 57.5t170 -55.5t66 -147.5q0 -116 -116.5 -203.5t-173 -123.5t-183.5 -111v-9h86q162 0 206 4.5t62 22.5l41 57h58l-78 -223h-549zM94 559l4 70l123 14
q33 2 37 29l76 522l-148 25l11 49l372 88l-98 -684q-4 -25 25 -29l88 -14l4 -70h-494zM35 -238l1294 1518h123l-1294 -1518h-123z" />
    <glyph glyph-name="threequarters" unicode="&#xbe;" horiz-adv-x="1464" 
d="M274 590q70 0 111 58.5t41 139.5q0 104 -98 105q-20 0 -86 -19l-25 54q182 88 218 122t36 76t-36 65t-85 23q-106 0 -219 -94l-14 37q72 90 166 140.5t186 50.5t157.5 -42t65.5 -104t-19.5 -86t-30.5 -38.5t-36.5 -29t-39 -22.5t-45.5 -20.5t-43 -16.5t-47 -15t-42 -13
v-13q55 18 103 19q158 0 157 -160q0 -119 -117 -199t-260 -80q-78 0 -157.5 35t-79.5 105q0 35 26.5 61.5t63.5 26.5q63 0 90 -50.5t23 -111.5q24 -4 36 -4zM35 -238l1294 1518h123l-1294 -1518h-123zM850 -2h252l51 311h-14zM1059 -293l35 209h-334l-6 70l485 522l127 -37
l-74 -473h133l-18 -82h-123l-35 -209h-190z" />
    <glyph glyph-name="questiondown" unicode="&#xbf;" horiz-adv-x="794" 
d="M641 668q0 -86 -88.5 -138t-217.5 -89q-129 -38 -151 -57t-22 -40q0 -59 87 -104t210 -45q61 0 131 12q31 -33 31 -91t-53.5 -99.5t-149.5 -41.5q-160 0 -276.5 107.5t-116.5 257.5t85.5 213t205.5 100t147 61t26 58q0 66 -67 129l100 -2q47 -33 83 -89t36 -142z
M418 1172q0 58 40 100.5t100 42.5t102 -42.5t42 -100.5t-42 -100t-101 -42t-100 42t-41 100z" />
    <glyph glyph-name="Agrave" unicode="&#xc0;" horiz-adv-x="1269" 
d="M821 1397h-94l-309 372h260zM717 526l-84 527h-17l-227 -527h328zM1227 0h-604l6 84l80 12q53 8 62 42t-9 116l-29 172h-385l-35 -94q-88 -209 23 -232l74 -16l6 -84h-486l7 84l57 18q66 18 102.5 62.5t118.5 220.5l356 786v78l273 62l221 -1125q8 -39 23.5 -57t54.5 -27
l78 -18z" />
    <glyph glyph-name="Aacute" unicode="&#xc1;" horiz-adv-x="1269" 
d="M1114 1769l-412 -372h-92l244 372h260zM717 526l-84 527h-17l-227 -527h328zM1227 0h-604l6 84l80 12q53 8 62 42t-9 116l-29 172h-385l-35 -94q-88 -209 23 -232l74 -16l6 -84h-486l7 84l57 18q66 18 102.5 62.5t118.5 220.5l356 786v78l273 62l221 -1125
q8 -39 23.5 -57t54.5 -27l78 -18z" />
    <glyph glyph-name="Acircumflex" unicode="&#xc2;" horiz-adv-x="1269" 
d="M717 526l-84 527h-17l-227 -527h328zM1016 1397h-94l-177 245h-4l-241 -245h-94l233 372h242zM1227 0h-604l6 84l80 12q53 8 62 42t-9 116l-29 172h-385l-35 -94q-88 -209 23 -232l74 -16l6 -84h-486l7 84l57 18q66 18 102.5 62.5t118.5 220.5l356 786v78l273 62
l221 -1125q8 -39 23.5 -57t54.5 -27l78 -18z" />
    <glyph glyph-name="Atilde" unicode="&#xc3;" horiz-adv-x="1269" 
d="M717 526l-84 527h-17l-227 -527h328zM568 1559q-32 0 -52 -27t-57 -100h-88q63 276 245 276q68 0 165 -71.5t129 -71.5t57.5 27.5t60.5 97.5h86q-66 -276 -248 -277q-68 0 -167 73t-131 73zM1227 0h-604l6 84l80 12q53 8 62 42t-9 116l-29 172h-385l-35 -94
q-88 -209 23 -232l74 -16l6 -84h-486l7 84l57 18q66 18 102.5 62.5t118.5 220.5l356 786v78l273 62l221 -1125q8 -39 23.5 -57t54.5 -27l78 -18z" />
    <glyph glyph-name="Adieresis" unicode="&#xc4;" horiz-adv-x="1269" 
d="M1085 1583q0 -59 -35.5 -100t-97 -41t-97.5 41t-36 100t36 101t97.5 42t97 -42t35.5 -101zM647 1583q0 -59 -36 -100t-97 -41t-98 41t-37 100t37 101t98 42t97 -42t36 -101zM717 526l-84 527h-17l-227 -527h328zM1227 0h-604l6 84l80 12q53 8 62 42t-9 116l-29 172h-385
l-35 -94q-88 -209 23 -232l74 -16l6 -84h-486l7 84l57 18q66 18 102.5 62.5t118.5 220.5l356 786v78l273 62l221 -1125q8 -39 23.5 -57t54.5 -27l78 -18z" />
    <glyph glyph-name="Aring" unicode="&#xc5;" horiz-adv-x="1269" 
d="M874 1417.5q0 57.5 -35.5 98t-95 40.5t-95.5 -40.5t-36 -98t36 -97.5t95.5 -40t95 40t35.5 97.5zM715 520l-78 533h-21l-227 -533h326zM743.5 1622q90.5 0 145.5 -59.5t55 -145.5q0 -117 -86 -170l207 -1061q12 -70 78 -84l78 -18l6 -84h-604l6 84l80 12q53 8 62 42
t-9 116l-29 172h-385l-35 -94q-88 -209 23 -232l74 -16l6 -84h-486l7 84l57 18q66 16 100.5 61.5t120.5 221.5l395 875q-70 59 -68 151t56.5 151.5t145 59.5z" />
    <glyph glyph-name="AE" unicode="&#xc6;" horiz-adv-x="1792" 
d="M768 549l86 645h-14l-412 -645h340zM219 169q0 -58 62 -69l71 -16l6 -84h-483l6 84l58 18q63 18 108 64.5t143 198.5l449 706q57 92 -35 109l-96 20l-2 80h1284l-55 -422h-142l-22 170q-10 79 -50.5 119.5t-338.5 40.5h-64l-69 -496h22q92 0 133 12.5t62 53.5l69 139h105
l-113 -496h-104l2 131q2 39 -32 53.5t-142 14.5h-15l-67 -508h71q178 0 256 11.5t120 42t77 106.5l70 151h147l-94 -403h-1071l12 80l105 22q47 10 53 50l41 303h-387l-64 -103q-86 -125 -86 -183z" />
    <glyph glyph-name="Ccedilla" unicode="&#xc7;" horiz-adv-x="1331" 
d="M100 545q0 147 62.5 291.5t171.5 253.5q219 219 518 219q178 0 309 -52l176 48l-61 -457h-141l-48 295q-92 66 -215 65q-197 0 -335 -201t-138 -469t127 -391q80 -79 196 -79t212 49l143 305h156l-96 -422l-123 25q-137 -51 -289 -58l-88 -78q121 -4 190.5 -50t69.5 -126
q0 -115 -136 -190.5t-355 -85.5l-13 55q166 20 255 65.5t89 108.5q0 98 -157 98q-74 0 -144 -14l6 49l187 170q-260 20 -394.5 173t-134.5 403z" />
    <glyph glyph-name="Egrave" unicode="&#xc8;" horiz-adv-x="1284" 
d="M559 692q92 0 133 12.5t62 53.5l69 139h105l-113 -496h-104l2 131q2 39 -32 53.5t-142 14.5h-31l-68 -508h88q178 0 256 11.5t120 42t77 106.5l70 151h147l-94 -403h-1090l9 82l100 22q47 10 53 50l133 972q6 39 -41 50l-94 22l-4 82h1108l-55 -422h-142l-22 170
q-10 79 -50.5 119.5t-338.5 40.5h-80l-70 -496h39zM860 1397h-94l-309 372h260z" />
    <glyph glyph-name="Eacute" unicode="&#xc9;" horiz-adv-x="1284" 
d="M559 692q92 0 133 12.5t62 53.5l69 139h105l-113 -496h-104l2 131q2 39 -32 53.5t-142 14.5h-31l-68 -508h88q178 0 256 11.5t120 42t77 106.5l70 151h147l-94 -403h-1090l9 82l100 22q47 10 53 50l133 972q6 39 -41 50l-94 22l-4 82h1108l-55 -422h-142l-22 170
q-10 79 -50.5 119.5t-338.5 40.5h-80l-70 -496h39zM1122 1769l-411 -372h-93l244 372h260z" />
    <glyph glyph-name="Ecircumflex" unicode="&#xca;" horiz-adv-x="1284" 
d="M559 692q92 0 133 12.5t62 53.5l69 139h105l-113 -496h-104l2 131q2 39 -32 53.5t-142 14.5h-31l-68 -508h88q178 0 256 11.5t120 42t77 106.5l70 151h147l-94 -403h-1090l9 82l100 22q47 10 53 50l133 972q6 39 -41 50l-94 22l-4 82h1108l-55 -422h-142l-22 170
q-10 79 -50.5 119.5t-338.5 40.5h-80l-70 -496h39zM1034 1397h-94l-176 245h-4l-242 -245h-94l233 372h242z" />
    <glyph glyph-name="Edieresis" unicode="&#xcb;" horiz-adv-x="1284" 
d="M559 692q92 0 133 12.5t62 53.5l69 139h105l-113 -496h-104l2 131q2 39 -32 53.5t-142 14.5h-31l-68 -508h88q178 0 256 11.5t120 42t77 106.5l70 151h147l-94 -403h-1090l9 82l100 22q47 10 53 50l133 972q6 39 -41 50l-94 22l-4 82h1108l-55 -422h-142l-22 170
q-10 79 -50.5 119.5t-338.5 40.5h-80l-70 -496h39zM676 1583q0 -59 -36 -100t-97.5 -41t-98 41t-36.5 100t36.5 101t98 42t97.5 -42t36 -101zM1114 1583q0 -59 -36 -100t-97 -41t-97 41t-36 100t36 101t97 42t97 -42t36 -101z" />
    <glyph glyph-name="Igrave" unicode="&#xcc;" horiz-adv-x="763" 
d="M635 0h-617l7 82l120 22q47 10 54 50l133 972q6 41 -41 50l-115 22l-6 82h614l-6 -82l-123 -22q-47 -10 -53 -50l-131 -972q-6 -37 41 -50l115 -22zM569 1397h-94l-309 372h260z" />
    <glyph glyph-name="Iacute" unicode="&#xcd;" horiz-adv-x="763" 
d="M635 0h-617l7 82l120 22q47 10 54 50l133 972q6 41 -41 50l-115 22l-6 82h614l-6 -82l-123 -22q-47 -10 -53 -50l-131 -972q-6 -37 41 -50l115 -22zM944 1769l-412 -372h-92l244 372h260z" />
    <glyph glyph-name="Icircumflex" unicode="&#xce;" horiz-adv-x="763" 
d="M635 0h-617l7 82l120 22q47 10 54 50l133 972q6 41 -41 50l-115 22l-6 82h614l-6 -82l-123 -22q-47 -10 -53 -50l-131 -972q-6 -37 41 -50l115 -22zM791 1397h-95l-176 245h-4l-242 -245h-94l234 372h241z" />
    <glyph glyph-name="Idieresis" unicode="&#xcf;" horiz-adv-x="763" 
d="M635 0h-617l7 82l120 22q47 10 54 50l133 972q6 41 -41 50l-115 22l-6 82h614l-6 -82l-123 -22q-47 -10 -53 -50l-131 -972q-6 -37 41 -50l115 -22zM418 1583q0 -59 -36 -100t-97.5 -41t-98 41t-36.5 100t36.5 101t98 42t97.5 -42t36 -101zM856 1583q0 -59 -36 -100
t-97 -41t-97 41t-36 100t36 101t97 42t97 -42t36 -101z" />
    <glyph glyph-name="Eth" unicode="&#xd0;" horiz-adv-x="1404" 
d="M1065 717q0 219 -96.5 344t-298.5 125h-82l-66 -492h226l6 -94h-246l-16 -121q-14 -119 -31 -237l-17 -119l138 -31q211 10 347 174t136 451zM1360 698q0 -272 -209 -481q-98 -98 -259 -157.5t-351 -59.5h-527l9 82l100 22q47 10 53 50l60 446h-146l6 94h152l59 432
q6 39 -41 50l-92 22l-6 82l545 2q305 0 476 -156t171 -428z" />
    <glyph glyph-name="Ntilde" unicode="&#xd1;" horiz-adv-x="1464" 
d="M1518 1280l-7 -82l-98 -20q-51 -10 -78.5 -87t-60.5 -321l-109 -786h-198l-537 1042h-14l-70 -516q-35 -252 -31 -324.5t54 -83.5l106 -20l6 -82h-489l6 82l98 20q51 10 78 87t59 321l76 549q6 53 -3 79.5t-46 37.5l-88 22l-4 82h428l487 -952h17l59 442q35 256 32 326.5
t-50 81.5l-111 20l-6 82h494zM656 1559q-32 0 -52 -27t-57 -100h-88q63 276 246 276q68 0 164.5 -71.5t128.5 -71.5t57.5 27.5t60.5 97.5h86q-66 -276 -248 -277q-68 0 -167 73t-131 73z" />
    <glyph glyph-name="Ograve" unicode="&#xd2;" horiz-adv-x="1464" 
d="M806 1206q-116 0 -199 -75.5t-149.5 -251t-66.5 -398.5t109 -329q80 -80 197 -80t199.5 75.5t149 245.5t66.5 396q0 227 -106 339q-84 78 -200 78zM1405 713q0 -317 -227 -549q-188 -195 -464 -195t-446 167t-170 427q0 305 203 524t504 220q262 0 431 -167t169 -427z
M909 1397h-94l-309 372h260z" />
    <glyph glyph-name="Oacute" unicode="&#xd3;" horiz-adv-x="1464" 
d="M806 1206q-116 0 -199 -75.5t-149.5 -251t-66.5 -398.5t109 -329q80 -80 197 -80t199.5 75.5t149 245.5t66.5 396q0 227 -106 339q-84 78 -200 78zM1405 713q0 -317 -227 -549q-188 -195 -464 -195t-446 167t-170 427q0 305 203 524t504 220q262 0 431 -167t169 -427z
M1223 1769l-412 -372h-92l244 372h260z" />
    <glyph glyph-name="Ocircumflex" unicode="&#xd4;" horiz-adv-x="1464" 
d="M806 1206q-116 0 -199 -75.5t-149.5 -251t-66.5 -398.5t109 -329q80 -80 197 -80t199.5 75.5t149 245.5t66.5 396q0 227 -106 339q-84 78 -200 78zM1405 713q0 -317 -227 -549q-188 -195 -464 -195t-446 167t-170 427q0 305 203 524t504 220q262 0 431 -167t169 -427z
M1153 1397h-94l-176 245h-4l-242 -245h-94l233 372h242z" />
    <glyph glyph-name="Otilde" unicode="&#xd5;" horiz-adv-x="1464" 
d="M806 1206q-116 0 -199 -75.5t-149.5 -251t-66.5 -398.5t109 -329q80 -80 197 -80t199.5 75.5t149 245.5t66.5 396q0 227 -106 339q-84 78 -200 78zM1405 713q0 -317 -227 -549q-188 -195 -464 -195t-446 167t-170 427q0 305 203 524t504 220q262 0 431 -167t169 -427z
M675 1559q-32 0 -52.5 -27t-57.5 -100h-88q63 276 246 276q68 0 165 -71.5t129 -71.5t57.5 27.5t60.5 97.5h86q-66 -276 -248 -277q-68 0 -167 73t-131 73z" />
    <glyph glyph-name="Odieresis" unicode="&#xd6;" horiz-adv-x="1464" 
d="M806 1206q-116 0 -199 -75.5t-149.5 -251t-66.5 -398.5t109 -329q80 -80 197 -80t199.5 75.5t149 245.5t66.5 396q0 227 -106 339q-84 78 -200 78zM1405 713q0 -317 -227 -549q-188 -195 -464 -195t-446 167t-170 427q0 305 203 524t504 220q262 0 431 -167t169 -427z
M764 1583q0 -59 -36 -100t-97.5 -41t-98 41t-36.5 100t36.5 101t98 42t97.5 -42t36 -101zM1202 1583q0 -59 -36 -100t-97 -41t-97 41t-36 100t36 101t97 42t97 -42t36 -101z" />
    <glyph glyph-name="multiply" unicode="&#xd7;" horiz-adv-x="983" 
d="M915 823l-342 -342l342 -342l-81 -82l-342 340l-342 -340l-82 82l342 342l-342 342l82 82l342 -342l342 342z" />
    <glyph glyph-name="Oslash" unicode="&#xd8;" horiz-adv-x="1464" 
d="M1133 778q0 174 -70 287l-539 -926q88 -73 186 -73t195 69t162.5 269t65.5 374zM401 514q0 -196 70 -305l539 928q-70 75 -188 75t-201.5 -76.5t-151.5 -251t-68 -370.5zM715 -31q-147 0 -258 51l-101 -172h-94l121 209q-127 78 -198.5 210t-69.5 296q0 307 192 516
q211 227 512 228q139 0 258 -52l90 154h97q-113 -190 -113 -192q127 -76 198.5 -208t69.5 -296q0 -317 -227 -549q-188 -195 -477 -195z" />
    <glyph glyph-name="Ugrave" unicode="&#xd9;" horiz-adv-x="1449" 
d="M682 -43q-219 0 -352 106.5t-133 309.5q0 61 6 112l88 641q6 39 -41 50l-92 22l-6 82h573l-6 -82l-103 -22q-47 -12 -53 -50l-88 -641q-10 -88 -10 -123q0 -127 81 -199.5t222 -72.5t229 85t117 282l45 313q35 254 31 325.5t-53 82.5l-107 20l-6 82h492l-7 -82l-98 -20
q-51 -10 -77.5 -86t-61.5 -322l-49 -348q-35 -231 -178.5 -348t-362.5 -117zM965 1397h-95l-309 372h260z" />
    <glyph glyph-name="Uacute" unicode="&#xda;" horiz-adv-x="1449" 
d="M682 -43q-219 0 -352 106.5t-133 309.5q0 61 6 112l88 641q6 39 -41 50l-92 22l-6 82h573l-6 -82l-103 -22q-47 -12 -53 -50l-88 -641q-10 -88 -10 -123q0 -127 81 -199.5t222 -72.5t229 85t117 282l45 313q35 254 31 325.5t-53 82.5l-107 20l-6 82h492l-7 -82l-98 -20
q-51 -10 -77.5 -86t-61.5 -322l-49 -348q-35 -231 -178.5 -348t-362.5 -117zM1288 1769l-411 -372h-93l244 372h260z" />
    <glyph glyph-name="Ucircumflex" unicode="&#xdb;" horiz-adv-x="1449" 
d="M682 -43q-219 0 -352 106.5t-133 309.5q0 61 6 112l88 641q6 39 -41 50l-92 22l-6 82h573l-6 -82l-103 -22q-47 -12 -53 -50l-88 -641q-10 -88 -10 -123q0 -127 81 -199.5t222 -72.5t229 85t117 282l45 313q35 254 31 325.5t-53 82.5l-107 20l-6 82h492l-7 -82l-98 -20
q-51 -10 -77.5 -86t-61.5 -322l-49 -348q-35 -231 -178.5 -348t-362.5 -117zM1176 1397h-95l-176 245h-4l-242 -245h-94l234 372h241z" />
    <glyph glyph-name="Udieresis" unicode="&#xdc;" horiz-adv-x="1449" 
d="M682 -43q-219 0 -352 106.5t-133 309.5q0 61 6 112l88 641q6 39 -41 50l-92 22l-6 82h573l-6 -82l-103 -22q-47 -12 -53 -50l-88 -641q-10 -88 -10 -123q0 -127 81 -199.5t222 -72.5t229 85t117 282l45 313q35 254 31 325.5t-53 82.5l-107 20l-6 82h492l-7 -82l-98 -20
q-51 -10 -77.5 -86t-61.5 -322l-49 -348q-35 -231 -178.5 -348t-362.5 -117zM758 1583q0 -59 -36 -100t-97.5 -41t-98.5 41t-37 100t37 101t98.5 42t97.5 -42t36 -101zM1196 1583q0 -59 -36 -100t-97.5 -41t-97 41t-35.5 100t35.5 101t97 42t97.5 -42t36 -101z" />
    <glyph glyph-name="Yacute" unicode="&#xdd;" horiz-adv-x="1222" 
d="M1348 1280l-7 -84l-49 -14q-61 -16 -108 -55.5t-131 -159.5l-295 -428l-49 -385q-6 -41 41 -50l120 -22l-2 -82h-628l12 82l131 22q45 6 53 50l49 372l-249 543q-27 51 -49.5 73.5t-59.5 33.5l-61 20l-7 84h588l-6 -84l-82 -12q-53 -8 -54 -55.5t42 -145.5l145 -356h17
l235 354q66 96 68 142t-62 59l-73 14l-7 84h478zM1174 1769l-412 -372h-92l243 372h261z" />
    <glyph glyph-name="Thorn" unicode="&#xde;" horiz-adv-x="1204" 
d="M885 648q0 136 -77 214t-192 78h-59l-80 -586q49 -12 98 -12q139 0 224.5 85t85.5 221zM1163 659q0 -179 -160.5 -291t-400.5 -112q-51 0 -137 8l-16 -110q-6 -43 40 -50l127 -22l5 -82h-607l9 82l100 22q47 10 53 50l133 972q6 39 -41 50l-92 22l-6 82h573l-6 -82
l-102 -22q-47 -12 -53 -50l-13 -96h111q219 0 351 -96t132 -275z" />
    <glyph glyph-name="germandbls" unicode="&#xdf;" horiz-adv-x="1165" 
d="M1085 380q0 -157 -119.5 -284t-285.5 -127q-102 0 -174 55.5t-72 132.5t42 119.5t105 42.5t95.5 -45t19 -101t-64.5 -89q18 -18 63 -18q74 0 128.5 64t54.5 184t-78 260.5t-228 242.5l9 70q139 4 220 73.5t81 188.5q0 76 -40 125t-108 49q-98 0 -153.5 -94t-98.5 -311
l-143 -725q-88 -449 -229 -592q-104 -104 -259 -105q-84 0 -142 45t-58 109t33 99.5t91 35.5t98 -49t46 -121l111 35q33 82 80 344l118 794l-172 13l6 71l195 62q53 242 180.5 364.5t305.5 122.5t270 -83.5t92 -201.5t-80 -187.5t-221 -92.5q125 -82 203.5 -200.5
t78.5 -275.5z" />
    <glyph glyph-name="agrave" unicode="&#xe0;" horiz-adv-x="1081" 
d="M511 831q-44 0 -77 -32q-61 -61 -111.5 -213t-50.5 -252q0 -184 105 -184q61 0 151 129q35 49 150 233l47 162q-37 61 -103.5 109t-110.5 48zM760 -33q-43 0 -114 29t-71 55q0 30 52.5 178t62.5 181h-20q-158 -264 -207 -324q-91 -117 -189 -117t-163.5 73.5t-65.5 213.5
t69.5 297.5t176.5 263.5q141 141 281 141t182 -157h16l55 157h211l-123 -370l-108 -459l55 -18l152 104l35 -43q-49 -82 -130 -143.5t-157 -61.5zM758 1055h-94l-310 372h260z" />
    <glyph glyph-name="aacute" unicode="&#xe1;" horiz-adv-x="1081" 
d="M511 831q-44 0 -77 -32q-61 -61 -111.5 -213t-50.5 -252q0 -184 105 -184q61 0 151 129q35 49 150 233l47 162q-37 61 -103.5 109t-110.5 48zM760 -33q-43 0 -114 29t-71 55q0 30 52.5 178t62.5 181h-20q-158 -264 -207 -324q-91 -117 -189 -117t-163.5 73.5t-65.5 213.5
t69.5 297.5t176.5 263.5q141 141 281 141t182 -157h16l55 157h211l-123 -370l-108 -459l55 -18l152 104l35 -43q-49 -82 -130 -143.5t-157 -61.5zM1020 1427l-412 -372h-92l244 372h260z" />
    <glyph glyph-name="acircumflex" unicode="&#xe2;" horiz-adv-x="1081" 
d="M511 831q-44 0 -77 -32q-61 -61 -111.5 -213t-50.5 -252q0 -184 105 -184q61 0 151 129q35 49 150 233l47 162q-37 61 -103.5 109t-110.5 48zM760 -33q-43 0 -114 29t-71 55q0 30 52.5 178t62.5 181h-20q-158 -264 -207 -324q-91 -117 -189 -117t-163.5 73.5t-65.5 213.5
t69.5 297.5t176.5 263.5q141 141 281 141t182 -157h16l55 157h211l-123 -370l-108 -459l55 -18l152 104l35 -43q-49 -82 -130 -143.5t-157 -61.5zM946 1055h-94l-176 245h-4l-242 -245h-94l233 372h242z" />
    <glyph glyph-name="atilde" unicode="&#xe3;" horiz-adv-x="1081" 
d="M511 831q-44 0 -77 -32q-61 -61 -111.5 -213t-50.5 -252q0 -184 105 -184q61 0 151 129q35 49 150 233l47 162q-37 61 -103.5 109t-110.5 48zM760 -33q-43 0 -114 29t-71 55q0 30 52.5 178t62.5 181h-20q-158 -264 -207 -324q-91 -117 -189 -117t-163.5 73.5t-65.5 213.5
t69.5 297.5t176.5 263.5q141 141 281 141t182 -157h16l55 157h211l-123 -370l-108 -459l55 -18l152 104l35 -43q-49 -82 -130 -143.5t-157 -61.5zM478 1217q-32 0 -52 -27t-57 -100h-88q63 276 245 276q68 0 165 -71.5t129 -71.5t57.5 27.5t60.5 97.5h86q-66 -276 -248 -277
q-68 0 -167 73t-131 73z" />
    <glyph glyph-name="adieresis" unicode="&#xe4;" horiz-adv-x="1081" 
d="M511 831q-44 0 -77 -32q-61 -61 -111.5 -213t-50.5 -252q0 -184 105 -184q61 0 151 129q35 49 150 233l47 162q-37 61 -103.5 109t-110.5 48zM760 -33q-43 0 -114 29t-71 55q0 30 52.5 178t62.5 181h-20q-158 -264 -207 -324q-91 -117 -189 -117t-163.5 73.5t-65.5 213.5
t69.5 297.5t176.5 263.5q141 141 281 141t182 -157h16l55 157h211l-123 -370l-108 -459l55 -18l152 104l35 -43q-49 -82 -130 -143.5t-157 -61.5zM573 1241q0 -59 -35.5 -100t-97 -41t-98.5 41t-37 100t37 101t98.5 42t97 -42t35.5 -101zM1012 1241q0 -59 -36 -100
t-97.5 -41t-97.5 41t-36 100t36 101t97.5 42t97.5 -42t36 -101z" />
    <glyph glyph-name="aring" unicode="&#xe5;" horiz-adv-x="1081" 
d="M511 831q-44 0 -77 -32q-61 -61 -111.5 -213t-50.5 -252q0 -184 105 -184q61 0 151 129q35 49 150 233l47 162q-37 61 -103.5 109t-110.5 48zM811 1255.5q0 57.5 -36 98.5t-95 41t-95 -41t-36 -98.5t36 -97.5t95 -40t95 40t36 97.5zM760 -33q-43 0 -114 29t-71 55
q0 30 52.5 178t62.5 181h-20q-158 -264 -207 -324q-91 -117 -189 -117t-163.5 73.5t-65.5 213.5t69.5 297.5t176.5 263.5q141 141 281 141t182 -157h16l55 157h211l-123 -370l-108 -459l55 -18l152 104l35 -43q-49 -82 -130 -143.5t-157 -61.5zM881 1255q0 -86 -55.5 -145
t-146.5 -59t-147.5 59t-54.5 145t57.5 145.5t145.5 59.5t145.5 -59.5t55.5 -145.5z" />
    <glyph glyph-name="ae" unicode="&#xe6;" horiz-adv-x="1415" 
d="M1198 745q0 37 -54 67t-95 30t-73 -32t-78 -146.5t-62 -243.5h8q203 113 278.5 179.5t75.5 145.5zM500 831q-46 0 -78 -32q-61 -61 -105.5 -202t-44.5 -241t26 -150t58 -50t63.5 22.5t65 71.5t58 90t66.5 114.5t66 117.5t44 75q-37 76 -105 130t-114 54zM1149 961
q117 0 184.5 -57.5t67.5 -147.5q0 -54 -21.5 -80.5t-37 -43t-48 -39t-59.5 -38.5t-78 -43t-89 -46.5t-107.5 -55t-120.5 -62.5v-26q0 -88 50 -144.5t120 -56.5t270 135l33 -43q-88 -113 -179.5 -178.5t-221.5 -65.5t-216 94.5t-90 239.5v14q-98 -166 -180 -257t-170 -91
t-149.5 81.5t-61.5 223.5t64.5 289.5t171.5 253.5q141 141 284 141q80 0 129.5 -64.5t65.5 -168.5q170 236 389 236z" />
    <glyph glyph-name="ccedilla" unicode="&#xe7;" horiz-adv-x="872" 
d="M57 313q0 236 166 442t389 206q109 0 182.5 -58.5t73.5 -134.5t-39 -119t-93 -43t-81.5 32t-27.5 77t24 86q-23 16 -73 29.5t-89 13.5q-14 0 -38 -25q-53 -51 -107.5 -198t-54.5 -263t50.5 -176.5t120.5 -60.5t269 135l33 -43q-160 -211 -328 -240l-96 -84
q121 -4 190.5 -50t69.5 -126q0 -115 -136 -190.5t-356 -85.5l-12 55q166 20 255 65.5t89 108.5q0 98 -157 98q-74 0 -144 -14l6 49l189 172q-127 14 -201 109.5t-74 232.5z" />
    <glyph glyph-name="egrave" unicode="&#xe8;" horiz-adv-x="864" 
d="M682 1055h-94l-309 372h260zM649 745q0 37 -55 67t-96 30t-73 -32t-77 -146.5t-61 -243.5h6q205 113 280.5 179.5t75.5 145.5zM289 322q0 -88 50.5 -144.5t120.5 -56.5t269 135l33 -43q-186 -244 -385 -244q-150 0 -235 97.5t-85 246.5q0 238 163 443t378 205
q119 0 185.5 -57.5t66.5 -147.5q0 -54 -21.5 -80.5t-37 -43t-48 -39t-59.5 -38.5t-78 -43t-89 -46.5t-107.5 -55t-120.5 -62.5v-26z" />
    <glyph glyph-name="eacute" unicode="&#xe9;" horiz-adv-x="864" 
d="M954 1427l-411 -372h-92l243 372h260zM649 745q0 37 -55 67t-96 30t-73 -32t-77 -146.5t-61 -243.5h6q205 113 280.5 179.5t75.5 145.5zM289 322q0 -88 50.5 -144.5t120.5 -56.5t269 135l33 -43q-186 -244 -385 -244q-150 0 -235 97.5t-85 246.5q0 238 163 443t378 205
q119 0 185.5 -57.5t66.5 -147.5q0 -54 -21.5 -80.5t-37 -43t-48 -39t-59.5 -38.5t-78 -43t-89 -46.5t-107.5 -55t-120.5 -62.5v-26z" />
    <glyph glyph-name="ecircumflex" unicode="&#xea;" horiz-adv-x="864" 
d="M649 745q0 37 -55 67t-96 30t-73 -32t-77 -146.5t-61 -243.5h6q205 113 280.5 179.5t75.5 145.5zM854 1055h-94l-176 245h-4l-242 -245h-94l233 372h242zM289 322q0 -88 50.5 -144.5t120.5 -56.5t269 135l33 -43q-186 -244 -385 -244q-150 0 -235 97.5t-85 246.5
q0 238 163 443t378 205q119 0 185.5 -57.5t66.5 -147.5q0 -54 -21.5 -80.5t-37 -43t-48 -39t-59.5 -38.5t-78 -43t-89 -46.5t-107.5 -55t-120.5 -62.5v-26z" />
    <glyph glyph-name="edieresis" unicode="&#xeb;" horiz-adv-x="864" 
d="M934 1241q0 -59 -36 -100t-97.5 -41t-97 41t-35.5 100t35.5 101t97 42t97.5 -42t36 -101zM496 1241q0 -59 -36 -100t-97.5 -41t-98.5 41t-37 100t37 101t98.5 42t97.5 -42t36 -101zM649 745q0 37 -55 67t-96 30t-73 -32t-77 -146.5t-61 -243.5h6q205 113 280.5 179.5
t75.5 145.5zM289 322q0 -88 50.5 -144.5t120.5 -56.5t269 135l33 -43q-186 -244 -385 -244q-150 0 -235 97.5t-85 246.5q0 238 163 443t378 205q119 0 185.5 -57.5t66.5 -147.5q0 -54 -21.5 -80.5t-37 -43t-48 -39t-59.5 -38.5t-78 -43t-89 -46.5t-107.5 -55t-120.5 -62.5
v-26z" />
    <glyph glyph-name="igrave" unicode="&#xec;" horiz-adv-x="573" 
d="M250 -33q-41 0 -115 33t-67 53l196 742l-61 12l-133 -148l-41 46q45 98 118.5 177t147.5 79q27 0 77 -14.5t90 -36t36 -36.5l-205 -745l55 -18l152 104l35 -43q-49 -82 -129 -143.5t-156 -61.5zM473 1055h-94l-309 372h260z" />
    <glyph glyph-name="iacute" unicode="&#xed;" horiz-adv-x="573" 
d="M250 -33q-41 0 -115 33t-67 53l196 742l-61 12l-133 -148l-41 46q45 98 118.5 177t147.5 79q27 0 77 -14.5t90 -36t36 -36.5l-205 -745l55 -18l152 104l35 -43q-49 -82 -129 -143.5t-156 -61.5zM725 1427l-412 -372h-92l244 372h260z" />
    <glyph glyph-name="icircumflex" unicode="&#xee;" horiz-adv-x="573" 
d="M250 -33q-41 0 -115 33t-67 53l196 742l-61 12l-133 -148l-41 46q45 98 118.5 177t147.5 79q27 0 77 -14.5t90 -36t36 -36.5l-205 -745l55 -18l152 104l35 -43q-49 -82 -129 -143.5t-156 -61.5zM668 1055h-95l-176 245h-4l-241 -245h-95l234 372h241z" />
    <glyph glyph-name="idieresis" unicode="&#xef;" horiz-adv-x="573" 
d="M250 -33q-41 0 -115 33t-67 53l196 742l-61 12l-133 -148l-41 46q45 98 118.5 177t147.5 79q27 0 77 -14.5t90 -36t36 -36.5l-205 -745l55 -18l152 104l35 -43q-49 -82 -129 -143.5t-156 -61.5zM309 1241q0 -59 -35.5 -100t-97 -41t-98.5 41t-37 100t37 101t98.5 42
t97 -42t35.5 -101zM748 1241q0 -59 -36 -100t-97.5 -41t-97.5 41t-36 100t36 101t97.5 42t97.5 -42t36 -101z" />
    <glyph glyph-name="eth" unicode="&#xf0;" horiz-adv-x="985" 
d="M424 66q86 0 151.5 114.5t93.5 243.5q27 129 27 221t-35.5 154.5t-109.5 62.5t-141.5 -112.5t-95.5 -237.5t-28 -218t37 -160.5t101 -67.5zM426 -31q-172 0 -267.5 115.5t-95.5 319.5t140.5 380.5t335.5 176.5q121 0 178 -93q-23 164 -123 275l-313 -80l22 98l215 53
q-70 55 -184 101l49 80q162 -49 285 -144l276 70l-22 -96l-170 -45q196 -197 198 -489t-153.5 -507t-370.5 -215z" />
    <glyph glyph-name="ntilde" unicode="&#xf1;" horiz-adv-x="1126" 
d="M476 1217q-32 0 -52.5 -27t-56.5 -100h-88q63 276 245 276q68 0 165 -71.5t129 -71.5t57.5 27.5t60.5 97.5h86q-66 -276 -248 -277q-68 0 -167 73t-131 73zM813 -33q-59 0 -129 30t-70 56q0 43 115 387q68 217 68 253t-29 56.5t-72 20.5t-111.5 -107.5t-187.5 -357.5
l-67 -309l-248 -2l76 307l100 487l-57 15l-135 -144l-41 46q47 98 119.5 177t146.5 79q47 0 124 -24t77 -50q0 -74 -113 -463h22q166 364 252 450q87 86 179 86t143 -46t51 -130t-94 -374l-92 -281l55 -18l152 104l34 -43q-49 -82 -129 -143.5t-139 -61.5z" />
    <glyph glyph-name="ograve" unicode="&#xf2;" horiz-adv-x="985" 
d="M696 645q0 92 -35.5 154.5t-109.5 62.5t-141.5 -112.5t-95.5 -237.5t-28 -218t37 -160.5t101 -67.5q86 0 151 114.5t93 243.5t28 221zM920 526q0 -206 -143.5 -381.5t-350.5 -175.5q-172 0 -267.5 115.5t-95.5 319.5t145.5 380.5t350.5 176.5q172 0 266.5 -114.5
t94.5 -320.5zM690 1055h-94l-309 372h260z" />
    <glyph glyph-name="oacute" unicode="&#xf3;" horiz-adv-x="985" 
d="M696 645q0 92 -35.5 154.5t-109.5 62.5t-141.5 -112.5t-95.5 -237.5t-28 -218t37 -160.5t101 -67.5q86 0 151 114.5t93 243.5t28 221zM920 526q0 -206 -143.5 -381.5t-350.5 -175.5q-172 0 -267.5 115.5t-95.5 319.5t145.5 380.5t350.5 176.5q172 0 266.5 -114.5
t94.5 -320.5zM993 1427l-411 -372h-93l244 372h260z" />
    <glyph glyph-name="ocircumflex" unicode="&#xf4;" horiz-adv-x="985" 
d="M696 645q0 92 -35.5 154.5t-109.5 62.5t-141.5 -112.5t-95.5 -237.5t-28 -218t37 -160.5t101 -67.5q86 0 151 114.5t93 243.5t28 221zM920 526q0 -206 -143.5 -381.5t-350.5 -175.5q-172 0 -267.5 115.5t-95.5 319.5t145.5 380.5t350.5 176.5q172 0 266.5 -114.5
t94.5 -320.5zM895 1055h-94l-176 245h-4l-242 -245h-94l233 372h242z" />
    <glyph glyph-name="otilde" unicode="&#xf5;" horiz-adv-x="985" 
d="M696 645q0 92 -35.5 154.5t-109.5 62.5t-141.5 -112.5t-95.5 -237.5t-28 -218t37 -160.5t101 -67.5q86 0 151 114.5t93 243.5t28 221zM920 526q0 -206 -143.5 -381.5t-350.5 -175.5q-172 0 -267.5 115.5t-95.5 319.5t145.5 380.5t350.5 176.5q172 0 266.5 -114.5
t94.5 -320.5zM452 1217q-32 0 -52.5 -27t-57.5 -100h-88q63 276 246 276q68 0 165 -71.5t129 -71.5t57.5 27.5t59.5 97.5h86q-66 -276 -247 -277q-68 0 -167 73t-131 73z" />
    <glyph glyph-name="odieresis" unicode="&#xf6;" horiz-adv-x="985" 
d="M696 645q0 92 -35.5 154.5t-109.5 62.5t-141.5 -112.5t-95.5 -237.5t-28 -218t37 -160.5t101 -67.5q86 0 151 114.5t93 243.5t28 221zM920 526q0 -206 -143.5 -381.5t-350.5 -175.5q-172 0 -267.5 115.5t-95.5 319.5t145.5 380.5t350.5 176.5q172 0 266.5 -114.5
t94.5 -320.5zM547 1241q0 -59 -36 -100t-97.5 -41t-98 41t-36.5 100t36.5 101t98 42t97.5 -42t36 -101zM985 1241q0 -59 -36 -100t-97 -41t-97 41t-36 100t36 101t97 42t97 -42t36 -101z" />
    <glyph glyph-name="divide" unicode="&#xf7;" horiz-adv-x="983" 
d="M909 422h-829l6 117h817zM602 768q0 -43 -30.5 -74.5t-75.5 -31.5t-75 31.5t-30 74.5t30 74.5t75 31.5t75.5 -31.5t30.5 -74.5zM602 195q0 -43 -29.5 -75t-74.5 -32t-76 32t-31 75t31 73.5t76 30.5t74.5 -30.5t29.5 -73.5z" />
    <glyph glyph-name="oslash" unicode="&#xf8;" horiz-adv-x="985" 
d="M559 868q-84 0 -181 -161t-95 -410q0 -45 10 -96l360 620q-41 47 -94 47zM690 733q-358 -623 -360 -622q39 -49 94 -50q86 0 154.5 116t103.5 274q35 157 8 282zM559 961q84 0 156 -33l170 297h90l-195 -336q140 -109 140 -339t-143.5 -405.5t-350.5 -175.5
q-92 0 -158 33l-153 -266h-88q41 73 83 145t66 115l27 45q-139 115 -139 341t145 402.5t350 176.5z" />
    <glyph glyph-name="ugrave" unicode="&#xf9;" horiz-adv-x="1126" 
d="M319 961q41 0 116 -39t75 -66q0 -45 -109 -367q-65 -215 -65 -247t28.5 -58t63.5 -26q49 0 117.5 106.5t193.5 358.5l72 313h248l-86 -307q-94 -473 -105 -504l56 -21l145 105l37 -41q-49 -84 -127.5 -142.5t-138.5 -58.5t-129.5 30t-69.5 56q0 80 117 453h-23
q-172 -365 -258 -451t-178 -86t-143.5 50.5t-51.5 134.5t77 318t104 323l-60 12l-131 -148l-43 46q45 98 120 177t148 79zM739 1055h-94l-309 372h260z" />
    <glyph glyph-name="uacute" unicode="&#xfa;" horiz-adv-x="1126" 
d="M319 961q41 0 116 -39t75 -66q0 -45 -109 -367q-65 -215 -65 -247t28.5 -58t63.5 -26q49 0 117.5 106.5t193.5 358.5l72 313h248l-86 -307q-94 -473 -105 -504l56 -21l145 105l37 -41q-49 -84 -127.5 -142.5t-138.5 -58.5t-129.5 30t-69.5 56q0 80 117 453h-23
q-172 -365 -258 -451t-178 -86t-143.5 50.5t-51.5 134.5t77 318t104 323l-60 12l-131 -148l-43 46q45 98 120 177t148 79zM1032 1427l-411 -372h-93l244 372h260z" />
    <glyph glyph-name="ucircumflex" unicode="&#xfb;" horiz-adv-x="1126" 
d="M319 961q41 0 116 -39t75 -66q0 -45 -109 -367q-65 -215 -65 -247t28.5 -58t63.5 -26q49 0 117.5 106.5t193.5 358.5l72 313h248l-86 -307q-94 -473 -105 -504l56 -21l145 105l37 -41q-49 -84 -127.5 -142.5t-138.5 -58.5t-129.5 30t-69.5 56q0 80 117 453h-23
q-172 -365 -258 -451t-178 -86t-143.5 50.5t-51.5 134.5t77 318t104 323l-60 12l-131 -148l-43 46q45 98 120 177t148 79zM954 1055h-94l-176 245h-4l-242 -245h-94l234 372h241z" />
    <glyph glyph-name="udieresis" unicode="&#xfc;" horiz-adv-x="1126" 
d="M319 961q41 0 116 -39t75 -66q0 -45 -109 -367q-65 -215 -65 -247t28.5 -58t63.5 -26q49 0 117.5 106.5t193.5 358.5l72 313h248l-86 -307q-94 -473 -105 -504l56 -21l145 105l37 -41q-49 -84 -127.5 -142.5t-138.5 -58.5t-129.5 30t-69.5 56q0 80 117 453h-23
q-172 -365 -258 -451t-178 -86t-143.5 50.5t-51.5 134.5t77 318t104 323l-60 12l-131 -148l-43 46q45 98 120 177t148 79zM596 1241q0 -59 -36 -100t-97.5 -41t-98 41t-36.5 100t36.5 101t98 42t97.5 -42t36 -101zM1034 1241q0 -59 -35.5 -100t-97 -41t-97.5 41t-36 100
t36 101t97.5 42t97 -42t35.5 -101z" />
    <glyph glyph-name="yacute" unicode="&#xfd;" horiz-adv-x="974" 
d="M983 797q0 -145 -260 -482l-186 -252l-115 -229q-174 -348 -372 -348q-97 0 -156.5 47t-59.5 111t36 99.5t91 35.5t96 -46t39 -118l37 -2l258 342l-139 41l-23 799l-59 12l-131 -148l-41 46q45 98 118.5 177t147.5 79q45 0 121 -29t78 -55l-14 -777h26l320 553v25
q-115 45 -115 133q0 63 40 107.5t106 44.5t111.5 -45t45.5 -121zM987 1427l-412 -372h-92l244 372h260z" />
    <glyph glyph-name="thorn" unicode="&#xfe;" horiz-adv-x="1038" 
d="M754 576q0 100 -27 152t-75 52t-112.5 -85t-191.5 -300l-51 -180q43 -59 107.5 -104t102.5 -45t71 32q70 70 123 224t53 254zM981 656q0 -142 -63.5 -292.5t-167.5 -254.5q-140 -139 -272 -139t-199 106h-13l-86 -428q-6 -37 43 -49l133 -23l9 -80h-562l7 80l96 23
q41 10 51 49l322 1493q12 53 -25 69l-117 56l13 57l417 104l-219 -888h21q115 229 199 325.5t184 96.5t164.5 -81.5t64.5 -223.5z" />
    <glyph glyph-name="ydieresis" unicode="&#xff;" horiz-adv-x="974" 
d="M983 797q0 -145 -260 -482l-186 -252l-115 -229q-174 -348 -372 -348q-97 0 -156.5 47t-59.5 111t36 99.5t91 35.5t96 -46t39 -118l37 -2l258 342l-139 41l-23 799l-59 12l-131 -148l-41 46q45 98 118.5 177t147.5 79q45 0 121 -29t78 -55l-14 -777h26l320 553v25
q-115 45 -115 133q0 63 40 107.5t106 44.5t111.5 -45t45.5 -121zM530 1241q0 -59 -35.5 -100t-97 -41t-98.5 41t-37 100t37 101t98.5 42t97 -42t35.5 -101zM969 1241q0 -59 -36 -100t-97.5 -41t-97.5 41t-36 100t36 101t97.5 42t97.5 -42t36 -101z" />
    <glyph glyph-name="Amacron" unicode="&#x100;" horiz-adv-x="1269" 
d="M1044 1436h-608l25 118h581zM717 526l-84 527h-17l-227 -527h328zM1227 0h-604l6 84l80 12q53 8 62 42t-9 116l-29 172h-385l-35 -94q-88 -209 23 -232l74 -16l6 -84h-486l7 84l57 18q66 18 102.5 62.5t118.5 220.5l356 786v78l273 62l221 -1125q8 -39 23.5 -57t54.5 -27
l78 -18z" />
    <glyph glyph-name="amacron" unicode="&#x101;" horiz-adv-x="1081" 
d="M993 1118h-608l25 119h581zM511 831q-44 0 -77 -32q-61 -61 -111.5 -213t-50.5 -252q0 -184 105 -184q61 0 151 129q35 49 150 233l47 162q-37 61 -103.5 109t-110.5 48zM760 -33q-43 0 -114 29t-71 55q0 30 52.5 178t62.5 181h-20q-158 -264 -207 -324
q-91 -117 -189 -117t-163.5 73.5t-65.5 213.5t69.5 297.5t176.5 263.5q141 141 281 141t182 -157h16l55 157h211l-123 -370l-108 -459l55 -18l152 104l35 -43q-49 -82 -130 -143.5t-157 -61.5z" />
    <glyph glyph-name="Abreve" unicode="&#x102;" horiz-adv-x="1269" 
d="M717 526l-84 527h-17l-227 -527h328zM715 1362q-133 0 -190.5 100.5t-65.5 282.5h90q29 -119 68.5 -182.5t113.5 -63.5t133.5 64.5t122.5 181.5h88q-102 -383 -360 -383zM1227 0h-604l6 84l80 12q53 8 62 42t-9 116l-29 172h-385l-35 -94q-88 -209 23 -232l74 -16l6 -84
h-486l7 84l57 18q66 18 102.5 62.5t118.5 220.5l356 786v78l273 62l221 -1125q8 -39 23.5 -57t54.5 -27l78 -18z" />
    <glyph glyph-name="abreve" unicode="&#x103;" horiz-adv-x="1081" 
d="M686 1044q-133 0 -190.5 100.5t-65.5 282.5h90q29 -119 69 -182t113.5 -63t133 64.5t122.5 180.5h89q-102 -383 -361 -383zM511 831q-44 0 -77 -32q-61 -61 -111.5 -213t-50.5 -252q0 -184 105 -184q61 0 151 129q35 49 150 233l47 162q-37 61 -103.5 109t-110.5 48z
M760 -33q-43 0 -114 29t-71 55q0 30 52.5 178t62.5 181h-20q-158 -264 -207 -324q-91 -117 -189 -117t-163.5 73.5t-65.5 213.5t69.5 297.5t176.5 263.5q141 141 281 141t182 -157h16l55 157h211l-123 -370l-108 -459l55 -18l152 104l35 -43q-49 -82 -130 -143.5t-157 -61.5
z" />
    <glyph glyph-name="Aogonek" unicode="&#x104;" horiz-adv-x="1269" 
d="M719 526l-84 529h-19l-225 -529h328zM1105 -420q-67 -39 -154 -30t-134 63.5t-31 134.5t87 144.5t169 107.5h-419l6 84l80 12q53 8 62 42t-9 116l-27 174h-385l-37 -96q-88 -209 23 -232l74 -16l6 -84h-486l7 84l57 18q66 16 101.5 61.5t119.5 221.5l358 786v78l271 62
l221 -1125q8 -39 23.5 -57t54.5 -27l78 -18l6 -84q-88 -16 -162 -76.5t-84 -130.5q-8 -47 13.5 -81t77.5 -39t104 32l16 -27q-20 -59 -87 -98z" />
    <glyph glyph-name="aogonek" unicode="&#x105;" horiz-adv-x="1081" 
d="M513 834q-42 0 -79 -33q-61 -63 -111.5 -215t-50.5 -252q0 -184 105 -184q53 0 109.5 72.5t191.5 291.5l47 162q-37 61 -103.5 109.5t-108.5 48.5zM575 51.5q0 18.5 17.5 73.5t52.5 153.5t45 131.5h-20q-158 -264 -207 -324q-91 -117 -189 -117t-163.5 73.5t-65.5 213.5
t69.5 297.5t176.5 263.5q141 141 280 141t183 -155h16l55 155h211l-123 -370l-108 -459l55 -18l152 104l35 -41q-27 -49 -84.5 -104.5t-111.5 -87.5t-95 -84t-51 -100t9.5 -84t75.5 -41t105 32l16 -27q-20 -59 -86.5 -98t-153.5 -30t-132 65.5t-27 144.5q25 121 190 217
q-47 12 -87 34t-40 40.5z" />
    <glyph glyph-name="Cacute" unicode="&#x106;" horiz-adv-x="1331" 
d="M100 545q0 147 62.5 291.5t171.5 253.5q219 219 518 219q178 0 309 -52l176 48l-61 -457h-141l-48 295q-92 66 -215 65q-197 0 -335 -201t-138 -469t127 -391q80 -79 196 -79t212 49l143 305h156l-96 -422l-123 25q-154 -57 -316 -58q-293 0 -445.5 156t-152.5 422z
M1229 1745l-412 -373h-92l244 373h260z" />
    <glyph glyph-name="cacute" unicode="&#x107;" horiz-adv-x="872" 
d="M489 844q-14 0 -38 -25q-53 -51 -107.5 -198t-54.5 -263t50.5 -176.5t120.5 -60.5t269 135l33 -43q-186 -244 -385 -244q-147 0 -233.5 97.5t-86.5 246.5q0 236 166 442t389 206q109 0 182.5 -58.5t73.5 -134.5t-39 -119t-93 -43t-82 32t-28 77t25 86q-23 16 -73 29.5
t-89 13.5zM938 1427l-412 -372h-92l244 372h260z" />
    <glyph glyph-name="Ccircumflex" unicode="&#x108;" horiz-adv-x="1331" 
d="M100 545q0 147 62.5 291.5t171.5 253.5q219 219 518 219q178 0 309 -52l176 48l-61 -457h-141l-48 295q-92 66 -215 65q-197 0 -335 -201t-138 -469t127 -391q80 -79 196 -79t212 49l143 305h156l-96 -422l-123 25q-154 -57 -316 -58q-293 0 -445.5 156t-152.5 422z
M1143 1372h-94l-177 246h-4l-241 -246h-95l234 373h242z" />
    <glyph glyph-name="ccircumflex" unicode="&#x109;" horiz-adv-x="872" 
d="M489 844q-14 0 -38 -25q-53 -51 -107.5 -198t-54.5 -263t50.5 -176.5t120.5 -60.5t269 135l33 -43q-186 -244 -385 -244q-147 0 -233.5 97.5t-86.5 246.5q0 236 166 442t389 206q109 0 182.5 -58.5t73.5 -134.5t-39 -119t-93 -43t-82 32t-28 77t25 86q-23 16 -73 29.5
t-89 13.5zM897 1055h-94l-176 245h-4l-242 -245h-94l233 372h242z" />
    <glyph glyph-name="Cdotaccent" unicode="&#x10a;" horiz-adv-x="1331" 
d="M991 1568.5q0 -61.5 -38 -103.5t-100 -42t-99 42t-37 103.5t37 104.5t99 43t100 -43t38 -104.5zM100 545q0 147 62.5 291.5t171.5 253.5q219 219 518 219q178 0 309 -52l176 48l-61 -457h-141l-48 295q-92 66 -215 65q-197 0 -335 -201t-138 -469t127 -391
q80 -79 196 -79t212 49l143 305h156l-96 -422l-123 25q-154 -57 -316 -58q-293 0 -445.5 156t-152.5 422z" />
    <glyph glyph-name="cdotaccent" unicode="&#x10b;" horiz-adv-x="872" 
d="M766 1251.5q0 -61.5 -38 -103.5t-100 -42t-99 42t-37 103.5t37 104.5t99 43t100 -43t38 -104.5zM489 844q-14 0 -38 -25q-53 -51 -107.5 -198t-54.5 -263t50.5 -176.5t120.5 -60.5t269 135l33 -43q-186 -244 -385 -244q-147 0 -233.5 97.5t-86.5 246.5q0 236 166 442
t389 206q109 0 182.5 -58.5t73.5 -134.5t-39 -119t-93 -43t-82 32t-28 77t25 86q-23 16 -73 29.5t-89 13.5z" />
    <glyph glyph-name="Ccaron" unicode="&#x10c;" horiz-adv-x="1331" 
d="M100 545q0 147 62.5 291.5t171.5 253.5q219 219 518 219q178 0 309 -52l176 48l-61 -457h-141l-48 295q-92 66 -215 65q-197 0 -335 -201t-138 -469t127 -391q80 -79 196 -79t212 49l143 305h156l-96 -422l-123 25q-154 -57 -316 -58q-293 0 -445.5 156t-152.5 422z
M1196 1745l-231 -373h-244l-131 373h90l176 -246h4l244 246h92z" />
    <glyph glyph-name="ccaron" unicode="&#x10d;" horiz-adv-x="872" 
d="M489 844q-14 0 -38 -25q-53 -51 -107.5 -198t-54.5 -263t50.5 -176.5t120.5 -60.5t269 135l33 -43q-186 -244 -385 -244q-147 0 -233.5 97.5t-86.5 246.5q0 236 166 442t389 206q109 0 182.5 -58.5t73.5 -134.5t-39 -119t-93 -43t-82 32t-28 77t25 86q-23 16 -73 29.5
t-89 13.5zM924 1427l-232 -372h-243l-132 372h91l176 -245h4l243 245h93z" />
    <glyph glyph-name="Dcaron" unicode="&#x10e;" horiz-adv-x="1404" 
d="M1061 1745l-232 -373h-243l-131 373h90l176 -246h4l244 246h92zM1065 717q0 219 -96.5 344t-298.5 125h-82l-144 -1063l138 -31q211 10 347 174t136 451zM1360 698q0 -272 -209 -481q-98 -98 -259 -157.5t-351 -59.5h-527l9 82l100 22q47 10 53 50l131 972q6 39 -41 50
l-92 22l-6 82l545 2q305 0 476 -156t171 -428z" />
    <glyph glyph-name="dcaron" unicode="&#x10f;" horiz-adv-x="1538" 
d="M511 831q-44 0 -77 -32q-61 -61 -111.5 -213t-50.5 -252q0 -184 105 -184q61 0 151 129q35 49 150 233l47 162q-37 61 -103.5 109t-110.5 48zM760 -33q-41 0 -109.5 39t-68.5 66t48 164t60 174h-20q-158 -264 -207 -324q-91 -117 -189 -117t-163.5 73.5t-65.5 213.5
t69.5 297.5t176.5 263.5q141 141 284 141q72 0 107 -40.5t57 -116.5h17l71 340q12 53 -24 69l-117 56l12 57l420 104l-225 -905l-88 -393l55 -18l152 104l35 -43q-49 -82 -130 -143.5t-157 -61.5zM1360 1120q0 99 -141 180q0 51 47.5 91.5t119.5 40.5t127.5 -60.5
t55.5 -144.5q0 -121 -108.5 -231.5t-276.5 -196.5l-51 49q98 55 162.5 128t64.5 144z" />
    <glyph glyph-name="Dcroat" unicode="&#x110;" horiz-adv-x="1404" 
d="M1065 717q0 219 -96.5 344t-298.5 125h-82l-66 -492h226l6 -94h-246l-16 -121q-14 -119 -31 -237l-17 -119l138 -31q211 10 347 174t136 451zM1360 698q0 -272 -209 -481q-98 -98 -259 -157.5t-351 -59.5h-527l9 82l100 22q47 10 53 50l60 446h-146l6 94h152l59 432
q6 39 -41 50l-92 22l-6 82l545 2q305 0 476 -156t171 -428z" />
    <glyph glyph-name="dcroat" unicode="&#x111;" horiz-adv-x="1081" 
d="M511 831q-44 0 -77 -32q-61 -61 -111.5 -213t-50.5 -252q0 -184 105 -184q61 0 151 129q35 49 150 233l47 162q-37 61 -103.5 109t-110.5 48zM760 -33q-41 0 -109.5 39t-68.5 66t48 164t60 174h-20q-158 -264 -207 -324q-91 -117 -189 -117t-163.5 73.5t-65.5 213.5
t69.5 297.5t176.5 263.5q141 141 284 141q72 0 107 -40.5t57 -116.5h17l49 237l-252 -2l27 109h247q8 49 -24 65l-117 56l12 57l420 104l-71 -282h143l-2 -109l-168 -4l-127 -510l-88 -393l55 -18l152 104l35 -43q-49 -82 -130 -143.5t-157 -61.5z" />
    <glyph glyph-name="Emacron" unicode="&#x112;" horiz-adv-x="1284" 
d="M1087 1436h-608l25 118h581zM559 692q92 0 133 12.5t62 53.5l69 139h105l-113 -496h-104l2 131q2 39 -32 53.5t-142 14.5h-31l-68 -508h88q178 0 256 11.5t120 42t77 106.5l70 151h147l-94 -403h-1090l9 82l100 22q47 10 53 50l133 972q6 39 -41 50l-94 22l-4 82h1108
l-55 -422h-142l-22 170q-10 79 -50.5 119.5t-338.5 40.5h-80l-70 -496h39z" />
    <glyph glyph-name="emacron" unicode="&#x113;" horiz-adv-x="864" 
d="M823 1118h-608l25 119h581zM649 745q0 37 -55 67t-96 30t-73 -32t-77 -146.5t-61 -243.5h6q205 113 280.5 179.5t75.5 145.5zM289 322q0 -88 50.5 -144.5t120.5 -56.5t269 135l33 -43q-186 -244 -385 -244q-150 0 -235 97.5t-85 246.5q0 238 163 443t378 205
q119 0 185.5 -57.5t66.5 -147.5q0 -54 -21.5 -80.5t-37 -43t-48 -39t-59.5 -38.5t-78 -43t-89 -46.5t-107.5 -55t-120.5 -62.5v-26z" />
    <glyph glyph-name="Ebreve" unicode="&#x114;" horiz-adv-x="1284" 
d="M770 1362q-133 0 -190.5 100.5t-65.5 282.5h90q29 -119 69 -182.5t113.5 -63.5t133 64.5t122.5 181.5h88q-102 -383 -360 -383zM559 692q92 0 133 12.5t62 53.5l69 139h105l-113 -496h-104l2 131q2 39 -32 53.5t-142 14.5h-31l-68 -508h88q178 0 256 11.5t120 42
t77 106.5l70 151h147l-94 -403h-1090l9 82l100 22q47 10 53 50l133 972q6 39 -41 50l-94 22l-4 82h1108l-55 -422h-142l-22 170q-10 79 -50.5 119.5t-338.5 40.5h-80l-70 -496h39z" />
    <glyph glyph-name="ebreve" unicode="&#x115;" horiz-adv-x="864" 
d="M649 745q0 37 -55 67t-96 30t-73 -32t-77 -146.5t-61 -243.5h6q205 113 280.5 179.5t75.5 145.5zM549 1044q-133 0 -190.5 100.5t-65.5 282.5h90q29 -119 69 -182t113.5 -63t133 64.5t122.5 180.5h88q-102 -383 -360 -383zM289 322q0 -88 50.5 -144.5t120.5 -56.5
t269 135l33 -43q-186 -244 -385 -244q-150 0 -235 97.5t-85 246.5q0 238 163 443t378 205q119 0 185.5 -57.5t66.5 -147.5q0 -54 -21.5 -80.5t-37 -43t-48 -39t-59.5 -38.5t-78 -43t-89 -46.5t-107.5 -55t-120.5 -62.5v-26z" />
    <glyph glyph-name="Edotaccent" unicode="&#x116;" horiz-adv-x="1284" 
d="M936 1568.5q0 -61.5 -38 -103.5t-100 -42t-99 42t-37 103.5t37 104.5t99 43t100 -43t38 -104.5zM559 692q92 0 133 12.5t62 53.5l69 139h105l-113 -496h-104l2 131q2 39 -32 53.5t-142 14.5h-31l-68 -508h88q178 0 256 11.5t120 42t77 106.5l70 151h147l-94 -403h-1090
l9 82l100 22q47 10 53 50l133 972q6 39 -41 50l-94 22l-4 82h1108l-55 -422h-142l-22 170q-10 79 -50.5 119.5t-338.5 40.5h-80l-70 -496h39z" />
    <glyph glyph-name="edotaccent" unicode="&#x117;" horiz-adv-x="864" 
d="M715 1251.5q0 -61.5 -38.5 -103.5t-100.5 -42t-99 42t-37 103.5t37 104.5t99 43t100.5 -43t38.5 -104.5zM649 745q0 37 -55 67t-96 30t-73 -32t-77 -146.5t-61 -243.5h6q205 113 280.5 179.5t75.5 145.5zM289 322q0 -88 50.5 -144.5t120.5 -56.5t269 135l33 -43
q-186 -244 -385 -244q-150 0 -235 97.5t-85 246.5q0 238 163 443t378 205q119 0 185.5 -57.5t66.5 -147.5q0 -54 -21.5 -80.5t-37 -43t-48 -39t-59.5 -38.5t-78 -43t-89 -46.5t-107.5 -55t-120.5 -62.5v-26z" />
    <glyph glyph-name="Eogonek" unicode="&#x118;" horiz-adv-x="1284" 
d="M559 692q92 0 133 12.5t62 53.5l69 139h105l-113 -494h-104l2 129q2 41 -32 55.5t-142 14.5h-31l-68 -510h88q178 0 256 11.5t120 42t77 106.5l70 151h147l-94 -403h-90q-133 -96 -152 -201q-10 -49 9.5 -85t73.5 -41t108 32l14 -27q-20 -59 -86 -98t-154 -30t-133 65.5
t-26 144.5q29 137 235 240h-889l9 82l100 22q47 10 53 50l133 974q6 37 -41 50l-92 22l-6 80h1108l-55 -420h-142l-22 170q-10 79 -50.5 119.5t-338.5 40.5h-80l-70 -498h39z" />
    <glyph glyph-name="eogonek" unicode="&#x119;" horiz-adv-x="864" 
d="M649 748q0 37 -55 65.5t-97 28.5t-73 -31t-76 -146.5t-61 -244.5h6q203 111 279.5 178.5t76.5 149.5zM57 313q0 238 163 443t378 205q119 0 185.5 -57.5t66.5 -145.5q0 -53 -21.5 -81t-37 -44.5t-48 -39t-59.5 -38.5t-78 -43t-89 -46.5t-107.5 -55t-120.5 -62.5v-26
q0 -88 50.5 -144.5t120.5 -56.5t269 135l33 -43q-131 -166 -248 -227q-63 -33 -108.5 -85.5t-55.5 -103.5t12 -85t78 -39t105 32l16 -27q-20 -59 -86.5 -98t-153.5 -30t-132.5 63.5t-30.5 142.5q20 131 194 215q-135 4 -215 101.5t-80 240.5z" />
    <glyph glyph-name="Ecaron" unicode="&#x11a;" horiz-adv-x="1284" 
d="M559 692q92 0 133 12.5t62 53.5l69 139h105l-113 -496h-104l2 131q2 39 -32 53.5t-142 14.5h-31l-68 -508h88q178 0 256 11.5t120 42t77 106.5l70 151h147l-94 -403h-1090l9 82l100 22q47 10 53 50l133 972q6 39 -41 50l-94 22l-4 82h1108l-55 -422h-142l-22 170
q-10 79 -50.5 119.5t-338.5 40.5h-80l-70 -496h39zM1135 1745l-232 -373h-244l-131 373h90l177 -246h4l243 246h93z" />
    <glyph glyph-name="ecaron" unicode="&#x11b;" horiz-adv-x="864" 
d="M649 745q0 37 -55 67t-96 30t-73 -32t-77 -146.5t-61 -243.5h6q205 113 280.5 179.5t75.5 145.5zM897 1427l-231 -372h-244l-131 372h90l176 -245h4l244 245h92zM289 322q0 -88 50.5 -144.5t120.5 -56.5t269 135l33 -43q-186 -244 -385 -244q-150 0 -235 97.5t-85 246.5
q0 238 163 443t378 205q119 0 185.5 -57.5t66.5 -147.5q0 -54 -21.5 -80.5t-37 -43t-48 -39t-59.5 -38.5t-78 -43t-89 -46.5t-107.5 -55t-120.5 -62.5v-26z" />
    <glyph glyph-name="Gcircumflex" unicode="&#x11c;" horiz-adv-x="1435" 
d="M706 -33q-290 0 -448 153.5t-158 424.5q0 147 63 292t167 249t248 163.5t308 59.5t296 -52l176 48l-62 -451h-141l-45 289q-96 66 -238 65q-197 0 -335 -201t-138 -469t127 -391q80 -80 217 -79q88 0 162 26l51 332q4 23 -5 33t-40 16l-96 23l-6 82h571l-8 -82l-96 -23
q-49 -12 -55 -49l-50 -291l119 -18l6 -68q-300 -82 -590 -82zM1169 1372h-94l-176 246h-4l-242 -246h-94l234 373h241z" />
    <glyph glyph-name="gcircumflex" unicode="&#x11d;" horiz-adv-x="954" 
d="M633 -309q0 51 -52.5 87t-178.5 77t-199 71q-150 -72 -150 -182q0 -78 87.5 -129t215.5 -51t202.5 38t74.5 89zM639 729q0 43 -49.5 81t-97.5 38t-70 -23q-49 -49 -81 -150.5t-29 -188.5t37 -121t71 -33q63 0 112 53q53 51 80 151.5t27 192.5zM453 252q-68 0 -144 20
q-31 -8 -51 -33.5t-20 -55.5t38.5 -51t129.5 -52l94 -27q158 -47 237.5 -109t79.5 -178t-147.5 -209.5t-403.5 -93.5q-184 0 -295.5 64.5t-111.5 177.5q0 86 82 148.5t200 93.5v16q-88 51 -88 135q0 137 187 195v16q-66 41 -106 109.5t-40 146.5q0 170 127 283t307 113
q109 0 244 -41l258 4l-51 -185l-242 60l-2 -21q105 -82 105 -213t-117 -222t-270 -91zM895 1055h-94l-176 245h-4l-242 -245h-94l233 372h242z" />
    <glyph glyph-name="Gbreve" unicode="&#x11e;" horiz-adv-x="1435" 
d="M860 1362q-133 0 -190.5 100.5t-65.5 282.5h90q29 -119 69 -182.5t113.5 -63.5t133 64.5t123.5 181.5h88q-102 -383 -361 -383zM706 -33q-290 0 -448 153.5t-158 424.5q0 147 63 292t167 249t248 163.5t308 59.5t296 -52l176 48l-62 -451h-141l-45 289q-96 66 -238 65
q-197 0 -335 -201t-138 -469t127 -391q80 -80 217 -79q88 0 162 26l51 332q4 23 -5 33t-40 16l-96 23l-6 82h571l-8 -82l-96 -23q-49 -12 -55 -49l-50 -291l119 -18l6 -68q-300 -82 -590 -82z" />
    <glyph glyph-name="gbreve" unicode="&#x11f;" horiz-adv-x="954" 
d="M602 1044q-133 0 -190.5 100.5t-65.5 282.5h90q29 -119 69 -182t113.5 -63t133 64.5t122.5 180.5h89q-102 -383 -361 -383zM639 729q0 43 -49.5 81t-97.5 38t-70 -23q-49 -49 -81 -150.5t-29 -188.5t37 -121t71 -33q63 0 112 53q53 51 80 151.5t27 192.5zM633 -309
q0 51 -52.5 87t-178.5 77t-199 71q-150 -72 -150 -182q0 -78 87.5 -129t215.5 -51t202.5 38t74.5 89zM453 252q-68 0 -144 20q-31 -8 -51 -33.5t-20 -55.5t38.5 -51t129.5 -52l94 -27q158 -47 237.5 -109t79.5 -178t-147.5 -209.5t-403.5 -93.5q-184 0 -295.5 64.5
t-111.5 177.5q0 86 82 148.5t200 93.5v16q-88 51 -88 135q0 137 187 195v16q-66 41 -106 109.5t-40 146.5q0 170 127 283t307 113q109 0 244 -41l258 4l-51 -185l-242 60l-2 -21q105 -82 105 -213t-117 -222t-270 -91z" />
    <glyph glyph-name="Gdotaccent" unicode="&#x120;" horiz-adv-x="1435" 
d="M1047 1568.5q0 -61.5 -38.5 -103.5t-100.5 -42t-99 42t-37 103.5t37 104.5t99 43t100.5 -43t38.5 -104.5zM706 -33q-290 0 -448 153.5t-158 424.5q0 147 63 292t167 249t248 163.5t308 59.5t296 -52l176 48l-62 -451h-141l-45 289q-96 66 -238 65q-197 0 -335 -201
t-138 -469t127 -391q80 -80 217 -79q88 0 162 26l51 332q4 23 -5 33t-40 16l-96 23l-6 82h571l-8 -82l-96 -23q-49 -12 -55 -49l-50 -291l119 -18l6 -68q-300 -82 -590 -82z" />
    <glyph glyph-name="gdotaccent" unicode="&#x121;" horiz-adv-x="954" 
d="M766 1251.5q0 -61.5 -38 -103.5t-100 -42t-99 42t-37 103.5t37 104.5t99 43t100 -43t38 -104.5zM633 -309q0 51 -52.5 87t-178.5 77t-199 71q-150 -72 -150 -182q0 -78 87.5 -129t215.5 -51t202.5 38t74.5 89zM639 729q0 43 -49.5 81t-97.5 38t-70 -23
q-49 -49 -81 -150.5t-29 -188.5t37 -121t71 -33q63 0 112 53q53 51 80 151.5t27 192.5zM453 252q-68 0 -144 20q-31 -8 -51 -33.5t-20 -55.5t38.5 -51t129.5 -52l94 -27q158 -47 237.5 -109t79.5 -178t-147.5 -209.5t-403.5 -93.5q-184 0 -295.5 64.5t-111.5 177.5
q0 86 82 148.5t200 93.5v16q-88 51 -88 135q0 137 187 195v16q-66 41 -106 109.5t-40 146.5q0 170 127 283t307 113q109 0 244 -41l258 4l-51 -185l-242 60l-2 -21q105 -82 105 -213t-117 -222t-270 -91z" />
    <glyph glyph-name="Gcommaaccent" unicode="&#x122;" horiz-adv-x="1435" 
d="M706 -33q-290 0 -448 153.5t-158 424.5q0 147 63 292t167 249t248 163.5t308 59.5t296 -52l176 48l-62 -451h-141l-45 289q-96 66 -238 65q-197 0 -335 -201t-138 -469t127 -391q80 -80 217 -79q88 0 162 26l51 332q4 23 -5 33t-40 16l-96 23l-6 82h571l-8 -82l-96 -23
q-49 -12 -55 -49l-50 -291l119 -18l6 -68q-300 -82 -590 -82zM782 -172.5q38 -58.5 18 -144.5t-107 -154t-212 -102l-32 49q158 45 182 153q18 91 -48.5 125.5t-66.5 36.5q10 47 53 78t109 24t104 -65.5z" />
    <glyph glyph-name="gcommaaccent" unicode="&#x123;" horiz-adv-x="954" 
d="M633 -309q0 51 -52.5 87t-178.5 77t-199 71q-150 -72 -150 -182q0 -78 87.5 -129t215.5 -51t202.5 38t74.5 89zM639 729q0 43 -49.5 81t-97.5 38t-70 -23q-49 -49 -81 -150.5t-29 -188.5t37 -121t71 -33q63 0 112 53q53 51 80 151.5t27 192.5zM453 252q-68 0 -144 20
q-31 -8 -51 -33.5t-20 -55.5t38.5 -51t129.5 -52l94 -27q158 -47 237.5 -109t79.5 -178t-147.5 -209.5t-403.5 -93.5q-184 0 -295.5 64.5t-111.5 177.5q0 86 82 148.5t200 93.5v16q-88 51 -88 135q0 137 187 195v16q-66 41 -106 109.5t-40 146.5q0 170 127 283t307 113
q109 0 244 -41l258 4l-51 -185l-242 60l-2 -21q105 -82 105 -213t-117 -222t-270 -91zM510 1268q41 182 332 272l28 -55q-166 -51 -183 -145q-16 -87 28.5 -115.5t65 -41t20.5 -14.5q-8 -45 -54.5 -78.5t-112.5 -26.5t-103 66.5t-21 137.5z" />
    <glyph glyph-name="Hcircumflex" unicode="&#x124;" horiz-adv-x="1517" 
d="M1386 0h-573l6 82l101 22q29 6 40 16.5t13 33.5l61 450h-524l-61 -450q-6 -39 40 -50l97 -22l6 -82h-574l7 82l100 22q47 10 53 50l131 972q6 39 -41 50l-92 22l-6 82h573l-6 -82l-102 -22q-47 -12 -53 -50l-58 -421h525l57 421q4 25 -4 34t-37 16l-94 22l-6 82h575
l-8 -82l-100 -22q-47 -12 -54 -50l-133 -972q-6 -39 41 -50l94 -22zM1176 1372h-95l-176 246h-4l-242 -246h-94l234 373h241z" />
    <glyph glyph-name="hcircumflex" unicode="&#x125;" horiz-adv-x="1089" 
d="M971 797q0 -137 -187 -668l56 -18l151 104l35 -43q-49 -82 -129 -143.5t-156 -61.5q-43 0 -112.5 30t-69.5 56q0 43 115 387q68 217 68 253t-29 56.5t-72 20.5t-111.5 -107.5t-187.5 -357.5l-68 -309l-247 -2l75 307l177 840q12 53 -25 69l-117 56l13 57l417 104
l-243 -1003h22q166 364 252 450t178 86t143.5 -46t51.5 -117zM733 1475h-94l-176 245h-4l-242 -245h-94l233 372h242z" />
    <glyph glyph-name="Hbar" unicode="&#x126;" horiz-adv-x="1517" 
d="M524 705h525l24 178h-524zM1386 0h-573l6 82l101 22q29 6 39 16.5t14 33.5l61 450h-524l-61 -450q-6 -39 40 -50l97 -22l6 -82h-574l7 82l100 22q47 10 53 50l98 729h-206l20 98h201l20 147q6 37 -41 50l-94 22l-6 80h573l-6 -80l-102 -22q-47 -12 -53 -50l-21 -147h524
l21 147q4 23 -4 32t-37 18l-92 22l-6 80h573l-8 -80l-100 -22q-47 -12 -54 -50l-22 -147h168l4 -98h-185l-98 -729q-6 -39 41 -50l94 -22z" />
    <glyph glyph-name="hbar" unicode="&#x127;" horiz-adv-x="1089" 
d="M971 799q0 -139 -187 -670l56 -18l151 104l35 -41q-49 -84 -129 -145.5t-156 -61.5q-43 0 -112.5 30t-69.5 56q0 47 115 387q68 217 68 253t-29 57.5t-72 21.5t-110.5 -107.5t-188.5 -359.5l-68 -311h-247l77 307l156 735h-143l18 109h144v18q0 37 -23 49l-119 54l13 59
l417 102l-69 -282h247l7 -109h-281l-147 -612h22q164 362 251 449t179 87t143.5 -46t51.5 -115z" />
    <glyph glyph-name="Imacron" unicode="&#x12a;" horiz-adv-x="763" 
d="M811 1436h-608l24 118h582zM635 0h-617l7 82l120 22q47 10 54 50l133 972q6 41 -41 50l-115 22l-6 82h614l-6 -82l-123 -22q-47 -10 -53 -50l-131 -972q-6 -37 41 -50l115 -22z" />
    <glyph glyph-name="imacron" unicode="&#x12b;" horiz-adv-x="573" 
d="M707 1118h-609l25 119h582zM250 -33q-41 0 -115 33t-67 53l196 742l-61 12l-133 -148l-41 46q45 98 118.5 177t147.5 79q27 0 77 -14.5t90 -36t36 -36.5l-205 -745l55 -18l152 104l35 -43q-49 -82 -129 -143.5t-156 -61.5z" />
    <glyph glyph-name="Ibreve" unicode="&#x12c;" horiz-adv-x="763" 
d="M494 1362q-133 0 -190.5 100.5t-65.5 282.5h90q29 -119 68.5 -182.5t113.5 -63.5t133 64.5t123 181.5h88q-102 -383 -360 -383zM635 0h-617l7 82l120 22q47 10 54 50l133 972q6 41 -41 50l-115 22l-6 82h614l-6 -82l-123 -22q-47 -10 -53 -50l-131 -972q-6 -37 41 -50
l115 -22z" />
    <glyph glyph-name="ibreve" unicode="&#x12d;" horiz-adv-x="573" 
d="M393 1044q-133 0 -190.5 100.5t-65.5 282.5h90q29 -119 69 -182t113.5 -63t133 64.5t123.5 180.5h88q-102 -383 -361 -383zM250 -33q-41 0 -115 33t-67 53l196 742l-61 12l-133 -148l-41 46q45 98 118.5 177t147.5 79q27 0 77 -14.5t90 -36t36 -36.5l-205 -745l55 -18
l152 104l35 -43q-49 -82 -129 -143.5t-156 -61.5z" />
    <glyph glyph-name="Iogonek" unicode="&#x12e;" horiz-adv-x="763" 
d="M501 -420q-67 -39 -156 -30t-136 59.5t-33 136.5t94 150.5t191 103.5h-441l7 82l120 22q47 10 54 50l133 974q6 39 -41 50l-115 22l-6 80h612l-6 -80l-123 -22q-47 -10 -53 -50l-131 -974q-6 -37 41 -50l115 -22l8 -82q-92 -18 -174 -80.5t-92 -130.5q-14 -104 88 -115
q66 -6 114 31l17 -27q-20 -59 -87 -98z" />
    <glyph glyph-name="iogonek" unicode="&#x12f;" horiz-adv-x="573" 
d="M631 1266q0 -66 -42 -118t-100 -52t-95.5 40t-37.5 106t42 118.5t100 52.5t95.5 -40.5t37.5 -106.5zM313 961q40 0 125.5 -29.5t77.5 -54.5l-205 -748l56 -18l151 104l35 -41q-74 -127 -213 -201q-57 -27 -94 -76t-47.5 -98t9.5 -85t76 -41t105 32l17 -27
q-20 -59 -87 -98t-154 -30t-133 65.5t-30 134.5t75.5 137.5t137.5 94.5q-56 4 -93.5 32.5t-35.5 38.5l197 742l-62 14l-133 -150l-41 46q45 98 119 177t147 79z" />
    <glyph glyph-name="Idotaccent" unicode="&#x130;" horiz-adv-x="763" 
d="M651 1568.5q0 -61.5 -38 -103.5t-100 -42t-99 42t-37 103.5t37 104.5t99 43t100 -43t38 -104.5zM635 0h-617l7 82l120 22q47 10 54 50l133 972q6 41 -41 50l-115 22l-6 82h614l-6 -82l-123 -22q-47 -10 -53 -50l-131 -972q-6 -37 41 -50l115 -22z" />
    <glyph glyph-name="dotlessi" unicode="&#x131;" horiz-adv-x="573" 
d="M250 -33q-41 0 -115 33t-67 53l196 742l-61 12l-133 -148l-41 46q45 98 118.5 177t147.5 79q27 0 77 -14.5t90 -36t36 -36.5l-205 -745l55 -18l152 104l35 -43q-49 -82 -129 -143.5t-156 -61.5z" />
    <glyph glyph-name="Jcircumflex" unicode="&#x134;" horiz-adv-x="903" 
d="M219 -33q-113 0 -187.5 47t-72.5 127q2 49 39 82t86 33q160 0 172 -209h2q61 31 98 119t62 270l92 690q6 41 -41 50l-133 22l-6 82h622l-8 -82l-108 -22q-47 -8 -54 -50l-82 -610q-74 -549 -481 -549zM961 1372h-95l-176 246h-4l-242 -246h-94l234 373h241z" />
    <glyph glyph-name="jcircumflex" unicode="&#x135;" horiz-adv-x="546" 
d="M709 1055h-95l-176 245h-4l-241 -245h-95l234 372h241zM387 928q20 0 36.5 -184.5t10.5 -204.5q-145 -643 -213 -711q-80 -219 -213 -297q-59 -31 -117.5 -33t-99.5 27q-53 23 -71.5 64.5t1.5 84.5q53 66 136 13q37 0 67.5 -28t34.5 -67q2 4 40.5 74t68.5 201
q10 29 59 256t55 250l72 426l-117 -72l-71 -49q2 6 11 25.5t13 29.5t18.5 37t28.5 44t33 17q37 45 105.5 76t111.5 21z" />
    <glyph glyph-name="Kcommaaccent" unicode="&#x136;" horiz-adv-x="1374" 
d="M1296 0h-522l6 82l54 18q43 12 12 72l-215 432l-142 -119l-43 -331q-6 -39 41 -50l95 -22l4 -82h-574l8 82l101 22q47 10 53 50l133 972q6 39 -41 50l-94 22l-4 82h573l-8 -82l-102 -22q-47 -12 -53 -50l-66 -505l358 337q142 140 142 176t-47 52l-54 14l-4 80h535
l-8 -78l-54 -14q-102 -27 -274 -168l-283 -246l314 -575q42 -74 64 -86.5t54 -22.5l37 -8zM799 -311q-41 -182 -332 -273l-29 56q166 50 184 145q10 49 -7 81t-41.5 47t-45 27.5t-20.5 14.5q8 45 54 79t112 27t103.5 -66.5t21.5 -137.5z" />
    <glyph glyph-name="kcommaaccent" unicode="&#x137;" horiz-adv-x="964" 
d="M657 -27q-23 0 -62.5 17.5t-43.5 32.5l-143 428l-76 -33l-60 -422l-245 -2l75 307l177 840q12 53 -25 69l-117 56l13 57l413 104l-114 -469l-119 -464h14l395 208v25q-90 27 -90 119q0 57 43 97t107 40t109.5 -45t45.5 -107q0 -94 -67.5 -153.5t-204.5 -112.5l-94 -37
l153 -383h41l117 107l43 -43q-35 -88 -120 -162t-165 -74zM549 -311q-41 -182 -332 -273l-29 56q166 50 184 145q10 49 -7 81t-41.5 47t-45 27.5t-20.5 14.5q8 45 54 79t112 27t103.5 -66.5t21.5 -137.5z" />
    <glyph glyph-name="Lacute" unicode="&#x139;" horiz-adv-x="1185" 
d="M858 1745l-412 -373h-92l244 373h260zM500 92q203 0 274.5 31t118.5 129l76 170h145l-100 -422h-1002l8 82l101 22q47 10 53 50l131 972q6 39 -41 50l-94 22l-4 82h582l-9 -82l-108 -22q-47 -12 -53 -50l-140 -1034h62z" />
    <glyph glyph-name="lacute" unicode="&#x13a;" horiz-adv-x="559" 
d="M238 -33q-41 0 -113 33t-68 53l226 1088q12 53 -25 69l-117 56l13 57l409 104l-282 -1298l57 -18l149 104l37 -43q-49 -82 -130 -143.5t-156 -61.5zM782 1837l-411 -373h-92l243 373h260z" />
    <glyph glyph-name="Lcommaaccent" unicode="&#x13b;" horiz-adv-x="1185" 
d="M500 92q203 0 274.5 31t118.5 129l76 170h145l-100 -422h-1002l8 82l101 22q47 10 53 50l131 972q6 39 -41 50l-94 22l-4 82h582l-9 -82l-108 -22q-47 -12 -53 -50l-140 -1034h62zM676 -311q-41 -182 -332 -273l-29 56q165 50 183 145q10 49 -6.5 81t-41 47t-45 27.5
t-20.5 14.5q8 45 54 79t112 27t103.5 -66.5t21.5 -137.5z" />
    <glyph glyph-name="lcommaaccent" unicode="&#x13c;" horiz-adv-x="559" 
d="M233 -33q-41 0 -112.5 33t-67.5 53l226 1088q12 53 -25 69l-117 56l13 57l409 104l-283 -1298l58 -18l149 104l37 -43q-49 -82 -130 -143.5t-157 -61.5zM332 -311q-41 -182 -332 -273l-29 56q165 50 183 145q10 49 -6.5 81t-41 47t-45 27.5t-20.5 14.5q8 45 54 79t112 27
t103.5 -66.5t21.5 -137.5z" />
    <glyph glyph-name="Lcaron" unicode="&#x13d;" horiz-adv-x="1488" 
d="M500 92q203 0 274.5 31t118.5 129l76 170h145l-100 -422h-1002l8 82l101 22q47 10 53 50l131 972q6 39 -41 50l-94 22l-4 82h582l-9 -82l-108 -22q-47 -12 -53 -50l-140 -1034h62zM1534 1100q0 -121 -108.5 -231.5t-276.5 -196.5l-51 49q98 55 162.5 128t64.5 141
t-42 107.5t-99 76.5q0 51 47 91t119 40t128 -60.5t56 -144.5z" />
    <glyph glyph-name="lcaron" unicode="&#x13e;" horiz-adv-x="978" 
d="M238 -33q-41 0 -113 33t-68 53l226 1088q12 53 -25 69l-117 56l13 57l409 104l-282 -1298l57 -18l149 104l37 -43q-49 -82 -130 -143.5t-156 -61.5zM807 1118q0 99 -141 180q0 51 47 91.5t119 40.5t128 -60.5t56 -144.5q0 -121 -108.5 -231.5t-276.5 -196.5l-51 49
q98 55 162.5 128t64.5 144z" />
    <glyph glyph-name="Ldot" unicode="&#x13f;" horiz-adv-x="1386" 
d="M1540 628q0 -67 -47 -114t-114.5 -47t-113.5 47t-46 114.5t46.5 113.5t114.5 46t114 -46.5t46 -113.5zM500 92q203 0 274.5 31t118.5 129l76 170h145l-100 -422h-1002l8 82l101 22q47 10 53 50l131 972q6 39 -41 50l-94 22l-4 82h582l-9 -82l-108 -22q-47 -12 -53 -50
l-140 -1034h62z" />
    <glyph glyph-name="ldotaccent" unicode="&#x140;" horiz-adv-x="899" 
d="M238 -33q-41 0 -113 33t-68 53l226 1088q12 53 -25 69l-117 56l13 57l409 104l-282 -1298l57 -18l149 104l37 -43q-49 -82 -130 -143.5t-156 -61.5zM969 648q0 -67 -47.5 -114t-115 -47t-113.5 47.5t-46 115t47 113.5t115 46t114 -47t46 -114z" />
    <glyph glyph-name="Lslash" unicode="&#x141;" horiz-adv-x="1185" 
d="M500 92q203 0 274.5 31t118.5 129l76 170h145l-100 -422h-1002l8 82l101 22q47 10 53 50l33 239l-137 -37v99l149 41l86 630q6 39 -41 50l-94 22l-4 82h582l-9 -82l-108 -22q-47 -12 -53 -50q-74 -555 -76 -555l194 54v-101q-207 -55 -207 -57l-51 -375h62z" />
    <glyph glyph-name="lslash" unicode="&#x142;" horiz-adv-x="604" 
d="M268 -33q-37 0 -106.5 52.5t-65.5 74.5l62 295l-160 -43v98l180 50l133 647q12 53 -22 69l-119 56l14 57l408 104l-189 -872l170 47v-100q-193 -51 -192 -53l-70 -320l56 -18l151 104l35 -43q-49 -82 -129 -143.5t-156 -61.5z" />
    <glyph glyph-name="Nacute" unicode="&#x143;" horiz-adv-x="1466" 
d="M1518 1280l-7 -82l-98 -20q-51 -10 -78.5 -87t-60.5 -321l-109 -786h-198l-537 1042h-14l-70 -516q-35 -252 -31 -324.5t54 -83.5l106 -20l6 -82h-489l6 82l98 20q51 10 78 87t59 321l76 549q6 53 -3 79.5t-46 37.5l-88 22l-4 82h428l487 -952h17l59 442q35 256 32 326.5
t-50 81.5l-111 20l-6 82h494zM1237 1745l-412 -373h-92l244 373h260z" />
    <glyph glyph-name="nacute" unicode="&#x144;" horiz-adv-x="1126" 
d="M813 -33q-59 0 -129 30t-70 56q0 43 115 387q68 217 68 253t-29 56.5t-72 20.5t-111.5 -107.5t-187.5 -357.5l-67 -309l-248 -2l76 307l100 487l-57 15l-135 -144l-41 46q47 98 119.5 177t146.5 79q47 0 124 -24t77 -50q0 -74 -113 -463h22q166 364 252 450q87 86 179 86
t143 -46t51 -130t-94 -374l-92 -281l55 -18l152 104l34 -43q-49 -82 -129 -143.5t-139 -61.5zM991 1427l-411 -372h-93l244 372h260z" />
    <glyph glyph-name="Ncommaaccent" unicode="&#x145;" horiz-adv-x="1466" 
d="M1518 1280l-7 -82l-98 -20q-51 -10 -78.5 -87t-60.5 -321l-109 -786h-198l-537 1042h-14l-70 -516q-35 -252 -31 -324.5t54 -83.5l106 -20l6 -82h-489l6 82l98 20q51 10 78 87t59 321l76 549q6 53 -3 79.5t-46 37.5l-88 22l-4 82h428l487 -952h17l59 442q35 256 32 326.5
t-50 81.5l-111 20l-6 82h494zM809 -311q-41 -182 -332 -273l-28 56q166 51 183 145q9 49 -7.5 81t-41 47t-45 27.5t-20.5 14.5q8 45 54 79t112 27t103.5 -66.5t21.5 -137.5z" />
    <glyph glyph-name="ncommaaccent" unicode="&#x146;" horiz-adv-x="1126" 
d="M618 -311q-41 -182 -331 -273l-29 56q166 51 183 145q16 89 -28 116t-64.5 39.5t-20.5 14.5q8 45 54 79t112 27t103 -66.5t21 -137.5zM813 -33q-59 0 -129 30t-70 56q0 43 115 387q68 217 68 253t-29 56.5t-72 20.5t-111.5 -107.5t-187.5 -357.5l-67 -309l-248 -2l76 307
l100 487l-57 15l-135 -144l-41 46q47 98 119.5 177t146.5 79q47 0 124 -24t77 -50q0 -74 -113 -463h22q166 364 252 450q87 86 179 86t143 -46t51 -130t-94 -374l-92 -281l55 -18l152 104l34 -43q-49 -82 -129 -143.5t-139 -61.5z" />
    <glyph glyph-name="Ncaron" unicode="&#x147;" horiz-adv-x="1466" 
d="M1518 1280l-7 -82l-98 -20q-51 -10 -78.5 -87t-60.5 -321l-109 -786h-198l-537 1042h-14l-70 -516q-35 -252 -31 -324.5t54 -83.5l106 -20l6 -82h-489l6 82l98 20q51 10 78 87t59 321l76 549q6 53 -3 79.5t-46 37.5l-88 22l-4 82h428l487 -952h17l59 442q35 256 32 326.5
t-50 81.5l-111 20l-6 82h494zM1192 1745l-231 -373h-244l-131 373h90l176 -246h4l244 246h92z" />
    <glyph glyph-name="ncaron" unicode="&#x148;" horiz-adv-x="1126" 
d="M813 -33q-59 0 -129 30t-70 56q0 43 115 387q68 217 68 253t-29 56.5t-72 20.5t-111.5 -107.5t-187.5 -357.5l-67 -309l-248 -2l76 307l100 487l-57 15l-135 -144l-41 46q47 98 119.5 177t146.5 79q47 0 124 -24t77 -50q0 -74 -113 -463h22q166 364 252 450q87 86 179 86
t143 -46t51 -130t-94 -374l-92 -281l55 -18l152 104l34 -43q-49 -82 -129 -143.5t-139 -61.5zM969 1427l-232 -372h-243l-132 372h91l176 -245h4l244 245h92z" />
    <glyph glyph-name="Omacron" unicode="&#x14c;" horiz-adv-x="1464" 
d="M806 1206q-116 0 -199 -75.5t-149.5 -251t-66.5 -398.5t109 -329q80 -80 197 -80t199.5 75.5t149 245.5t66.5 396q0 227 -106 339q-84 78 -200 78zM1405 713q0 -317 -227 -549q-188 -195 -464 -195t-446 167t-170 427q0 305 203 524t504 220q262 0 431 -167t169 -427z
M1141 1436h-609l25 118h582z" />
    <glyph glyph-name="omacron" unicode="&#x14d;" horiz-adv-x="985" 
d="M696 645q0 92 -35.5 154.5t-109.5 62.5t-141.5 -112.5t-95.5 -237.5t-28 -218t37 -160.5t101 -67.5q86 0 151 114.5t93 243.5t28 221zM920 526q0 -206 -143.5 -381.5t-350.5 -175.5q-172 0 -267.5 115.5t-95.5 319.5t145.5 380.5t350.5 176.5q172 0 266.5 -114.5
t94.5 -320.5zM918 1118h-609l25 119h581z" />
    <glyph glyph-name="Obreve" unicode="&#x14e;" horiz-adv-x="1464" 
d="M834 1362q-133 0 -190.5 100.5t-65.5 282.5h90q29 -119 68.5 -182.5t113.5 -63.5t133 64.5t123 181.5h88q-102 -383 -360 -383zM806 1206q-116 0 -199 -75.5t-149.5 -251t-66.5 -398.5t109 -329q80 -80 197 -80t199.5 75.5t149 245.5t66.5 396q0 227 -106 339
q-84 78 -200 78zM1405 713q0 -317 -227 -549q-188 -195 -464 -195t-446 167t-170 427q0 305 203 524t504 220q262 0 431 -167t169 -427z" />
    <glyph glyph-name="obreve" unicode="&#x14f;" horiz-adv-x="985" 
d="M584 1044q-133 0 -190.5 100.5t-65.5 282.5h90q29 -119 68.5 -182t113.5 -63t133.5 64.5t122.5 180.5h88q-102 -383 -360 -383zM696 645q0 92 -35.5 154.5t-109.5 62.5t-141.5 -112.5t-95.5 -237.5t-28 -218t37 -160.5t101 -67.5q86 0 151 114.5t93 243.5t28 221z
M920 526q0 -206 -143.5 -381.5t-350.5 -175.5q-172 0 -267.5 115.5t-95.5 319.5t145.5 380.5t350.5 176.5q172 0 266.5 -114.5t94.5 -320.5z" />
    <glyph glyph-name="Ohungarumlaut" unicode="&#x150;" horiz-adv-x="1464" 
d="M806 1206q-116 0 -199 -75.5t-149.5 -251t-66.5 -398.5t109 -329q80 -80 197 -80t199.5 75.5t149 245.5t66.5 396q0 227 -106 339q-84 78 -200 78zM1405 713q0 -317 -227 -549q-188 -195 -464 -195t-446 167t-170 427q0 305 203 524t504 220q262 0 431 -167t169 -427z
M1016 1745l-398 -373h-86l240 373h244zM1376 1745l-397 -373h-84l238 373h243z" />
    <glyph glyph-name="ohungarumlaut" unicode="&#x151;" horiz-adv-x="985" 
d="M696 645q0 92 -35.5 154.5t-109.5 62.5t-141.5 -112.5t-95.5 -237.5t-28 -218t37 -160.5t101 -67.5q86 0 151 114.5t93 243.5t28 221zM920 526q0 -206 -143.5 -381.5t-350.5 -175.5q-172 0 -267.5 115.5t-95.5 319.5t145.5 380.5t350.5 176.5q172 0 266.5 -114.5
t94.5 -320.5zM778 1427l-397 -372h-86l240 372h243zM1139 1427l-398 -372h-84l238 372h244z" />
    <glyph glyph-name="OE" unicode="&#x152;" horiz-adv-x="1982" 
d="M393 563q0 -221 100.5 -345t294.5 -124h82l146 1063l-139 31q-211 -10 -347.5 -174t-136.5 -451zM98 582q0 272 211 481q98 98 258 157.5t351 59.5h1062l-65 -422h-131l-23 170q-10 80 -50 120t-339 40h-80l-69 -496h39q90 0 136 15.5t70 58.5l58 131h104l-112 -496h-105
l2 131q2 39 -31.5 53.5t-142.5 14.5h-31l-67 -508h88q178 0 256 11.5t120 42t76 106.5l70 151h148l-95 -403h-1061q-305 -2 -476 154t-171 428z" />
    <glyph glyph-name="oe" unicode="&#x153;" horiz-adv-x="1466" 
d="M1251 745q0 37 -55 67t-96 30t-73 -32t-77 -146.5t-61 -243.5h6q205 113 280.5 178.5t75.5 146.5zM696 645q0 92 -35.5 154.5t-109.5 62.5t-141.5 -112.5t-95.5 -237.5t-28 -218t37 -160.5t101 -67.5q86 0 151 114.5t93 243.5t28 221zM1452 756q0 -54 -21.5 -80.5
t-37 -43t-48 -39t-59 -38.5t-78 -43t-89.5 -46.5t-107.5 -55t-120.5 -62.5v-26q0 -88 50.5 -144.5t120.5 -56.5t269 135l33 -43q-186 -244 -376 -244t-257 150q-129 -150 -303 -150t-269.5 115.5t-95.5 319.5t143.5 380.5t355.5 176.5t288 -187q141 186 350 187
q119 0 185.5 -57.5t66.5 -147.5z" />
    <glyph glyph-name="Racute" unicode="&#x154;" horiz-adv-x="1296" 
d="M922 925q0 124 -72 194.5t-191 70.5h-71l-72 -531l127 -26q125 18 202 93t77 199zM770 1280q213 0 332 -86t119 -222t-93.5 -234.5t-265.5 -145.5l223 -404q29 -60 56.5 -75t54.5 -23l35 -8l4 -82h-369l-69 164l-185 385l-106 6l-57 -401q-6 -33 40 -50l91 -22l6 -82
h-570l7 82l100 22q47 10 53 50l129 972q6 39 -41 50l-94 22l-4 82h604zM1090 1745l-412 -373h-92l243 373h261z" />
    <glyph glyph-name="racute" unicode="&#x155;" horiz-adv-x="923" 
d="M293 961q47 0 123 -24t76 -50q0 -45 -49.5 -225.5t-84.5 -278.5h29q33 88 106.5 241.5t108.5 186.5q49 88 90 121t110 33t115 -45.5t46 -117.5t-39.5 -116.5t-97.5 -44.5t-91.5 45t-15.5 111l-37 10q-29 -25 -143.5 -236t-159.5 -309l-49 -266l-248 -2l76 307l100 494
l-59 12l-131 -148l-43 46q47 100 120.5 178t147.5 78zM963 1427l-412 -372h-92l243 372h261z" />
    <glyph glyph-name="Rcommaaccent" unicode="&#x156;" horiz-adv-x="1296" 
d="M922 925q0 124 -72 194.5t-191 70.5h-71l-72 -531l127 -26q125 18 202 93t77 199zM770 1280q213 0 332 -86t119 -222t-93.5 -234.5t-265.5 -145.5l223 -404q29 -60 56.5 -75t54.5 -23l35 -8l4 -82h-369l-69 164l-185 385l-106 6l-57 -401q-6 -33 40 -50l91 -22l6 -82
h-570l7 82l100 22q47 10 53 50l129 972q6 39 -41 50l-94 22l-4 82h604zM801 -311q-41 -182 -332 -273l-29 56q166 50 184 145q10 49 -7 81t-41.5 47t-45 27.5t-20.5 14.5q8 45 54 79t112 27t103.5 -66.5t21.5 -137.5z" />
    <glyph glyph-name="rcommaaccent" unicode="&#x157;" horiz-adv-x="923" 
d="M293 961q47 0 123 -24t76 -50q0 -45 -49.5 -225.5t-84.5 -278.5h29q33 88 106.5 241.5t108.5 186.5q49 88 90 121t110 33t115 -45.5t46 -117.5t-39.5 -116.5t-97.5 -44.5t-91.5 45t-15.5 111l-37 10q-29 -25 -143.5 -236t-159.5 -309l-49 -266l-248 -2l76 307l100 494
l-59 12l-131 -148l-43 46q47 100 120.5 178t147.5 78zM312.5 -172.5q37.5 -58.5 17.5 -144.5t-106.5 -154t-211.5 -102l-32 49q158 45 182 153q18 91 -48.5 125.5t-66.5 36.5q10 47 53 78t109 24t103.5 -65.5z" />
    <glyph glyph-name="Rcaron" unicode="&#x158;" horiz-adv-x="1296" 
d="M922 925q0 124 -72 194.5t-191 70.5h-71l-72 -531l127 -26q125 18 202 93t77 199zM770 1280q213 0 332 -86t119 -222t-93.5 -234.5t-265.5 -145.5l223 -404q29 -60 56.5 -75t54.5 -23l35 -8l4 -82h-369l-69 164l-185 385l-106 6l-57 -401q-6 -33 40 -50l91 -22l6 -82
h-570l7 82l100 22q47 10 53 50l129 972q6 39 -41 50l-94 22l-4 82h604zM1055 1745l-232 -373h-243l-131 373h90l176 -246h4l244 246h92z" />
    <glyph glyph-name="rcaron" unicode="&#x159;" horiz-adv-x="923" 
d="M293 961q47 0 123 -24t76 -50q0 -45 -49.5 -225.5t-84.5 -278.5h29q33 88 106.5 241.5t108.5 186.5q49 88 90 121t110 33t115 -45.5t46 -117.5t-39.5 -116.5t-97.5 -44.5t-91.5 45t-15.5 111l-37 10q-29 -25 -143.5 -236t-159.5 -309l-49 -266l-248 -2l76 307l100 494
l-59 12l-131 -148l-43 46q47 100 120.5 178t147.5 78zM903 1427l-231 -372h-244l-131 372h90l176 -245h4l244 245h92z" />
    <glyph glyph-name="Sacute" unicode="&#x15a;" horiz-adv-x="1095" 
d="M983 375q0 -184 -143.5 -295t-359.5 -111t-433 68l35 393l131 -2l63 -307q100 -45 220 -45t181.5 54t62.5 145t-71.5 149.5t-216.5 136.5q-145 78 -218.5 158.5t-73.5 228.5t138 253.5t335 105.5q127 0 323 -47l113 34l-55 -420l-129 5l-43 274q-110 45 -214 45
t-164.5 -46t-60.5 -104t17.5 -96.5t61.5 -75t82 -59t112 -63.5q154 -80 230.5 -163t76.5 -216zM1024 1745l-412 -373h-92l244 373h260z" />
    <glyph glyph-name="sacute" unicode="&#x15b;" horiz-adv-x="784" 
d="M778 786q0 -59 -33 -94t-85 -35t-81.5 32t-29.5 69t12 59q-82 45 -168 51q-29 -18 -55.5 -56t-28.5 -58t7.5 -41t30 -44.5t36.5 -41t46 -45t39 -36.5t33.5 -33t32 -31t29 -27.5t28.5 -29.5t22.5 -27.5t21.5 -30t21.5 -36.5t15.5 -85q-4 -121 -119 -199t-251 -78t-224 43
t-88 138q0 57 34 91.5t86 34.5t80.5 -31.5t28.5 -68.5t-12 -59q100 -49 194 -54q27 18 52.5 58.5t26.5 60.5t-2 33.5t-13 29t-30.5 38t-102.5 96.5q-83 75 -118.5 112t-66 91.5t-28.5 105.5q6 129 115.5 201t248.5 72q295 -1 295 -175zM866 1427l-411 -372h-93l244 372h260z
" />
    <glyph glyph-name="Scircumflex" unicode="&#x15c;" horiz-adv-x="1095" 
d="M983 375q0 -184 -143.5 -295t-359.5 -111t-433 68l35 393l131 -2l63 -307q100 -45 220 -45t181.5 54t62.5 145t-71.5 149.5t-216.5 136.5q-145 78 -218.5 158.5t-73.5 228.5t138 253.5t335 105.5q127 0 323 -47l113 34l-55 -420l-129 5l-43 274q-110 45 -214 45
t-164.5 -46t-60.5 -104t17.5 -96.5t61.5 -75t82 -59t112 -63.5q154 -80 230.5 -163t76.5 -216zM958 1372h-94l-176 246h-4l-242 -246h-94l234 373h241z" />
    <glyph glyph-name="scircumflex" unicode="&#x15d;" horiz-adv-x="784" 
d="M778 786q0 -59 -33 -94t-85 -35t-81.5 32t-29.5 69t12 59q-82 45 -168 51q-29 -18 -55.5 -56t-28.5 -58t7.5 -41t30 -44.5t36.5 -41t46 -45t39 -36.5t33.5 -33t32 -31t29 -27.5t28.5 -29.5t22.5 -27.5t21.5 -30t21.5 -36.5t15.5 -85q-4 -121 -119 -199t-251 -78t-224 43
t-88 138q0 57 34 91.5t86 34.5t80.5 -31.5t28.5 -68.5t-12 -59q100 -49 194 -54q27 18 52.5 58.5t26.5 60.5t-2 33.5t-13 29t-30.5 38t-102.5 96.5q-83 75 -118.5 112t-66 91.5t-28.5 105.5q6 129 115.5 201t248.5 72q295 -1 295 -175zM821 1055h-94l-176 245h-4l-242 -245
h-94l233 372h242z" />
    <glyph glyph-name="Scedilla" unicode="&#x15e;" horiz-adv-x="1095" 
d="M578 -334q0 98 -158 98q-74 0 -144 -14l7 49l184 170q-213 2 -420 68l35 393l131 -2l63 -307q100 -45 220 -45t181.5 54t62.5 145t-71.5 149.5t-216.5 136.5q-145 78 -218.5 158.5t-73.5 228.5t138 253.5t335 105.5q127 0 323 -47l113 34l-55 -420l-129 5l-43 274
q-110 45 -214 45t-164.5 -46t-60.5 -104t17.5 -96.5t61.5 -75t82 -59t112 -63.5q154 -80 230.5 -163t76.5 -231t-113.5 -254t-296.5 -131l-96 -86q121 -4 190.5 -50t69.5 -126q0 -115 -136 -190.5t-355 -85.5l-13 55q166 20 255.5 65.5t89.5 108.5z" />
    <glyph glyph-name="scedilla" unicode="&#x15f;" horiz-adv-x="784" 
d="M360 -334q0 98 -157 98q-74 0 -144 -14l7 49l186 172q-113 6 -187.5 49t-74.5 130q0 57 34 91.5t86 34.5t80.5 -31.5t28.5 -68.5t-12 -59q100 -49 194 -54q27 18 52.5 58.5t26.5 60.5t-2 33.5t-13 29t-30.5 38t-102.5 96.5q-83 75 -118.5 112t-66 91.5t-28.5 105.5
q6 129 115.5 201t248.5 72q295 0 295 -175q0 -59 -33 -94t-85 -35t-81.5 32t-29.5 69t12 59q-82 45 -168 51q-29 -18 -55.5 -56t-28.5 -58t7.5 -41t30 -44.5t36.5 -41t46 -45t39 -36.5t33.5 -33t32 -31t29 -27.5t28.5 -29.5t22.5 -27.5t21.5 -30t21.5 -36.5t15.5 -85
q-4 -106 -96.5 -180t-221.5 -93l-94 -84q121 -4 190.5 -50t69.5 -126q0 -115 -136 -190.5t-355 -85.5l-13 55q166 20 255 65.5t89 108.5z" />
    <glyph glyph-name="Scaron" unicode="&#x160;" horiz-adv-x="1095" 
d="M983 375q0 -184 -143.5 -295t-359.5 -111t-433 68l35 393l131 -2l63 -307q100 -45 220 -45t181.5 54t62.5 145t-71.5 149.5t-216.5 136.5q-145 78 -218.5 158.5t-73.5 228.5t138 253.5t335 105.5q127 0 323 -47l113 34l-55 -420l-129 5l-43 274q-110 45 -214 45
t-164.5 -46t-60.5 -104t17.5 -96.5t61.5 -75t82 -59t112 -63.5q154 -80 230.5 -163t76.5 -216zM1026 1769l-231 -372h-244l-131 372h90l176 -245h4l244 245h92z" />
    <glyph glyph-name="scaron" unicode="&#x161;" horiz-adv-x="784" 
d="M778 786q0 -59 -33 -94t-85 -35t-81.5 32t-29.5 69t12 59q-82 45 -168 51q-29 -18 -55.5 -56t-28.5 -58t7.5 -41t30 -44.5t36.5 -41t46 -45t39 -36.5t33.5 -33t32 -31t29 -27.5t28.5 -29.5t22.5 -27.5t21.5 -30t21.5 -36.5t15.5 -85q-4 -121 -119 -199t-251 -78t-224 43
t-88 138q0 57 34 91.5t86 34.5t80.5 -31.5t28.5 -68.5t-12 -59q100 -49 194 -54q27 18 52.5 58.5t26.5 60.5t-2 33.5t-13 29t-30.5 38t-102.5 96.5q-83 75 -118.5 112t-66 91.5t-28.5 105.5q6 129 115.5 201t248.5 72q295 -1 295 -175zM860 1427l-231 -372h-244l-131 372h90
l176 -245h4l244 245h92z" />
    <glyph glyph-name="Tcommaaccent" unicode="&#x162;" horiz-adv-x="1312" 
d="M602 1188q-139 0 -195.5 -29t-103.5 -133l-72 -176h-147l92 430h1184l-55 -430h-134l-22 170q-14 104 -64.5 135t-191.5 33h-12l-138 -1034q-6 -39 41 -50l123 -22l6 -82h-626l6 82l127 22q49 8 53 50l137 1034h-8zM717 -311q-41 -182 -332 -273l-29 56q166 50 184 145
q10 49 -7 81t-41.5 47t-45 27.5t-20.5 14.5q8 45 54 79t112 27t103.5 -66.5t21.5 -137.5z" />
    <glyph glyph-name="tcommaaccent" unicode="&#x163;" horiz-adv-x="677" 
d="M262 -33q-41 0 -114.5 30t-67.5 50l158 737l-168 17l6 69l190 76l51 266h222l-62 -294h258l6 -117h-284l-152 -672l57 -18l150 104l37 -43q-49 -82 -130 -143.5t-157 -61.5zM367 -317q-41 -182 -332 -273l-29 55q166 50 184 146q10 49 -7 81t-41.5 47t-45 27.5
t-20.5 14.5q8 45 54 79t112 26t103.5 -66.5t21.5 -136.5z" />
    <glyph glyph-name="Tcaron" unicode="&#x164;" horiz-adv-x="1312" 
d="M602 1188q-139 0 -195.5 -29t-103.5 -133l-72 -176h-147l92 430h1184l-55 -430h-134l-22 170q-14 104 -64.5 135t-191.5 33h-12l-138 -1034q-6 -39 41 -50l123 -22l6 -82h-626l6 82l127 22q49 8 53 50l137 1034h-8zM1122 1745l-231 -373h-244l-131 373h90l176 -246h4
l244 246h92z" />
    <glyph glyph-name="tcaron" unicode="&#x165;" horiz-adv-x="862" 
d="M262 -33q-41 0 -114.5 30t-67.5 50l158 737l-168 17l6 69l190 76l51 266h222l-62 -294h258l6 -117h-284l-152 -672l57 -18l150 104l37 -43q-49 -82 -130 -143.5t-157 -61.5zM924 1325q0 -98 -87 -186t-223 -156l-41 39q80 45 131.5 103.5t51.5 115.5q0 80 -101 135l-12 8
q0 41 38.5 73t96.5 32t102 -48t44 -116z" />
    <glyph glyph-name="Umacron" unicode="&#x16a;" horiz-adv-x="1449" 
d="M1196 1436h-608l24 118h582zM682 -43q-219 0 -352 106.5t-133 309.5q0 61 6 112l88 641q6 39 -41 50l-92 22l-6 82h573l-6 -82l-103 -22q-47 -12 -53 -50l-88 -641q-10 -88 -10 -123q0 -127 81 -199.5t222 -72.5t229 85t117 282l45 313q35 254 31 325.5t-53 82.5l-107 20
l-6 82h492l-7 -82l-98 -20q-51 -10 -77.5 -86t-61.5 -322l-49 -348q-35 -231 -178.5 -348t-362.5 -117z" />
    <glyph glyph-name="umacron" unicode="&#x16b;" horiz-adv-x="1126" 
d="M983 1118h-608l24 119h582zM319 961q41 0 116 -39t75 -66q0 -45 -109 -367q-65 -215 -65 -247t28.5 -58t63.5 -26q49 0 117.5 106.5t193.5 358.5l72 313h248l-86 -307q-94 -473 -105 -504l56 -21l145 105l37 -41q-49 -84 -127.5 -142.5t-138.5 -58.5t-129.5 30t-69.5 56
q0 80 117 453h-23q-172 -365 -258 -451t-178 -86t-143.5 50.5t-51.5 134.5t77 318t104 323l-60 12l-131 -148l-43 46q45 98 120 177t148 79z" />
    <glyph glyph-name="Ubreve" unicode="&#x16c;" horiz-adv-x="1449" 
d="M881 1362q-133 0 -190.5 100.5t-65.5 282.5h90q29 -119 68.5 -182.5t113.5 -63.5t133.5 64.5t122.5 181.5h88q-102 -383 -360 -383zM682 -43q-219 0 -352 106.5t-133 309.5q0 61 6 112l88 641q6 39 -41 50l-92 22l-6 82h573l-6 -82l-103 -22q-47 -12 -53 -50l-88 -641
q-10 -88 -10 -123q0 -127 81 -199.5t222 -72.5t229 85t117 282l45 313q35 254 31 325.5t-53 82.5l-107 20l-6 82h492l-7 -82l-98 -20q-51 -10 -77.5 -86t-61.5 -322l-49 -348q-35 -231 -178.5 -348t-362.5 -117z" />
    <glyph glyph-name="ubreve" unicode="&#x16d;" horiz-adv-x="1126" 
d="M641 1044q-133 0 -190.5 100.5t-65.5 282.5h90q29 -119 69 -182t113.5 -63t133 64.5t122.5 180.5h88q-102 -383 -360 -383zM319 961q41 0 116 -39t75 -66q0 -45 -109 -367q-65 -215 -65 -247t28.5 -58t63.5 -26q49 0 117.5 106.5t193.5 358.5l72 313h248l-86 -307
q-94 -473 -105 -504l56 -21l145 105l37 -41q-49 -84 -127.5 -142.5t-138.5 -58.5t-129.5 30t-69.5 56q0 80 117 453h-23q-172 -365 -258 -451t-178 -86t-143.5 50.5t-51.5 134.5t77 318t104 323l-60 12l-131 -148l-43 46q45 98 120 177t148 79z" />
    <glyph glyph-name="Uring" unicode="&#x16e;" horiz-adv-x="1449" 
d="M682 -43q-219 0 -352 106.5t-133 309.5q0 61 6 112l88 641q6 39 -41 50l-92 22l-6 82h573l-6 -82l-103 -22q-47 -12 -53 -50l-88 -641q-10 -88 -10 -123q0 -127 81 -199.5t222 -72.5t229 85t117 282l45 313q35 254 31 325.5t-53 82.5l-107 20l-6 82h492l-7 -82l-98 -20
q-51 -10 -77.5 -86t-61.5 -322l-49 -348q-35 -231 -178.5 -348t-362.5 -117zM1024 1573q0 57 -36 98t-95 41t-95 -41t-36 -98t36 -97t95 -40t95 40t36 97zM1094 1573q0 -86 -55.5 -145.5t-146.5 -59.5t-147.5 59.5t-54.5 145.5t57.5 145.5t145.5 59.5t145.5 -59.5
t55.5 -145.5z" />
    <glyph glyph-name="uring" unicode="&#x16f;" horiz-adv-x="1126" 
d="M319 961q41 0 116 -39t75 -66q0 -45 -109 -367q-65 -215 -65 -247t28.5 -58t63.5 -26q49 0 117.5 106.5t193.5 358.5l72 313h248l-86 -307q-94 -473 -105 -504l56 -21l145 105l37 -41q-49 -84 -127.5 -142.5t-138.5 -58.5t-129.5 30t-69.5 56q0 80 117 453h-23
q-172 -365 -258 -451t-178 -86t-143.5 50.5t-51.5 134.5t77 318t104 323l-60 12l-131 -148l-43 46q45 98 120 177t148 79zM793 1255.5q0 57.5 -36 98.5t-95.5 41t-95.5 -41t-36 -98.5t36 -97.5t95.5 -40t95.5 40t36 97.5zM862 1255q0 -86 -55 -145t-146 -59t-147.5 59
t-54.5 145t57 145.5t145.5 59.5t145.5 -59.5t55 -145.5z" />
    <glyph glyph-name="Uhungarumlaut" unicode="&#x170;" horiz-adv-x="1449" 
d="M1073 1745l-397 -373h-86l239 373h244zM1434 1745l-398 -373h-84l238 373h244zM682 -43q-219 0 -352 106.5t-133 309.5q0 61 6 112l88 641q6 39 -41 50l-92 22l-6 82h573l-6 -82l-103 -22q-47 -12 -53 -50l-88 -641q-10 -88 -10 -123q0 -127 81 -199.5t222 -72.5t229 85
t117 282l45 313q35 254 31 325.5t-53 82.5l-107 20l-6 82h492l-7 -82l-98 -20q-51 -10 -77.5 -86t-61.5 -322l-49 -348q-35 -231 -178.5 -348t-362.5 -117z" />
    <glyph glyph-name="uhungarumlaut" unicode="&#x171;" horiz-adv-x="1126" 
d="M874 1427l-397 -372h-86l240 372h243zM1235 1427l-397 -372h-84l237 372h244zM319 961q41 0 116 -39t75 -66q0 -45 -109 -367q-65 -215 -65 -247t28.5 -58t63.5 -26q49 0 117.5 106.5t193.5 358.5l72 313h248l-86 -307q-94 -473 -105 -504l56 -21l145 105l37 -41
q-49 -84 -127.5 -142.5t-138.5 -58.5t-129.5 30t-69.5 56q0 80 117 453h-23q-172 -365 -258 -451t-178 -86t-143.5 50.5t-51.5 134.5t77 318t104 323l-60 12l-131 -148l-43 46q45 98 120 177t148 79z" />
    <glyph glyph-name="Uogonek" unicode="&#x172;" horiz-adv-x="1449" 
d="M684 -43q-221 0 -354 106.5t-133 309.5q0 43 8 112l88 643q6 37 -41 50l-94 22l-6 80h573l-6 -80l-103 -22q-47 -12 -53 -50l-88 -643q-10 -82 -10 -123q0 -127 81 -199.5t222 -72.5t230 85t118 282l43 315q35 254 31 325.5t-53 80.5l-107 22l-6 80h492l-7 -80l-98 -22
q-51 -10 -77.5 -86t-61.5 -320l-49 -350q-23 -160 -98 -261.5t-171 -154.5q-188 -103 -204 -217q-17 -106 95 -116q57 -5 105 32l17 -27q-20 -59 -87 -98t-155 -30t-136 61.5t-32 138.5q25 127 201 211q-25 -4 -74 -4z" />
    <glyph glyph-name="uogonek" unicode="&#x173;" horiz-adv-x="1126" 
d="M641 53q0 80 117 453h-23q-172 -365 -258 -451t-177 -86t-142.5 50.5t-51.5 134.5t93 366q70 223 88 275l-60 14l-133 -150l-41 46q45 98 119 177t147 79q41 0 116 -39t75 -66q0 -45 -109 -367q-65 -209 -65 -243t28.5 -61t63.5 -27q49 0 118.5 107.5t192.5 359.5l72 311
h248l-86 -307q-94 -471 -105 -504l56 -21l145 107l37 -43q-76 -127 -209 -197q-55 -29 -94 -77t-48 -96t10 -84t73 -41t108 32l15 -27q-20 -59 -86 -98t-154 -30t-133 65.5t-29 133.5t72.5 135.5t132.5 95.5q-43 8 -83 31.5t-40 41.5z" />
    <glyph glyph-name="Wcircumflex" unicode="&#x174;" horiz-adv-x="1908" 
d="M2060 1280l-6 -84l-61 -18q-72 -20 -117 -72.5t-119 -210.5l-381 -895h-233l-115 788h-14l-359 -788h-235l-193 1094q-8 39 -24.5 57t-52.5 27l-84 18l-7 84h617l-6 -84l-86 -12q-78 -10 -54 -158l107 -795h14l324 730l-21 133q-4 37 -21.5 56t-55.5 28l-84 18l-7 84h615
l-6 -84l-86 -12q-45 -6 -56.5 -42t2.5 -116l105 -793h16l266 676q57 135 55.5 195.5t-61.5 75.5l-61 16l-6 84h491zM1405 1372h-94l-176 246h-5l-241 -246h-94l233 373h242z" />
    <glyph glyph-name="wcircumflex" unicode="&#x175;" horiz-adv-x="1499" 
d="M262 961q45 0 122 -30t77 -54l6 -762h18l289 651l-10 195l223 -41l33 -805h20l195 383q70 135 70 183t-39 86t-101 50q16 63 63.5 104.5t113.5 41.5t112.5 -46.5t45.5 -113.5t-30.5 -137t-61.5 -120t-114 -171l-241 -367l-246 -39l-12 627h-17l-268 -588l-262 -39
l-21 826l-59 12l-131 -148l-41 46q45 98 118.5 177t147.5 79zM1196 1055h-94l-176 245h-4l-242 -245h-94l233 372h242z" />
    <glyph glyph-name="Ycircumflex" unicode="&#x176;" horiz-adv-x="1222" 
d="M1053 1372h-95l-176 246h-4l-241 -246h-95l234 373h242zM1348 1280l-7 -84l-49 -14q-61 -16 -108 -55.5t-131 -159.5l-295 -428l-49 -385q-6 -41 41 -50l120 -22l-2 -82h-628l12 82l131 22q45 6 53 50l49 372l-249 543q-27 51 -49.5 73.5t-59.5 33.5l-61 20l-7 84h588
l-6 -84l-82 -12q-53 -8 -54 -55.5t42 -145.5l145 -356h17l235 354q66 96 68 142t-62 59l-73 14l-7 84h478z" />
    <glyph glyph-name="ycircumflex" unicode="&#x177;" horiz-adv-x="974" 
d="M893 1055h-94l-176 245h-5l-241 -245h-94l233 372h242zM983 797q0 -145 -260 -482l-186 -252l-115 -229q-174 -348 -372 -348q-97 0 -156.5 47t-59.5 111t36 99.5t91 35.5t96 -46t39 -118l37 -2l258 342l-139 41l-23 799l-59 12l-131 -148l-41 46q45 98 118.5 177
t147.5 79q45 0 121 -29t78 -55l-14 -777h26l320 553v25q-115 45 -115 133q0 63 40 107.5t106 44.5t111.5 -45t45.5 -121z" />
    <glyph glyph-name="Ydieresis" unicode="&#x178;" horiz-adv-x="1222" 
d="M1348 1280l-7 -84l-49 -14q-61 -16 -108 -55.5t-131 -159.5l-295 -428l-49 -385q-6 -41 41 -50l120 -22l-2 -82h-628l12 82l131 22q45 6 53 50l49 372l-249 543q-27 51 -49.5 73.5t-59.5 33.5l-61 20l-7 84h588l-6 -84l-82 -12q-53 -8 -54 -55.5t42 -145.5l145 -356h17
l235 354q66 96 68 142t-62 59l-73 14l-7 84h478zM684 1583q0 -59 -36 -100t-97.5 -41t-98 41t-36.5 100t36.5 101t98 42t97.5 -42t36 -101zM1122 1583q0 -59 -35.5 -100t-97 -41t-97.5 41t-36 100t36 101t97.5 42t97 -42t35.5 -101z" />
    <glyph glyph-name="Zacute" unicode="&#x179;" horiz-adv-x="1232" 
d="M930 1186h-211q-182 0 -244.5 -32t-112.5 -142l-63 -158h-137l55 426h1049l-13 -94l-917 -1077l-2 -17h215q257 0 303.5 50.5t81.5 119.5l65 148h146l-98 -410h-1039l15 92l907 1077v17zM1096 1745l-412 -373h-92l244 373h260z" />
    <glyph glyph-name="zacute" unicode="&#x17a;" horiz-adv-x="874" 
d="M301 727q0 -47 -28.5 -75t-79.5 -32t-82 28t-31 79q0 84 78 153.5t198 77.5q153 0 208.5 -66.5t90.5 -152.5l25 2l55 220q63 4 108.5 -33.5t45.5 -101.5t-53.5 -116.5t-151.5 -72.5l-414 -358q81 -31 195 -113t149 -109l33 31q-49 54 -49 104t30 78.5t80 30.5t79.5 -29.5
t29.5 -81.5q0 -88 -71.5 -157.5t-194.5 -79.5q-133 0 -208 64.5t-118 183.5l-26 -2l-58 -228q-63 -2 -109 35t-46 92q0 147 198 193l424 368q-109 39 -319 203l-33 -31q45 -57 45 -104zM938 1427l-412 -372h-92l244 372h260z" />
    <glyph glyph-name="Zdotaccent" unicode="&#x17b;" horiz-adv-x="1232" 
d="M905 1568.5q0 -61.5 -38 -103.5t-100 -42t-99 42t-37 103.5t37 104.5t99 43t100 -43t38 -104.5zM930 1186h-211q-182 0 -244.5 -32t-112.5 -142l-63 -158h-137l55 426h1049l-13 -94l-917 -1077l-2 -17h215q257 0 303.5 50.5t81.5 119.5l65 148h146l-98 -410h-1039l15 92
l907 1077v17z" />
    <glyph glyph-name="zdotaccent" unicode="&#x17c;" horiz-adv-x="874" 
d="M707 1251.5q0 -61.5 -38.5 -103.5t-100.5 -42t-99 42t-37 103.5t37 104.5t99 43t100.5 -43t38.5 -104.5zM301 727q0 -47 -28.5 -75t-79.5 -32t-82 28t-31 79q0 84 78 153.5t198 77.5q153 0 208.5 -66.5t90.5 -152.5l25 2l55 220q63 4 108.5 -33.5t45.5 -101.5
t-53.5 -116.5t-151.5 -72.5l-414 -358q81 -31 195 -113t149 -109l33 31q-49 54 -49 104t30 78.5t80 30.5t79.5 -29.5t29.5 -81.5q0 -88 -71.5 -157.5t-194.5 -79.5q-133 0 -208 64.5t-118 183.5l-26 -2l-58 -228q-63 -2 -109 35t-46 92q0 147 198 193l424 368
q-109 39 -319 203l-33 -31q45 -57 45 -104z" />
    <glyph glyph-name="Zcaron" unicode="&#x17d;" horiz-adv-x="1232" 
d="M930 1186h-211q-182 0 -244.5 -32t-112.5 -142l-63 -158h-137l55 426h1049l-13 -94l-917 -1077l-2 -17h215q257 0 303.5 50.5t81.5 119.5l65 148h146l-98 -410h-1039l15 92l907 1077v17zM1116 1769l-231 -372h-244l-131 372h90l176 -245h4l244 245h92z" />
    <glyph glyph-name="zcaron" unicode="&#x17e;" horiz-adv-x="868" 
d="M301 727q0 -47 -28.5 -75t-79.5 -32t-82 28t-31 79q0 84 78 153.5t198 77.5q153 0 208.5 -66.5t90.5 -152.5l25 2l55 220q63 4 108.5 -33.5t45.5 -101.5t-53.5 -116.5t-151.5 -72.5l-414 -358q81 -31 195 -113t149 -109l33 31q-49 54 -49 104t30 78.5t80 30.5t79.5 -29.5
t29.5 -81.5q0 -88 -71.5 -157.5t-194.5 -79.5q-133 0 -208 64.5t-118 183.5l-26 -2l-58 -228q-63 -2 -109 35t-46 92q0 147 198 193l424 368q-109 39 -319 203l-33 -31q45 -57 45 -104zM893 1427l-231 -372h-244l-131 372h90l176 -245h4l244 245h92z" />
    <glyph glyph-name="florin" unicode="&#x192;" horiz-adv-x="1105" 
d="M1157 1134q0 -68 -35.5 -110.5t-97.5 -42.5t-101.5 49t-43.5 131l-97 -18q-20 -41 -48.5 -181.5t-35.5 -166.5h260l9 -117h-285q-43 -221 -97.5 -367.5t-142.5 -236.5q-113 -106 -272 -107q-86 0 -144.5 45.5t-58.5 109.5t34 99t91 35t98 -44t48 -114l112 33
q49 123 78 334l27 199l-179 14l7 70l194 63q59 238 172 356q59 63 146 99.5t167 36.5t137.5 -50.5t57.5 -118.5z" />
    <glyph glyph-name="Aringacute" unicode="&#x1fa;" horiz-adv-x="1269" 
d="M874 1417.5q0 57.5 -35.5 98t-95 40.5t-95.5 -40.5t-36 -98t36 -97.5t95.5 -40t95 40t35.5 97.5zM715 520l-78 533h-21l-227 -533h326zM743.5 1622q90.5 0 145.5 -59.5t55 -145.5q0 -117 -86 -170l207 -1061q12 -70 78 -84l78 -18l6 -84h-604l6 84l80 12q53 8 62 42
t-9 116l-29 172h-385l-35 -94q-88 -209 23 -232l74 -16l6 -84h-486l7 84l57 18q66 16 100.5 61.5t120.5 221.5l395 875q-70 59 -68 151t56.5 151.5t145 59.5zM1159 2025l-411 -372h-93l244 372h260z" />
    <glyph glyph-name="aringacute" unicode="&#x1fb;" horiz-adv-x="1081" 
d="M511 831q-44 0 -77 -32q-61 -61 -111.5 -213t-50.5 -252q0 -184 105 -184q61 0 151 129q35 49 150 233l47 162q-37 61 -103.5 109t-110.5 48zM811 1255.5q0 57.5 -36 98.5t-95 41t-95 -41t-36 -98.5t36 -97.5t95 -40t95 40t36 97.5zM760 -33q-43 0 -114 29t-71 55
q0 30 52.5 178t62.5 181h-20q-158 -264 -207 -324q-91 -117 -189 -117t-163.5 73.5t-65.5 213.5t69.5 297.5t176.5 263.5q141 141 281 141t182 -157h16l55 157h211l-123 -370l-108 -459l55 -18l152 104l35 -43q-49 -82 -130 -143.5t-157 -61.5zM881 1255q0 -86 -55.5 -145
t-146.5 -59t-147.5 59t-54.5 145t57.5 145.5t145.5 59.5t145.5 -59.5t55.5 -145.5zM1106 1890l-412 -372h-92l244 372h260z" />
    <glyph glyph-name="AEacute" unicode="&#x1fc;" horiz-adv-x="1792" 
d="M768 549l86 645h-14l-412 -645h340zM219 169q0 -58 62 -69l71 -16l6 -84h-483l6 84l58 18q63 18 108 64.5t143 198.5l449 706q57 92 -35 109l-96 20l-2 80h1284l-55 -422h-142l-22 170q-10 79 -50.5 119.5t-338.5 40.5h-64l-69 -496h22q92 0 133 12.5t62 53.5l69 139h105
l-113 -496h-104l2 131q2 39 -32 53.5t-142 14.5h-15l-67 -508h71q178 0 256 11.5t120 42t77 106.5l70 151h147l-94 -403h-1071l12 80l105 22q47 10 53 50l41 303h-387l-64 -103q-86 -125 -86 -183zM1565 1745l-412 -373h-92l244 373h260z" />
    <glyph glyph-name="aeacute" unicode="&#x1fd;" horiz-adv-x="1415" 
d="M1227 1427l-412 -372h-92l244 372h260zM1198 745q0 37 -54 67t-95 30t-73 -32t-78 -146.5t-62 -243.5h8q203 113 278.5 179.5t75.5 145.5zM500 831q-46 0 -78 -32q-61 -61 -105.5 -202t-44.5 -241t26 -150t58 -50t63.5 22.5t65 71.5t58 90t66.5 114.5t66 117.5t44 75
q-37 76 -105 130t-114 54zM1149 961q117 0 184.5 -57.5t67.5 -147.5q0 -54 -21.5 -80.5t-37 -43t-48 -39t-59.5 -38.5t-78 -43t-89 -46.5t-107.5 -55t-120.5 -62.5v-26q0 -88 50 -144.5t120 -56.5t270 135l33 -43q-88 -113 -179.5 -178.5t-221.5 -65.5t-216 94.5t-90 239.5
v14q-98 -166 -180 -257t-170 -91t-149.5 81.5t-61.5 223.5t64.5 289.5t171.5 253.5q141 141 284 141q80 0 129.5 -64.5t65.5 -168.5q170 236 389 236z" />
    <glyph glyph-name="Oslashacute" unicode="&#x1fe;" horiz-adv-x="1464" 
d="M1182 1745l-412 -373h-92l244 373h260zM1133 778q0 174 -70 287l-539 -926q88 -73 186 -73t195 69t162.5 269t65.5 374zM401 514q0 -196 70 -305l539 928q-70 75 -188 75t-201.5 -76.5t-151.5 -251t-68 -370.5zM715 -31q-147 0 -258 51l-101 -172h-94l121 209
q-127 78 -198.5 210t-69.5 296q0 307 192 516q211 227 512 228q139 0 258 -52l90 154h97q-113 -190 -113 -192q127 -76 198.5 -208t69.5 -296q0 -317 -227 -549q-188 -195 -477 -195z" />
    <glyph glyph-name="oslashacute" unicode="&#x1ff;" horiz-adv-x="985" 
d="M922 1427l-412 -372h-92l244 372h260zM559 868q-84 0 -181 -161t-95 -410q0 -45 10 -96l360 620q-41 47 -94 47zM690 733q-358 -623 -360 -622q39 -49 94 -50q86 0 154.5 116t103.5 274q35 157 8 282zM559 961q84 0 156 -33l170 297h90l-195 -336q140 -109 140 -339
t-143.5 -405.5t-350.5 -175.5q-92 0 -158 33l-153 -266h-88q41 73 83 145t66 115l27 45q-139 115 -139 341t145 402.5t350 176.5z" />
    <glyph glyph-name="Scommaaccent" unicode="&#x218;" horiz-adv-x="1095" 
d="M983 375q0 -184 -143.5 -295t-359.5 -111t-433 68l35 393l131 -2l63 -307q100 -45 220 -45t181.5 54t62.5 145t-71.5 149.5t-216.5 136.5q-145 78 -218.5 158.5t-73.5 228.5t138 253.5t335 105.5q127 0 323 -47l113 34l-55 -420l-129 5l-43 274q-110 45 -214 45
t-164.5 -46t-60.5 -104t17.5 -96.5t61.5 -75t82 -59t112 -63.5q154 -80 230.5 -163t76.5 -216zM625 -311q-41 -182 -332 -273l-29 56q166 50 184 145q10 49 -7 81t-41.5 47t-45 27.5t-20.5 14.5q8 45 54 79t112 27t103.5 -66.5t21.5 -137.5z" />
    <glyph glyph-name="scommaaccent" unicode="&#x219;" horiz-adv-x="784" 
d="M778 786q0 -59 -33 -94t-85 -35t-81.5 32t-29.5 69t12 59q-82 45 -168 51q-29 -18 -55.5 -56t-28.5 -58t7.5 -41t30 -44.5t36.5 -41t46 -45t39 -36.5t33.5 -33t32 -31t29 -27.5t28.5 -29.5t22.5 -27.5t21.5 -30t21.5 -36.5t15.5 -85q-4 -121 -119 -199t-251 -78t-224 43
t-88 138q0 57 34 91.5t86 34.5t80.5 -31.5t28.5 -68.5t-12 -59q100 -49 194 -54q27 18 52.5 58.5t26.5 60.5t-2 33.5t-13 29t-30.5 38t-102.5 96.5q-83 75 -118.5 112t-66 91.5t-28.5 105.5q6 129 115.5 201t248.5 72q295 -1 295 -175zM394.5 -172.5q37.5 -58.5 17.5 -144.5
t-106.5 -154t-211.5 -102l-33 49q158 45 183 153q18 91 -48.5 125.5t-66.5 36.5q10 47 53 78t109 24t103.5 -65.5z" />
    <glyph glyph-name="uni021A" unicode="&#x21a;" horiz-adv-x="1312" 
d="M602 1188q-139 0 -195.5 -29t-103.5 -133l-72 -176h-147l92 430h1184l-55 -430h-134l-22 170q-14 104 -64.5 135t-191.5 33h-12l-138 -1034q-6 -39 41 -50l123 -22l6 -82h-626l6 82l127 22q49 8 53 50l137 1034h-8zM717 -311q-41 -182 -332 -273l-29 56q166 50 184 145
q10 49 -7 81t-41.5 47t-45 27.5t-20.5 14.5q8 45 54 79t112 27t103.5 -66.5t21.5 -137.5z" />
    <glyph glyph-name="uni021B" unicode="&#x21b;" horiz-adv-x="677" 
d="M262 -33q-41 0 -114.5 30t-67.5 50l158 737l-168 17l6 69l190 76l51 266h222l-62 -294h258l6 -117h-284l-152 -672l57 -18l150 104l37 -43q-49 -82 -130 -143.5t-157 -61.5zM367 -317q-41 -182 -332 -273l-29 55q166 50 184 146q10 49 -7 81t-41.5 47t-45 27.5
t-20.5 14.5q8 45 54 79t112 26t103.5 -66.5t21.5 -136.5z" />
    <glyph glyph-name="dotlessj" unicode="&#x237;" horiz-adv-x="546" 
d="M387 928q20 0 36.5 -184.5t10.5 -204.5q-145 -643 -213 -711q-80 -219 -213 -297q-59 -31 -117.5 -33t-99.5 27q-53 23 -71.5 64.5t1.5 84.5q53 66 136 13q37 0 67.5 -28t34.5 -67q2 4 40.5 74t68.5 201q10 29 59 256t55 250l72 426l-117 -72l-71 -49q2 6 11 25.5
t13 29.5t18.5 37t28.5 44t33 17q37 45 105.5 76t111.5 21z" />
    <glyph glyph-name="circumflex" unicode="&#x2c6;" horiz-adv-x="819" 
d="M770 1055h-94l-176 245h-4l-242 -245h-94l233 372h242z" />
    <glyph glyph-name="caron" unicode="&#x2c7;" horiz-adv-x="819" 
d="M817 1427l-231 -372h-244l-131 372h90l176 -245h4l244 245h92z" />
    <glyph glyph-name="breve" unicode="&#x2d8;" horiz-adv-x="819" 
d="M463 1044q-133 0 -190.5 100.5t-65.5 282.5h90q29 -119 69 -182t113.5 -63t133 64.5t122.5 180.5h88q-102 -383 -360 -383z" />
    <glyph glyph-name="dotaccent" unicode="&#x2d9;" horiz-adv-x="819" 
d="M645 1251.5q0 -61.5 -38 -103.5t-100 -42t-99 42t-37 103.5t36.5 104.5t98.5 43t100.5 -43t38.5 -104.5z" />
    <glyph glyph-name="ring" unicode="&#x2da;" horiz-adv-x="819" 
d="M641 1255.5q0 57.5 -36 98.5t-95 41t-95 -41t-36 -98.5t36 -97.5t95 -40t95 40t36 97.5zM711 1255q0 -86 -55.5 -145t-146.5 -59t-147.5 59t-54.5 145t57.5 145.5t145.5 59.5t145.5 -59.5t55.5 -145.5z" />
    <glyph glyph-name="ogonek" unicode="&#x2db;" horiz-adv-x="819" 
d="M286 -487q-108 0 -172.5 54t-64.5 150t95.5 185.5t238.5 140.5h115q-141 -63 -217 -146t-76 -145q0 -128 139 -129q78 0 164 43l14 -53q-128 -100 -236 -100z" />
    <glyph glyph-name="tilde" unicode="&#x2dc;" horiz-adv-x="819" 
d="M312 1217q-32 0 -52 -27t-57 -100h-88q63 276 245 276q68 0 165 -71.5t129 -71.5t57.5 27.5t60.5 97.5h86q-66 -276 -248 -277q-68 0 -167 73t-131 73z" />
    <glyph glyph-name="hungarumlaut" unicode="&#x2dd;" horiz-adv-x="819" 
d="M674 1427l-398 -372h-86l240 372h244zM1034 1427l-397 -372h-84l238 372h243z" />
    <glyph glyph-name="Wgrave" unicode="&#x1e80;" horiz-adv-x="1908" 
d="M1247 1372h-94l-309 373h260zM2060 1280l-6 -84l-61 -18q-72 -20 -117 -72.5t-119 -210.5l-381 -895h-233l-115 788h-14l-359 -788h-235l-193 1094q-8 39 -24.5 57t-52.5 27l-84 18l-7 84h617l-6 -84l-86 -12q-78 -10 -54 -158l107 -795h14l324 730l-21 133
q-4 37 -21.5 56t-55.5 28l-84 18l-7 84h615l-6 -84l-86 -12q-45 -6 -56.5 -42t2.5 -116l105 -793h16l266 676q57 135 55.5 195.5t-61.5 75.5l-61 16l-6 84h491z" />
    <glyph glyph-name="wgrave" unicode="&#x1e81;" horiz-adv-x="1499" 
d="M979 1055h-94l-310 372h261zM262 961q45 0 122 -30t77 -54l6 -762h18l289 651l-10 195l223 -41l33 -805h20l195 383q70 135 70 183t-39 86t-101 50q16 63 63.5 104.5t113.5 41.5t112.5 -46.5t45.5 -113.5t-30.5 -137t-61.5 -120t-114 -171l-241 -367l-246 -39l-12 627
h-17l-268 -588l-262 -39l-21 826l-59 12l-131 -148l-41 46q45 98 118.5 177t147.5 79z" />
    <glyph glyph-name="Wacute" unicode="&#x1e82;" horiz-adv-x="1908" 
d="M2060 1280l-6 -84l-61 -18q-72 -20 -117 -72.5t-119 -210.5l-381 -895h-233l-115 788h-14l-359 -788h-235l-193 1094q-8 39 -24.5 57t-52.5 27l-84 18l-7 84h617l-6 -84l-86 -12q-78 -10 -54 -158l107 -795h14l324 730l-21 133q-4 37 -21.5 56t-55.5 28l-84 18l-7 84h615
l-6 -84l-86 -12q-45 -6 -56.5 -42t2.5 -116l105 -793h16l266 676q57 135 55.5 195.5t-61.5 75.5l-61 16l-6 84h491zM1468 1745l-411 -373h-92l243 373h260z" />
    <glyph glyph-name="wacute" unicode="&#x1e83;" horiz-adv-x="1499" 
d="M262 961q45 0 122 -30t77 -54l6 -762h18l289 651l-10 195l223 -41l33 -805h20l195 383q70 135 70 183t-39 86t-101 50q16 63 63.5 104.5t113.5 41.5t112.5 -46.5t45.5 -113.5t-30.5 -137t-61.5 -120t-114 -171l-241 -367l-246 -39l-12 627h-17l-268 -588l-262 -39
l-21 826l-59 12l-131 -148l-41 46q45 98 118.5 177t147.5 79zM1266 1427l-412 -372h-92l244 372h260z" />
    <glyph glyph-name="Wdieresis" unicode="&#x1e84;" horiz-adv-x="1908" 
d="M2060 1280l-6 -84l-61 -18q-72 -20 -117 -72.5t-119 -210.5l-381 -895h-233l-115 788h-14l-359 -788h-235l-193 1094q-8 39 -24.5 57t-52.5 27l-84 18l-7 84h617l-6 -84l-86 -12q-78 -10 -54 -158l107 -795h14l324 730l-21 133q-4 37 -21.5 56t-55.5 28l-84 18l-7 84h615
l-6 -84l-86 -12q-45 -6 -56.5 -42t2.5 -116l105 -793h16l266 676q57 135 55.5 195.5t-61.5 75.5l-61 16l-6 84h491zM1020 1558.5q0 -59.5 -36 -100.5t-97.5 -41t-98 41t-36.5 100.5t36.5 101.5t98 42t97.5 -42t36 -101.5zM1458 1558.5q0 -59.5 -36 -100.5t-97 -41t-97 41
t-36 100.5t36 101.5t97 42t97 -42t36 -101.5z" />
    <glyph glyph-name="wdieresis" unicode="&#x1e85;" horiz-adv-x="1499" 
d="M262 961q45 0 122 -30t77 -54l6 -762h18l289 651l-10 195l223 -41l33 -805h20l195 383q70 135 70 183t-39 86t-101 50q16 63 63.5 104.5t113.5 41.5t112.5 -46.5t45.5 -113.5t-30.5 -137t-61.5 -120t-114 -171l-241 -367l-246 -39l-12 627h-17l-268 -588l-262 -39
l-21 826l-59 12l-131 -148l-41 46q45 98 118.5 177t147.5 79zM801 1241q0 -59 -36 -100t-97.5 -41t-98.5 41t-37 100t37 101t98.5 42t97.5 -42t36 -101zM1239 1241q0 -59 -36 -100t-97.5 -41t-97 41t-35.5 100t35.5 101t97 42t97.5 -42t36 -101z" />
    <glyph glyph-name="thinspace" unicode="&#x2009;" horiz-adv-x="155" 
 />
    <glyph glyph-name="endash" unicode="&#x2013;" horiz-adv-x="962" 
d="M907 440h-844l7 123h831z" />
    <glyph glyph-name="emdash" unicode="&#x2014;" horiz-adv-x="1925" 
d="M1870 440h-1807l7 123h1794z" />
    <glyph glyph-name="quoteleft" unicode="&#x2018;" horiz-adv-x="495" 
d="M330 1018q0 -97 125 -174q-6 -51 -52.5 -90t-120.5 -39t-126 57t-52 137q0 127 121 247t314 204l41 -49q-104 -57 -177 -137t-73 -156z" />
    <glyph glyph-name="quoteright" unicode="&#x2019;" horiz-adv-x="495" 
d="M524 1145q0 -121 -108.5 -231.5t-276.5 -196.5l-51 49q98 55 162.5 128t64.5 150t-45.5 110t-95.5 65q0 51 47 91t120 40t128 -60.5t55 -144.5z" />
    <glyph glyph-name="quotesinglbase" unicode="&#x201a;" horiz-adv-x="495" 
d="M358 78q0 -121 -108.5 -231.5t-276.5 -196.5l-51 49q98 55 163 128t65 144q0 99 -127 172l-15 9q0 51 47 91t120 40t128 -60.5t55 -144.5z" />
    <glyph glyph-name="quotedblleft" unicode="&#x201c;" horiz-adv-x="937" 
d="M457 844q0 -49 -48.5 -89t-120.5 -40t-128 60.5t-56 144.5q0 121 109 230.5t279 197.5l49 -50q-98 -57 -162 -129.5t-64 -144.5q0 -100 71 -139t71 -41zM911 844q0 -49 -47.5 -89t-119.5 -40t-127.5 60.5t-55.5 144.5q0 227 385 428l51 -50q-98 -57 -161.5 -129.5
t-63.5 -144.5q0 -99 69.5 -138.5t69.5 -41.5z" />
    <glyph glyph-name="quotedblright" unicode="&#x201d;" horiz-adv-x="937" 
d="M322 1038q0 97 -140 181q0 51 47 91t119 40t128 -60.5t56 -144.5q0 -121 -108.5 -231.5t-278.5 -196.5l-49 49q96 53 161 127t65 145zM987 1145q0 -121 -108.5 -231.5t-276.5 -196.5l-49 49q96 55 160.5 128t64.5 150t-45.5 110t-95.5 65q0 51 47 91t120 40t128 -60.5
t55 -144.5z" />
    <glyph glyph-name="quotedblbase" unicode="&#x201e;" horiz-adv-x="937" 
d="M156 -29q0 97 -140 181q0 51 47 91t119 40t128.5 -60.5t56.5 -144.5q0 -121 -108.5 -231.5t-278.5 -196.5l-50 49q96 53 161 127t65 145zM821 78q0 -121 -108.5 -231.5t-276.5 -196.5l-49 49q96 55 160.5 128t64.5 141t-40.5 106.5t-100.5 77.5q0 51 47 91t120 40
t128 -60.5t55 -144.5z" />
    <glyph glyph-name="dagger" unicode="&#x2020;" horiz-adv-x="962" 
d="M584 795v-1112h-92v1112h-367l-8 94h375v393h92v-393h377l-9 -94h-368z" />
    <glyph glyph-name="daggerdbl" unicode="&#x2021;" horiz-adv-x="962" 
d="M586 41v-358h-90v358h-375l8 92h367v692h-367l-8 93h375v364h90v-364h377l-9 -93h-368v-692h368l9 -92h-377z" />
    <glyph glyph-name="bullet" unicode="&#x2022;" horiz-adv-x="931" 
d="M860 475q0 -45 -41 -146t-73 -133t-134 -74t-146 -42t-146.5 42t-132.5 74t-72.5 134t-42.5 146t43 145.5t73.5 132t133 72.5t146.5 42t145.5 -42t132 -72.5t72.5 -132t42 -146.5z" />
    <glyph glyph-name="ellipsis" unicode="&#x2026;" horiz-adv-x="1425" 
d="M354 128q0 -64 -46 -112.5t-112 -48.5t-112.5 47t-46.5 113t46 112t113.5 46t112.5 -46.5t45 -110.5zM829 128q0 -64 -46.5 -112.5t-112.5 -48.5t-112 47t-46 113t46 112t113.5 46t112.5 -46.5t45 -110.5zM1305 128q0 -64 -46.5 -112.5t-112.5 -48.5t-112.5 47t-46.5 113
t46 112t113.5 46t113 -46.5t45.5 -110.5z" />
    <glyph glyph-name="perthousand" unicode="&#x2030;" horiz-adv-x="2306" 
d="M1384 314q0 106 -66 169.5t-170 63.5t-181.5 -86.5t-77.5 -192.5t64.5 -167.5t168.5 -61.5t183 84.5t79 190.5zM2165 314q0 106 -66.5 169.5t-170.5 63.5t-181.5 -86.5t-77.5 -192.5t64.5 -167.5t168.5 -61.5t183.5 84.5t79.5 190.5zM696 998q0 108 -64 172.5t-170 64.5
t-183.5 -86.5t-77.5 -192.5t65.5 -167.5t171.5 -61.5t182 81.5t76 189.5zM1483 326q0 -148 -110.5 -260.5t-258.5 -112.5t-235.5 82.5t-87.5 230.5t107.5 259.5t253.5 111.5t238.5 -81.5t92.5 -229.5zM2263 326q0 -148 -110.5 -260.5t-258.5 -112.5t-235.5 82.5t-87.5 230.5
t107.5 259.5t253.5 111.5t238.5 -81.5t92.5 -229.5zM1493 1309l-1290 -1340h-121l1290 1340h121zM799 1012q0 -148 -109.5 -259.5t-255.5 -111.5t-239 84.5t-93 230.5t110 257.5t255 111.5t238.5 -82.5t93.5 -230.5z" />
    <glyph glyph-name="guilsinglleft" unicode="&#x2039;" horiz-adv-x="614" 
d="M512 127l-27 -43l-438 315v115l533 324l18 -43l-371 -342z" />
    <glyph glyph-name="guilsinglright" unicode="&#x203a;" horiz-adv-x="614" 
d="M569 391l-518 -315l-18 43l338 334l-254 333l26 43l439 -315z" />
    <glyph glyph-name="fraction" unicode="&#x2044;" horiz-adv-x="1075" 
d="M1081 1307l-958 -1338h-129l960 1338h127z" />
    <glyph glyph-name="zerosuperior" unicode="&#x2070;" horiz-adv-x="675" 
d="M295 594q61 0 103 200.5t42 370.5q0 131 -64 131t-105.5 -204.5t-41.5 -376.5q0 -121 66 -121zM297 541q-274 0 -274 286q0 171 56 293.5t129 175t167 52.5q143 0 208.5 -81t65.5 -234t-55 -271.5t-128 -169.5t-169 -51z" />
    <glyph glyph-name="foursuperior" unicode="&#x2074;" horiz-adv-x="675" 
d="M102 850h252l52 311h-15zM311 559l35 209h-334l-6 70l486 522l126 -37l-73 -473h133l-19 -82h-122l-35 -209h-191z" />
    <glyph glyph-name="fivesuperior" unicode="&#x2075;" horiz-adv-x="675" 
d="M256 535q-66 0 -118 9t-94 41.5t-42 78.5t26.5 72t65.5 26q123 0 123 -164q12 -4 41 -4q158 0 158 131q0 82 -82 127t-244 72l160 409h426l-21 -159h-385l-39 -103q362 -61 363 -258q0 -121 -104.5 -199.5t-233.5 -78.5z" />
    <glyph glyph-name="sixsuperior" unicode="&#x2076;" horiz-adv-x="675" 
d="M319 600q39 0 79 60.5t40 160.5q0 143 -80 144q-35 0 -88 -43q-25 -61 -24 -152q-1 -170 73 -170zM318 539q-132 0 -209.5 93t-77.5 224q0 173 106.5 280t238.5 156t306 60l16 -56q-354 -55 -440 -325h6q90 84 186 84t149.5 -56.5t53.5 -160.5t-101.5 -201.5
t-233.5 -97.5z" />
    <glyph glyph-name="sevensuperior" unicode="&#x2077;" horiz-adv-x="675" 
d="M453 1182q-166 0 -209 -8.5t-68 -36.5l-57 -74h-60l78 270h600v-45l-497 -741h-160l481 635h-108z" />
    <glyph glyph-name="eightsuperior" unicode="&#x2078;" horiz-adv-x="675" 
d="M314 602q124 0 124 105q0 42 -34 85.5t-144 98.5q-76 -51 -76 -152q0 -61 36 -99t94 -38zM358 1288q-54 0 -85 -27.5t-31 -66.5t11 -57.5t16 -27.5t19.5 -20.5t20.5 -17.5t24.5 -16.5t23.5 -13.5t26 -14t23 -13q68 51 67 143q0 55 -30.5 93t-84.5 38zM623 782
q0 -111 -99.5 -174t-221.5 -63t-214 48t-92 131t57.5 136t136.5 66v4q-127 76 -127 182t91.5 172t213.5 66t206.5 -47.5t82.5 -141.5q4 -141 -188 -178v-2q154 -88 154 -199z" />
    <glyph glyph-name="ninesuperior" unicode="&#x2079;" horiz-adv-x="675" 
d="M346 924q35 0 88 43q25 57 25 151q0 168 -76 168q-35 0 -75 -59.5t-40 -159.5q0 -143 78 -143zM51 1036q0 121 100.5 216.5t234.5 95.5t212 -92.5t78 -225.5q0 -167 -106.5 -277t-239.5 -159t-307 -57l-19 53q182 31 293 116t149 209h-4q-92 -81 -187 -81t-149.5 56
t-54.5 146z" />
    <glyph glyph-name="plussuperior" unicode="&#x207a;" horiz-adv-x="675" 
d="M379 909v-221h-68v221h-223l4 68h219v223h68v-223h217l4 -68h-221z" />
    <glyph glyph-name="minussuperior" unicode="&#x207b;" horiz-adv-x="675" 
d="M614 911h-512l2 68h506z" />
    <glyph glyph-name="zeroinferior" unicode="&#x2080;" horiz-adv-x="675" 
d="M295 -258q61 0 103 200.5t42 370.5q0 131 -64 131t-105.5 -204.5t-41.5 -376.5q0 -121 66 -121zM297 -311q-274 0 -274 286q0 171 56 293.5t129 175t167 52.5q143 0 208.5 -81t65.5 -234t-55 -271.5t-128 -169.5t-169 -51z" />
    <glyph glyph-name="oneinferior" unicode="&#x2081;" horiz-adv-x="675" 
d="M53 -293l4 70l123 14q33 2 37 29l76 522l-148 25l11 49l372 88l-98 -684q-4 -25 25 -29l88 -14l4 -70h-494z" />
    <glyph glyph-name="twoinferior" unicode="&#x2082;" horiz-adv-x="675" 
d="M-18 -293v82q45 37 157.5 121.5t192.5 162.5t80 179q0 53 -39 83t-86 30q-98 0 -219 -84l-15 34q49 66 142 123.5t197 57.5t170.5 -55.5t66.5 -147.5q0 -115 -135 -216.5t-338 -221.5v-9h86q162 0 206 4.5t62 22.5l41 57h57l-78 -223h-548z" />
    <glyph glyph-name="threeinferior" unicode="&#x2083;" horiz-adv-x="675" 
d="M233 -262q70 0 111 58.5t41 140.5q0 104 -98 104q-20 0 -86 -18l-25 53q182 88 218 122t36 76t-36 65t-85 23q-106 0 -219 -94l-14 37q72 90 166 140.5t186 50.5t157.5 -42t65.5 -104t-19.5 -86t-30.5 -38.5t-36.5 -29t-39 -22.5t-45 -20.5t-43 -16.5t-47.5 -15t-42 -13
v-13q55 18 103 19q158 0 157 -160q0 -119 -117 -199t-260 -80q-78 0 -157.5 35t-79.5 105q0 35 26.5 61.5t63.5 26.5q63 0 90 -50.5t23 -111.5q24 -4 36 -4z" />
    <glyph glyph-name="fourinferior" unicode="&#x2084;" horiz-adv-x="675" 
d="M102 -2h252l52 311h-15zM311 -293l35 209h-334l-6 70l486 522l126 -37l-73 -473h133l-19 -82h-122l-35 -209h-191z" />
    <glyph glyph-name="fiveinferior" unicode="&#x2085;" horiz-adv-x="675" 
d="M256 -317q-66 0 -118 9t-94 42t-42 78t26.5 71.5t65.5 26.5q123 0 123 -164q12 -4 41 -4q158 0 158 131q0 82 -82 127t-244 72l160 409h426l-21 -159h-385l-39 -103q362 -61 363 -258q0 -121 -104.5 -199.5t-233.5 -78.5z" />
    <glyph glyph-name="sixinferior" unicode="&#x2086;" horiz-adv-x="675" 
d="M319 -252q39 0 79 60.5t40 160.5q0 143 -80 144q-35 0 -88 -43q-25 -61 -24 -152q-1 -170 73 -170zM318 -313q-132 0 -209.5 93t-77.5 224q0 173 106.5 280t238.5 156t306 60l16 -56q-354 -55 -440 -325h6q90 84 186 84t149.5 -56.5t53.5 -160.5t-101.5 -201.5
t-233.5 -97.5z" />
    <glyph glyph-name="seveninferior" unicode="&#x2087;" horiz-adv-x="675" 
d="M453 330q-166 0 -209 -8.5t-68 -36.5l-57 -74h-60l78 270h600v-45l-497 -741h-160l481 635h-108z" />
    <glyph glyph-name="eightinferior" unicode="&#x2088;" horiz-adv-x="675" 
d="M314 -250q124 0 124 105q0 42 -34 85.5t-144 98.5q-76 -51 -76 -152q0 -61 36 -99t94 -38zM358 436q-54 0 -85 -27.5t-31 -66.5t11 -57.5t16 -27.5t19.5 -20.5t20.5 -17.5t24.5 -16t23.5 -13.5t26 -14.5t23 -13q68 51 67 143q0 55 -30.5 93t-84.5 38zM623 -70
q0 -111 -99.5 -174t-221.5 -63t-214 48t-92 131t57.5 136t136.5 66v4q-127 76 -127 182t91.5 172t213.5 66t206.5 -47.5t82.5 -141.5q4 -141 -188 -178v-2q154 -88 154 -199z" />
    <glyph glyph-name="nineinferior" unicode="&#x2089;" horiz-adv-x="675" 
d="M346 72q35 0 88 43q25 57 25 151q0 168 -76 168q-35 0 -75 -59.5t-40 -159.5q0 -143 78 -143zM51 184q0 121 100.5 216.5t234.5 95.5t212 -92.5t78 -225.5q0 -167 -106.5 -277t-239.5 -159t-307 -57l-19 53q182 31 293 116t149 209h-4q-92 -81 -187 -81t-149.5 56
t-54.5 146z" />
    <glyph glyph-name="Euro" unicode="&#x20ac;" horiz-adv-x="1062" 
d="M692 121q133 0 275 117l28 -41q-59 -100 -164.5 -164t-224.5 -64q-197 0 -313.5 132t-138.5 341h-134l7 97h123v12q4 82 14 145h-111l6 97h127q66 221 223.5 359t368.5 138q143 0 225.5 -51t84.5 -117t-31 -104.5t-90 -38.5t-95 54t-34 130q-45 33 -111 33
q-117 0 -204 -108.5t-124 -294.5h414l6 -97h-436q-8 -90 -8 -135v-22h405l6 -97h-403q20 -154 98 -237.5t211 -83.5z" />
    <glyph glyph-name="trademark" unicode="&#x2122;" horiz-adv-x="1918" 
d="M831 1280v-297h-83l-11 39q-33 121 -63.5 156.5t-122.5 35.5h-2v-593q0 -23 24 -29l80 -12l4 -62h-385l4 62l80 12q27 6 27 29v593h-2q-80 0 -114 -38.5t-68 -153.5l-13 -39h-77l16 297h706zM1931 518h-370l2 62l67 14q16 4 21.5 25.5t3.5 95.5l-10 475h-21l-199 -647
h-139l-153 653h-21l-12 -399q-4 -135 -1 -168t23 -39l66 -10l4 -62h-285l4 62l62 10q25 4 34 39t13 168l12 379q0 27 -24 30l-72 13l-4 61h348l113 -557h20l160 557h344l-4 -61l-68 -13q-29 -6 -28 -30l8 -461q2 -72 11 -94.5t30 -26.5l61 -14z" />
    <glyph glyph-name="minus" unicode="&#x2212;" horiz-adv-x="983" 
d="M905 422h-829l6 117h817z" />
    <glyph glyph-name="uni2215" unicode="&#x2215;" horiz-adv-x="1075" 
d="M1081 1307l-958 -1338h-129l960 1338h127z" />
    <glyph glyph-name="approxequal" unicode="&#x2248;" horiz-adv-x="983" 
d="M317 324q-31 0 -48 -4.5t-41.5 -32t-43.5 -82.5h-102q20 109 81 172t131 63t199.5 -67.5t166.5 -67.5t54 4t41.5 32t43.5 83h102q-20 -109 -80.5 -172.5t-138.5 -63.5t-206 68t-159 68zM317 666q-31 0 -48 -4.5t-41.5 -32t-43.5 -82.5h-102q20 109 81 172t131 63
t199.5 -67.5t166.5 -67.5t54 4t41.5 32t43.5 83h102q-20 -109 -80.5 -172.5t-138.5 -63.5t-206 68t-159 68z" />
    <glyph glyph-name="notequal" unicode="&#x2260;" horiz-adv-x="983" 
d="M287 -47l84 295h-291l6 117h317l66 231h-383l-6 117h422l78 274h114l-78 -274h287l-6 -117h-313l-66 -231h379l6 -117h-418l-84 -295h-114z" />
    <glyph glyph-name="lessequal" unicode="&#x2264;" horiz-adv-x="983" 
d="M918 4h-852l6 117h839zM274 553l629 -262l-29 -105l-808 340v74l808 340l29 -104l-629 -263v-20z" />
    <glyph glyph-name="greaterequal" unicode="&#x2265;" horiz-adv-x="983" 
d="M918 4h-852l6 117h839zM80 291l629 262v20l-629 263l29 104l809 -340v-74l-809 -340z" />
    <glyph glyph-name="pcircle" unicode="&#x24df;" horiz-adv-x="1572" 
d="M971 784q0 78 -47 121t-121 43h-58v-327q53 -8 80 -9q68 0 107 47t39 125zM1135 798q0 -108 -87 -180.5t-214 -72.5q-47 0 -89 6v-180q0 -20 29 -27l74 -14l4 -70h-358l4 70l59 14q27 6 27 27v536q0 20 -27 27l-59 16l-4 68h331q154 0 232 -56t78 -164zM1417 638
q0 263 -185 451.5t-445.5 188.5t-445.5 -188.5t-185 -451.5t185 -450.5t445.5 -187.5t445.5 187.5t185 450.5zM1501 638q0 -298 -209 -506t-506 -208t-505.5 208t-208.5 506t208.5 508t505.5 210t506 -210t209 -508z" />
    <glyph glyph-name="commaaccent" unicode="&#xf6c3;" horiz-adv-x="819" 
d="M366 -172.5q38 -58.5 18 -144.5t-107 -154t-211 -102l-33 49q158 45 182 153q18 91 -48.5 125.5t-66.5 36.5q10 47 53 78t109 24t104 -65.5z" />
    <glyph glyph-name="J.alt" horiz-adv-x="1058" 
d="M388 -31q-177 0 -291.5 82t-114.5 209q0 70 46 116t105 44t97 -37t38 -101t-57 -114q23 -43 72 -71.5t98 -28.5q190 0 229 299l99 761q4 41 -41 50l-138 22l-6 80h611l-7 -80l-114 -22q-45 -8 -51 -50l-103 -741q-29 -209 -162 -313.5t-310 -104.5z" />
    <glyph glyph-name="germandbls.alt1" horiz-adv-x="1259" 
d="M973 1246q0 -66 -36 -106t-94 -40t-98 55t-53 141l-129 -22q-31 -86 -82 -356l-143 -728q-88 -444 -229 -587q-104 -106 -256 -107q-86 0 -144.5 46t-58.5 110t33 98.5t91 34.5t98 -48t48 -120l109 33q31 78 77 344l121 792l-174 15l6 69l197 64q47 229 175 357t314 128
q100 0 164 -53.5t64 -119.5zM779 -31q-136 0 -220 43t-84 138q0 59 34 92.5t86 33.5t81 -31.5t29 -68.5t-13 -59q90 -45 207 -51q20 16 41 57t22 62t-6.5 40t-32.5 47.5t-137.5 131.5t-150.5 161q-39 57 -35 119q6 135 111.5 206t246.5 71q295 0 295 -175q0 -57 -32.5 -92
t-84.5 -35t-82 32t-30 68t12 58q-84 45 -180 51q-25 -20 -44 -56t-21 -57t7 -41t28.5 -43.5t36 -41t46 -45t41.5 -39.5t38 -36t28 -27l31 -30q28 -28 36.5 -39.5t39 -48t30.5 -110.5q-6 -131 -122 -208t-252 -77z" />
    <glyph glyph-name="Jcircumflex.alt" horiz-adv-x="1058" 
d="M388 -31q-177 0 -291.5 82t-114.5 209q0 70 46 116t105 44t97 -37t38 -101t-57 -114q23 -43 72 -71.5t98 -28.5q190 0 229 299l99 761q4 41 -41 50l-138 22l-6 80h611l-7 -80l-114 -22q-45 -8 -51 -50l-103 -741q-29 -209 -162 -313.5t-310 -104.5zM1147 1372h-94
l-176 246h-5l-241 -246h-94l233 373h242z" />
    <glyph glyph-name="dot" horiz-adv-x="475" 
d="M379 488q0 -64 -46 -111t-113 -47t-113 46t-46 111.5t46.5 111.5t114 46t112.5 -46.5t45 -110.5z" />
    <glyph glyph-name="a.smallcap" horiz-adv-x="1028" 
d="M575 381l-75 395h-25l-184 -395h284zM291 0h-373l10 80l35 8q61 14 98 58t127 225l252 506l2 49l250 53l176 -829q6 -41 76 -60l43 -10v-80h-489l10 80l47 8q51 10 59.5 32.5t-10.5 117.5l-12 65h-336l-25 -53q-25 -66 -31.5 -93.5t3.5 -43t43 -23.5l45 -10v-80z" />
    <glyph glyph-name="b.smallcap" horiz-adv-x="1067" 
d="M737 699q0 83 -52 129t-157 46h-45l-47 -354l99 2q90 2 146 48t56 129zM713 267q0 87 -57.5 134.5t-153.5 47.5h-76l-45 -347l63 -22h62q90 0 148.5 50t58.5 137zM963 262q0 -96 -70 -162q-98 -100 -365 -100h-505l12 80l69 18q35 8 39 35l90 688q4 27 -30 35l-64 18
l-2 80h492q358 0 358 -219q0 -96 -80 -155.5t-200 -77.5v-15q109 -12 182.5 -70.5t73.5 -154.5z" />
    <glyph glyph-name="c.smallcap" horiz-adv-x="1155" 
d="M541 -27q-219 0 -344 116t-125 332t169 385t418 169q145 0 263 -39l151 37l-49 -352h-139l-43 223q-61 47 -164 47q-158 0 -252 -144.5t-94 -336.5t94 -287q62 -63 156 -63t153 32l119 232h143l-71 -324l-105 20q-125 -47 -280 -47z" />
    <glyph glyph-name="d.smallcap" horiz-adv-x="1173" 
d="M836 504q0 180 -80 274t-219 94h-56l-100 -759l106 -29q156 -4 252.5 118t96.5 302zM1100 518q0 -198 -167 -358t-472 -160h-438l12 80l69 18q35 8 39 35l90 688q4 27 -30 35l-64 18l-6 80l461 2q231 2 368.5 -119t137.5 -319z" />
    <glyph glyph-name="e.smallcap" horiz-adv-x="1089" 
d="M582 872h-101l-45 -356h51q109 0 138 53l53 107h92l-88 -383h-90l-4 96q-2 33 -24.5 44t-92.5 11h-45l-47 -362h100q166 0 229.5 23.5t98.5 103.5l45 113h135l-72 -322h-892l12 80l69 18q35 8 39 35l90 688q4 27 -30 35l-64 18l-6 80h918l-43 -327h-125l-17 118
q-10 82 -63 104.5t-221 22.5z" />
    <glyph glyph-name="f.smallcap" horiz-adv-x="1056" 
d="M565 872h-82l-51 -376h57q59 0 91 9t49 44l51 104h94l-88 -383h-90l-4 97q-2 33 -24.5 44t-92.5 11h-51l-39 -289q-4 -29 29 -35l94 -18l-2 -80h-483l12 80l69 18q35 8 39 35l90 688q4 27 -30 35l-64 18l-6 80h901l-41 -327h-125l-16 118q-12 82 -65.5 104.5t-221.5 22.5
z" />
    <glyph glyph-name="g.smallcap" horiz-adv-x="1183" 
d="M570 -27q-238 0 -368 116t-130 333t168 381q168 172 419 172q145 0 263 -39l151 37l-49 -352h-139l-43 223q-61 47 -164 47q-158 0 -252 -144.5t-94 -338.5t94 -287q60 -63 146 -63t128 20l29 225q2 29 -37 37l-63 18l-4 80h469l-9 -80l-75 -18q-35 -6 -41 -37l-25 -186
l90 -11l2 -59q-228 -74 -466 -74z" />
    <glyph glyph-name="h.smallcap" horiz-adv-x="1253" 
d="M1116 0h-459l7 80l69 18q37 10 39 35l43 311h-389l-41 -311q-4 -27 29 -35l67 -18l6 -80h-458l6 80l69 18q35 8 39 35l90 688q4 27 -30 35l-64 18l-6 80h457l-4 -80l-72 -18q-35 -8 -39 -35l-39 -295h387l39 295q4 28 -28 35l-66 18l-6 80h459l-7 -80l-71 -18
q-37 -8 -41 -35l-90 -688q-4 -25 32 -35l66 -18z" />
    <glyph glyph-name="i.smallcap" horiz-adv-x="659" 
d="M520 0h-493l10 80l84 18q35 6 39 35l90 688q4 29 -29 35l-80 18l-8 80h494l-9 -80l-86 -18q-35 -6 -38 -35l-91 -688q-4 -29 31 -35l80 -18z" />
    <glyph glyph-name="j.smallcap" horiz-adv-x="772" 
d="M162 -29q-90 0 -142.5 40.5t-49.5 92.5t32.5 79.5t83.5 27.5t85.5 -44t27.5 -118h20q45 31 70.5 95.5t42.5 185.5l63 491q4 29 -28 35l-95 18l-6 80h494l-6 -80l-76 -18q-37 -8 -41 -35l-49 -381q-61 -469 -426 -469z" />
    <glyph glyph-name="j.smallcap.alt" horiz-adv-x="886" 
d="M284 -31q-146 0 -229.5 59.5t-83.5 129.5t37 109.5t87 39.5t84 -27.5t34 -79.5t-47 -89q44 -55 110 -55q136 -1 164 218l74 547q4 29 -29 35l-94 18v80h488l-11 -80l-73 -18q-37 -8 -41 -35l-70 -506q-23 -164 -138.5 -255t-261.5 -91z" />
    <glyph glyph-name="k.smallcap" horiz-adv-x="1157" 
d="M1096 0h-455l4 80l39 12q33 8 10 55q-164 303 -166 304l-114 -97l-29 -221q-4 -27 29 -35l67 -18l6 -80h-458l6 80l69 18q35 8 39 35l90 688q4 27 -30 35l-64 18l-6 80h459l-6 -80l-72 -18q-35 -8 -39 -35l-47 -360l266 233q109 98 111 133q4 35 -39 43l-33 9l-6 75h430
l-6 -80l-66 -12q-96 -23 -254 -157l-118 -101l256 -450q25 -41 84 -62l37 -12z" />
    <glyph glyph-name="l.smallcap" horiz-adv-x="1001" 
d="M414 84q162 0 222 27.5t97 111.5l49 121h129l-77 -344h-805l6 80l69 18q35 8 39 35l90 688q4 27 -30 35l-64 18l-6 80h475l-6 -80l-88 -18q-35 -6 -39 -35l-96 -737h35z" />
    <glyph glyph-name="m.smallcap" horiz-adv-x="1464" 
d="M242 160q0 -43 6 -50.5t22 -11.5l82 -18l6 -80h-352l6 80l74 18q31 6 49.5 55.5t48.5 223.5l76 444q6 29 -27 37l-83 16l-7 80h471l66 -667h27l301 667h419l-6 -80l-78 -18q-35 -8 -38 -37l-58 -571q-13 -112 -3.5 -129t28.5 -21l69 -18l7 -80h-469l6 80l71 18
q25 6 34 31t18 119l63 588h-24l-369 -805h-203l-96 817h-25l-80 -471q-32 -174 -32 -217z" />
    <glyph glyph-name="n.smallcap" horiz-adv-x="1222" 
d="M1210 954l-6 -80l-69 -16q-35 -8 -53.5 -61.5t-43.5 -231.5l-77 -575h-218l-401 731h-27l-41 -332q-20 -182 -16 -233.5t37 -59.5l78 -16l6 -80h-367l6 80l68 16q37 10 56.5 61.5t41.5 231.5l52 391q6 57 -35 74l-62 20l-8 80h367l385 -702h26l39 313q23 182 19 233.5
t-39 59.5l-76 16l-6 80h364z" />
    <glyph glyph-name="o.smallcap" horiz-adv-x="1155" 
d="M823 590q0 297 -202 297q-76 0 -136.5 -56.5t-107.5 -183t-47 -294.5q0 -169 71 -242q45 -49 127 -49t141.5 56t106.5 182.5t47 289.5zM1081 537q0 -242 -178 -416q-153 -150 -359 -150t-338 126t-132 317q0 244 153 397q164 168 377 168t345 -126t132 -316z" />
    <glyph glyph-name="p.smallcap" horiz-adv-x="1046" 
d="M743 668q0 94 -54 151.5t-148 57.5h-60l-55 -428q37 -13 117 -13t140 69t60 163zM1008 692q0 -116 -103 -226t-354 -110q-84 0 -137 9l-29 -232q-4 -29 29 -35l94 -18l6 -80h-485l6 80l69 18q35 8 39 35l90 688q4 27 -28 35l-66 18l-6 80h477q197 0 297.5 -73t100.5 -189
z" />
    <glyph glyph-name="q.smallcap" horiz-adv-x="1155" 
d="M823 590q0 297 -202 297q-76 0 -136.5 -56.5t-107.5 -183t-47 -294.5q0 -169 71 -242q45 -49 127 -49t141.5 56t106.5 182.5t47 289.5zM764 -295q-152 0 -239 61.5t-173 237.5q-127 49 -202.5 158.5t-75.5 251.5q0 244 153 397q164 168 377 168t345 -126t132 -316
q0 -242 -178 -416q-117 -115 -280 -141q76 -111 155.5 -145t251.5 -30l8 -71q-122 -29 -274 -29z" />
    <glyph glyph-name="r.smallcap" horiz-adv-x="1112" 
d="M760 680q0 94 -54.5 146.5t-144.5 52.5h-80l-51 -390l131 -18q82 8 140.5 61.5t58.5 147.5zM633 954q195 0 293 -71.5t98 -180.5q0 -207 -268 -284l147 -258q31 -61 96 -72l35 -8l6 -80h-335l-60 141l-119 256l-106 6l-35 -270q-4 -27 29 -35l67 -18l6 -80h-458l6 80
l69 18q35 8 39 35l90 688q4 27 -30 35l-64 18l-6 80h500z" />
    <glyph glyph-name="s.smallcap" horiz-adv-x="946" 
d="M708.5 62.5q-110.5 -87.5 -293.5 -87.5t-360 45l33 306h127l49 -234q74 -26 157 -26t133 41t50 101t-47 98t-132 79t-120 61.5t-101.5 75t-66.5 173.5q0 118 106.5 198t288.5 82q109 0 267 -31l90 23l-43 -320h-117l-51 213q-86 29 -163 29t-120 -34t-43 -91t48 -97.5
t136 -84.5t185.5 -102t97.5 -194t-110.5 -223.5z" />
    <glyph glyph-name="t.smallcap" horiz-adv-x="1095" 
d="M748 870h-27l-98 -737q-4 -27 30 -35l84 -18l6 -80h-493l6 80l86 18q35 8 39 35l98 737h-22q-90 0 -133 -25.5t-74 -103.5l-51 -129h-131l71 342h959l-43 -342h-125l-15 125q-10 82 -44.5 107.5t-122.5 25.5z" />
    <glyph glyph-name="u.smallcap" horiz-adv-x="1165" 
d="M550 -33q-183 0 -291.5 83t-108.5 233q0 18 4 63l65 475q4 27 -29 35l-65 18l-6 80h461l-7 -80l-73 -18q-35 -8 -39 -35l-60 -440q-8 -53 -8 -84q0 -215 234 -215q219 0 254 262l30 221q23 182 19 233.5t-39 59.5l-76 16l-6 80h365l-7 -80l-69 -16q-27 -6 -46 -32.5
t-53 -262.5l-34 -250q-23 -164 -127.5 -255t-287.5 -91z" />
    <glyph glyph-name="v.smallcap" horiz-adv-x="1028" 
d="M1112 954l-6 -82l-37 -8q-43 -10 -80 -33.5t-147 -246.5l-295 -584h-219l-178 803q-6 27 -21.5 38t-54.5 21l-41 10l-6 82h489l-4 -82l-49 -8q-53 -10 -59.5 -31.5t14.5 -115.5l110 -537h27l217 463q59 127 57 170t-59 53l-35 6l-6 82h383z" />
    <glyph glyph-name="w.smallcap" horiz-adv-x="1587" 
d="M1659 954l-6 -82l-35 -8q-57 -16 -101 -64t-124 -216l-283 -584h-207l-94 578h-25l-270 -578h-209l-160 803q-8 43 -73 59l-45 10l-7 82h500l-6 -82l-51 -8q-49 -8 -57.5 -35.5t6.5 -111.5l90 -514h24l238 520l-14 80q-4 43 -76 59l-43 10l-6 82h501l-6 -82l-49 -8
q-45 -8 -54 -37.5t3 -109.5l80 -514h24l191 426q61 139 62 182t-50 53l-39 8l-6 82h377z" />
    <glyph glyph-name="x.smallcap" horiz-adv-x="1075" 
d="M1008 0h-484l6 80l43 8q48 8 42.5 37t-23.5 63l-117 213h-8l-156 -176q-70 -81 -57.5 -104t43.5 -29l45 -10l6 -82h-385l6 80l45 12q84 25 203 148l205 221l-234 356q-18 33 -63 45l-43 12l-6 80h485l-6 -80l-45 -8q-39 -6 -40 -30.5t28 -79.5l102 -185h8l142 158
q104 115 14 133l-45 10l-6 82h385l-6 -80l-48 -12q-72 -20 -200 -149l-195 -201l248 -379q16 -27 61 -41l43 -12z" />
    <glyph glyph-name="y.smallcap" horiz-adv-x="1001" 
d="M1079 954l-6 -82l-29 -8q-49 -14 -97 -56t-126 -146l-205 -273l-32 -256q-4 -29 30 -35l86 -18l7 -80h-500l6 80l90 18q35 6 39 35l31 238l-234 448q-14 31 -63 45l-33 8l-6 82h477l-6 -82l-45 -6q-58 -11 -49.5 -59.5t32.5 -106.5l103 -243h24l166 227q117 158 23 178
l-45 10l-6 82h368z" />
    <glyph glyph-name="z.smallcap" horiz-adv-x="1042" 
d="M530 870q-106 0 -152 -26.5t-83 -112.5l-45 -115h-117l33 338h850l-10 -86l-701 -774v-10h144q147 2 208.5 28.5t94.5 104.5l47 111h133l-76 -328h-838l11 80l688 780l2 10h-189z" />
    <glyph glyph-name="fi.smallcap" horiz-adv-x="1716" 
d="M565 872h-82l-51 -376h57q59 0 91 9t49 44l51 104h94l-88 -383h-90l-4 97q-2 33 -24.5 44t-92.5 11h-51l-39 -289q-4 -29 29 -35l94 -18l-2 -80h-483l12 80l69 18q35 8 39 35l90 688q4 27 -30 35l-64 18l-6 80h901l-41 -327h-125l-16 118q-12 82 -65.5 104.5t-221.5 22.5
zM1577 0h-492l9 80l86 18q35 6 39 35l90 688q4 29 -31 35l-80 18l-6 80h491l-8 -80l-86 -18q-35 -6 -39 -35l-90 -688q-4 -29 31 -35l80 -18z" />
    <glyph glyph-name="fl.smallcap" horiz-adv-x="2058" 
d="M565 872h-82l-51 -376h57q59 0 91 9t49 44l51 104h94l-88 -383h-90l-4 97q-2 33 -24.5 44t-92.5 11h-51l-39 -289q-4 -29 29 -35l94 -18l-2 -80h-483l12 80l69 18q35 8 39 35l90 688q4 27 -30 35l-64 18l-6 80h901l-41 -327h-125l-16 118q-12 82 -65.5 104.5t-221.5 22.5
zM1470 84q162 0 222.5 27.5t97.5 111.5l49 121h129l-78 -344h-805l7 80l69 18q35 8 39 35l90 688q4 27 -28 35l-66 18l-6 80h475l-6 -80l-88 -18q-35 -6 -39 -35l-96 -737h34z" />
    <glyph glyph-name="ff.smallcap" horiz-adv-x="2113" 
d="M1622 872h-82l-51 -376h57q59 0 91 9t49 44l51 104h94l-88 -383h-90l-4 97q-2 33 -24.5 45t-92.5 12h-51l-39 -291q-4 -29 28 -35l95 -18l-2 -80h-484l13 80l69 18q35 8 39 35l90 688q4 27 -28 35l-66 18l-6 80h901l-41 -327h-125l-16 118q-12 82 -65.5 104.5
t-221.5 22.5zM565 872h-82l-51 -376h57q59 0 91 9t49 44l51 104h94l-88 -383h-90l-4 97q-2 33 -24.5 45t-92.5 12h-51l-39 -291q-4 -29 29 -35l94 -18l-2 -80h-483l12 80l69 18q35 8 39 35l90 688q4 27 -28 35l-66 18l-6 80h901l-41 -327h-125l-16 118q-12 82 -65.5 104.5
t-221.5 22.5z" />
    <glyph glyph-name="ffi.smallcap" horiz-adv-x="2772" 
d="M2634 0h-492l8 80l86 18q35 6 39 35l90 688q4 29 -30 35l-80 18l-6 80h491l-8 -80l-86 -18q-35 -6 -39 -35l-90 -688q-4 -29 31 -35l80 -18zM1622 872h-82l-51 -376h57q59 0 91 9t49 44l51 104h94l-88 -383h-90l-4 97q-2 33 -24.5 45t-92.5 12h-51l-39 -291
q-4 -29 28 -35l95 -18l-2 -80h-484l13 80l69 18q35 8 39 35l90 688q4 27 -28 35l-66 18l-6 80h901l-41 -327h-125l-16 118q-12 82 -65.5 104.5t-221.5 22.5zM565 872h-82l-51 -376h57q59 0 91 9t49 44l51 104h94l-88 -383h-90l-4 97q-2 33 -24.5 45t-92.5 12h-51l-39 -291
q-4 -29 29 -35l94 -18l-2 -80h-483l12 80l69 18q35 8 39 35l90 688q4 27 -28 35l-66 18l-6 80h901l-41 -327h-125l-16 118q-12 82 -65.5 104.5t-221.5 22.5z" />
    <glyph glyph-name="ffl.smallcap" horiz-adv-x="3115" 
d="M2527 84q162 0 222.5 27.5t97.5 111.5l49 121h129l-78 -344h-805l6 80l70 18q35 8 39 35l90 688q4 27 -29 35l-65 18l-6 80h475l-6 -80l-88 -18q-35 -6 -39 -35l-97 -737h35zM1622 872h-82l-51 -376h57q59 0 91 9t49 44l51 104h94l-88 -383h-90l-4 97q-2 33 -24.5 45
t-92.5 12h-51l-39 -291q-4 -29 28 -35l95 -18l-2 -80h-484l13 80l69 18q35 8 39 35l90 688q4 27 -28 35l-66 18l-6 80h901l-41 -327h-125l-16 118q-12 82 -65.5 104.5t-221.5 22.5zM565 872h-82l-51 -376h57q59 0 91 9t49 44l51 104h94l-88 -383h-90l-4 97q-2 33 -24.5 45
t-92.5 12h-51l-39 -291q-4 -29 29 -35l94 -18l-2 -80h-483l12 80l69 18q35 8 39 35l90 688q4 27 -28 35l-66 18l-6 80h901l-41 -327h-125l-16 118q-12 82 -65.5 104.5t-221.5 22.5z" />
    <glyph glyph-name="germandbls.smallcap" horiz-adv-x="1892" 
d="M708.5 62.5q-110.5 -87.5 -293.5 -87.5t-360 45l33 306h127l49 -234q74 -26 157 -26t133 41t50 101t-47 98t-132 79t-120 61.5t-101.5 75t-66.5 173.5q0 118 106.5 198t288.5 82q109 0 267 -31l90 23l-43 -320h-117l-51 213q-86 29 -163 29t-120 -34t-43 -91t48 -97.5
t136 -84.5t185.5 -102t97.5 -194t-110.5 -223.5zM1654.5 62.5q-110.5 -87.5 -293.5 -87.5t-360 45l33 306h127l49 -234q74 -26 157 -26t133 41t50 101t-47 98t-131 79t-119.5 61.5t-101.5 75.5t-66 173t105.5 198t288.5 82q109 0 266 -31l90 23l-43 -320h-117l-51 213
q-86 29 -163 29t-120 -34t-43 -91t48 -97.5t136 -84.5t185.5 -102t97.5 -194t-110.5 -223.5z" />
    <glyph glyph-name="agrave.smallcap" horiz-adv-x="1028" 
d="M680 1055h-94l-310 372h261zM575 381l-75 395h-25l-184 -395h284zM291 0h-373l10 80l35 8q61 14 98 58t127 225l252 506l2 49l250 53l176 -829q6 -41 76 -60l43 -10v-80h-489l10 80l47 8q51 10 59.5 32.5t-10.5 117.5l-12 65h-336l-25 -53q-25 -66 -31.5 -93.5t3.5 -43
t43 -23.5l45 -10v-80z" />
    <glyph glyph-name="aacute.smallcap" horiz-adv-x="1028" 
d="M973 1427l-412 -372h-92l244 372h260zM575 381l-75 395h-25l-184 -395h284zM291 0h-373l10 80l35 8q61 14 98 58t127 225l252 506l2 49l250 53l176 -829q6 -41 76 -60l43 -10v-80h-489l10 80l47 8q51 10 59.5 32.5t-10.5 117.5l-12 65h-336l-25 -53q-25 -66 -31.5 -93.5
t3.5 -43t43 -23.5l45 -10v-80z" />
    <glyph glyph-name="acircumflex.smallcap" horiz-adv-x="1028" 
d="M874 1055h-94l-176 245h-4l-242 -245h-94l234 372h241zM575 381l-75 395h-25l-184 -395h284zM291 0h-373l10 80l35 8q61 14 98 58t127 225l252 506l2 49l250 53l176 -829q6 -41 76 -60l43 -10v-80h-489l10 80l47 8q51 10 59.5 32.5t-10.5 117.5l-12 65h-336l-25 -53
q-25 -66 -31.5 -93.5t3.5 -43t43 -23.5l45 -10v-80z" />
    <glyph glyph-name="atilde.smallcap" horiz-adv-x="1028" 
d="M417 1217q-32 0 -52.5 -27t-57.5 -100h-88q63 276 246 276q68 0 165 -71.5t129 -71.5t57.5 27.5t60.5 97.5h86q-66 -276 -248 -277q-68 0 -167 73t-131 73zM575 381l-75 395h-25l-184 -395h284zM291 0h-373l10 80l35 8q61 14 98 58t127 225l252 506l2 49l250 53l176 -829
q6 -41 76 -60l43 -10v-80h-489l10 80l47 8q51 10 59.5 32.5t-10.5 117.5l-12 65h-336l-25 -53q-25 -66 -31.5 -93.5t3.5 -43t43 -23.5l45 -10v-80z" />
    <glyph glyph-name="adieresis.smallcap" horiz-adv-x="1028" 
d="M526 1241q0 -59 -35.5 -100t-97 -41t-98.5 41t-37 100t37 101t98.5 42t97 -42t35.5 -101zM965 1241q0 -59 -36 -100t-97.5 -41t-97.5 41t-36 100t36 101t97.5 42t97.5 -42t36 -101zM575 381l-75 395h-25l-184 -395h284zM291 0h-373l10 80l35 8q61 14 98 58t127 225
l252 506l2 49l250 53l176 -829q6 -41 76 -60l43 -10v-80h-489l10 80l47 8q51 10 59.5 32.5t-10.5 117.5l-12 65h-336l-25 -53q-25 -66 -31.5 -93.5t3.5 -43t43 -23.5l45 -10v-80z" />
    <glyph glyph-name="aring.smallcap" horiz-adv-x="1028" 
d="M575 381l-75 395h-25l-184 -395h284zM731 1089.5q0 57.5 -36 98.5t-95 41t-95 -41t-36 -98.5t36 -97.5t95 -40t95 40t36 97.5zM987 0h-489l10 80l47 8q51 10 59.5 32.5t-10.5 117.5l-12 65h-336l-25 -53q-25 -66 -31.5 -93.5t3.5 -43t43 -23.5l45 -10v-80h-373l10 80
l35 8q59 14 96 58t129 225l279 561q-70 59 -70 158q4 86 58.5 145t144.5 59t145.5 -59t55.5 -145q0 -122 -94 -177l161 -763q6 -41 76 -60l43 -10v-80z" />
    <glyph glyph-name="aringacute.smallcap" horiz-adv-x="1028" 
d="M575 381l-75 395h-25l-184 -395h284zM731 1089.5q0 57.5 -36 98.5t-95 41t-95 -41t-36 -98.5t36 -97.5t95 -40t95 40t36 97.5zM987 0h-489l10 80l47 8q51 10 59.5 32.5t-10.5 117.5l-12 65h-336l-25 -53q-25 -66 -31.5 -93.5t3.5 -43t43 -23.5l45 -10v-80h-373l10 80
l35 8q59 14 96 58t129 225l279 561q-70 59 -70 158q4 86 58.5 145t144.5 59t145.5 -59t55.5 -145q0 -122 -94 -177l161 -763q6 -41 76 -60l43 -10v-80zM983 1696l-412 -373h-92l244 373h260z" />
    <glyph glyph-name="amacron.smallcap" horiz-adv-x="1028" 
d="M883 1118h-609l25 119h582zM575 381l-75 395h-25l-184 -395h284zM291 0h-373l10 80l35 8q61 14 98 58t127 225l252 506l2 49l250 53l176 -829q6 -41 76 -60l43 -10v-80h-489l10 80l47 8q51 10 59.5 32.5t-10.5 117.5l-12 65h-336l-25 -53q-25 -66 -31.5 -93.5t3.5 -43
t43 -23.5l45 -10v-80z" />
    <glyph glyph-name="abreve.smallcap" horiz-adv-x="1028" 
d="M575 381l-75 395h-25l-184 -395h284zM575 1044q-133 0 -190 100.5t-66 282.5h91q29 -119 68.5 -182t113.5 -63t133 64.5t123 180.5h88q-102 -383 -361 -383zM291 0h-373l10 80l35 8q61 14 98 58t127 225l252 506l2 49l250 53l176 -829q6 -41 76 -60l43 -10v-80h-489
l10 80l47 8q51 10 59.5 32.5t-10.5 117.5l-12 65h-336l-25 -53q-25 -66 -31.5 -93.5t3.5 -43t43 -23.5l45 -10v-80z" />
    <glyph glyph-name="aogonek.smallcap" horiz-adv-x="1028" 
d="M575 383l-75 393h-25l-184 -393h284zM291 0h-375l10 80l35 8q61 14 99 58t128 225l252 506l2 49l250 53l176 -829q6 -41 76 -60l43 -10v-80q-86 -16 -148.5 -75t-71.5 -117t10 -94t75 -41t104 32l17 -27q-20 -59 -87 -98t-154 -30t-132 65.5t-27 144.5q29 141 240 240
h-315l10 80l47 8q51 10 59.5 32.5t-10.5 117.5l-12 65h-336l-25 -53q-25 -66 -31.5 -93.5t3.5 -43t43 -23.5l45 -10v-80z" />
    <glyph glyph-name="ae.smallcap" horiz-adv-x="1556" 
d="M649 387l64 481h-17l-334 -481h287zM205 132q0 -36 33 -42l57 -10l6 -80h-383l8 80l39 10q39 10 86 40t193 241l284 395q53 80 -28 96l-64 12l-6 80h1088l-43 -327h-125l-17 118q-10 82 -63 104.5t-221 22.5h-101l-47 -356h53q109 0 138 53l53 107h92l-88 -383h-90l-4 96
q-2 33 -24.5 44t-92.5 11l-45 2l-49 -366l102 2q166 0 229.5 23.5t98.5 103.5l45 113h135l-72 -322h-888l12 80l72 18q35 6 38 35l23 176h-328l-32 -43q-74 -98 -74 -134z" />
    <glyph glyph-name="aeacute.smallcap" horiz-adv-x="1556" 
d="M649 387l64 481h-17l-334 -481h287zM205 132q0 -36 33 -42l57 -10l6 -80h-383l8 80l39 10q39 10 86 40t193 241l284 395q53 80 -28 96l-64 12l-6 80h1088l-43 -327h-125l-17 118q-10 82 -63 104.5t-221 22.5h-101l-47 -356h53q109 0 138 53l53 107h92l-88 -383h-90l-4 96
q-2 33 -24.5 44t-92.5 11l-45 2l-49 -366l102 2q166 0 229.5 23.5t98.5 103.5l45 113h135l-72 -322h-888l12 80l72 18q35 6 38 35l23 176h-328l-32 -43q-74 -98 -74 -134zM1389 1427l-412 -372h-92l243 372h261z" />
    <glyph glyph-name="ccedilla.smallcap" horiz-adv-x="1155" 
d="M72 410q0 227 169 396t418 169q145 0 263 -39l151 37l-49 -352h-139l-43 223q-61 47 -164 47q-158 0 -252 -144.5t-94 -336.5t94 -287q62 -63 156 -63t153 32l119 232h143l-71 -324l-105 20q-113 -41 -258 -47l-96 -84q121 -4 190.5 -50t69.5 -126q0 -115 -136 -190.5
t-355 -85.5l-13 55q166 20 255 65.5t89 108.5q0 98 -157 98q-74 0 -144 -14l6 49l195 178q-186 18 -290.5 132t-104.5 301z" />
    <glyph glyph-name="cacute.smallcap" horiz-adv-x="1155" 
d="M541 -27q-219 0 -344 116t-125 332t169 385t418 169q145 0 263 -39l151 37l-49 -352h-139l-43 223q-61 47 -164 47q-158 0 -252 -144.5t-94 -336.5t94 -287q62 -63 156 -63t153 32l119 232h143l-71 -324l-105 20q-125 -47 -280 -47zM1042 1427l-411 -372h-92l243 372h260
z" />
    <glyph glyph-name="ccircumflex.smallcap" horiz-adv-x="1155" 
d="M541 -27q-219 0 -344 116t-125 332t169 385t418 169q145 0 263 -39l151 37l-49 -352h-139l-43 223q-61 47 -164 47q-158 0 -252 -144.5t-94 -336.5t94 -287q62 -63 156 -63t153 32l119 232h143l-71 -324l-105 20q-125 -47 -280 -47zM952 1055h-94l-176 245h-4l-242 -245
h-94l233 372h242z" />
    <glyph glyph-name="cdotaccent.smallcap" horiz-adv-x="1155" 
d="M809 1251.5q0 -61.5 -38 -103.5t-100 -42t-99 42t-37 103.5t36.5 104.5t98.5 43t100.5 -43t38.5 -104.5zM541 -27q-219 0 -344 116t-125 332t169 385t418 169q145 0 263 -39l151 37l-49 -352h-139l-43 223q-61 47 -164 47q-158 0 -252 -144.5t-94 -336.5t94 -287
q62 -63 156 -63t153 32l119 232h143l-71 -324l-105 20q-125 -47 -280 -47z" />
    <glyph glyph-name="ccaron.smallcap" horiz-adv-x="1155" 
d="M541 -27q-219 0 -344 116t-125 332t169 385t418 169q145 0 263 -39l151 37l-49 -352h-139l-43 223q-61 47 -164 47q-158 0 -252 -144.5t-94 -336.5t94 -287q62 -63 156 -63t153 32l119 232h143l-71 -324l-105 20q-125 -47 -280 -47zM991 1427l-231 -372h-244l-131 372h90
l176 -245h4l244 245h92z" />
    <glyph glyph-name="dcaron.smallcap" horiz-adv-x="1173" 
d="M836 504q0 180 -80 274t-219 94h-56l-100 -759l106 -29q156 -4 252.5 118t96.5 302zM1100 518q0 -198 -167 -358t-472 -160h-438l12 80l69 18q35 8 39 35l90 688q4 27 -30 35l-64 18l-6 80l461 2q231 2 368.5 -119t137.5 -319zM915 1427l-231 -372h-242l-133 372h90
l179 -245h4l241 245h92z" />
    <glyph glyph-name="eth.smallcap" horiz-adv-x="1196" 
d="M866 505q0 179 -80.5 273t-218.5 94h-55l-45 -340h197l6 -94h-215l-43 -325l106 -29q156 -4 252 119t96 302zM1130 519q0 -199 -166 -359t-472 -160h-439l13 80l69 18q35 8 39 35q6 52 17.5 134.5t17.5 125.5l4 45h-137l6 94h145l37 289q4 27 -31 35l-63 18l-6 80l461 2
q231 2 368 -118.5t137 -318.5z" />
    <glyph glyph-name="dcroat.smallcap" horiz-adv-x="1196" 
d="M866 505q0 179 -80.5 273t-218.5 94h-55l-45 -340h197l6 -94h-215l-43 -325l106 -29q156 -4 252 119t96 302zM1130 519q0 -199 -166 -359t-472 -160h-439l13 80l69 18q35 8 39 35q6 52 17.5 134.5t17.5 125.5l4 45h-137l6 94h145l37 289q4 27 -31 35l-63 18l-6 80l461 2
q231 2 368 -118.5t137 -318.5z" />
    <glyph glyph-name="egrave.smallcap" horiz-adv-x="1089" 
d="M733 1055h-94l-309 372h260zM582 872h-101l-45 -356h51q109 0 138 53l53 107h92l-88 -383h-90l-4 96q-2 33 -24.5 44t-92.5 11h-45l-47 -362h100q166 0 229.5 23.5t98.5 103.5l45 113h135l-72 -322h-892l12 80l69 18q35 8 39 35l90 688q4 27 -30 35l-64 18l-6 80h918
l-43 -327h-125l-17 118q-10 82 -63 104.5t-221 22.5z" />
    <glyph glyph-name="eacute.smallcap" horiz-adv-x="1089" 
d="M1036 1427l-411 -372h-93l244 372h260zM582 872h-101l-45 -356h51q109 0 138 53l53 107h92l-88 -383h-90l-4 96q-2 33 -24.5 44t-92.5 11h-45l-47 -362h100q166 0 229.5 23.5t98.5 103.5l45 113h135l-72 -322h-892l12 80l69 18q35 8 39 35l90 688q4 27 -30 35l-64 18
l-6 80h918l-43 -327h-125l-17 118q-10 82 -63 104.5t-221 22.5z" />
    <glyph glyph-name="ecircumflex.smallcap" horiz-adv-x="1089" 
d="M926 1055h-95l-176 245h-4l-241 -245h-95l234 372h242zM582 872h-101l-45 -356h51q109 0 138 53l53 107h92l-88 -383h-90l-4 96q-2 33 -24.5 44t-92.5 11h-45l-47 -362h100q166 0 229.5 23.5t98.5 103.5l45 113h135l-72 -322h-892l12 80l69 18q35 8 39 35l90 688
q4 27 -30 35l-64 18l-6 80h918l-43 -327h-125l-17 118q-10 82 -63 104.5t-221 22.5z" />
    <glyph glyph-name="edieresis.smallcap" horiz-adv-x="1089" 
d="M557 1241q0 -59 -36 -100t-97.5 -41t-98 41t-36.5 100t36.5 101t98 42t97.5 -42t36 -101zM995 1241q0 -59 -35.5 -100t-97 -41t-97.5 41t-36 100t36 101t97.5 42t97 -42t35.5 -101zM582 872h-101l-45 -356h51q109 0 138 53l53 107h92l-88 -383h-90l-4 96q-2 33 -24.5 44
t-92.5 11h-45l-47 -362h100q166 0 229.5 23.5t98.5 103.5l45 113h135l-72 -322h-892l12 80l69 18q35 8 39 35l90 688q4 27 -30 35l-64 18l-6 80h918l-43 -327h-125l-17 118q-10 82 -63 104.5t-221 22.5z" />
    <glyph glyph-name="emacron.smallcap" horiz-adv-x="1089" 
d="M946 1118h-608l24 119h582zM582 872h-101l-45 -356h51q109 0 138 53l53 107h92l-88 -383h-90l-4 96q-2 33 -24.5 44t-92.5 11h-45l-47 -362h100q166 0 229.5 23.5t98.5 103.5l45 113h135l-72 -322h-892l12 80l69 18q35 8 39 35l90 688q4 27 -30 35l-64 18l-6 80h918
l-43 -327h-125l-17 118q-10 82 -63 104.5t-221 22.5z" />
    <glyph glyph-name="ebreve.smallcap" horiz-adv-x="1089" 
d="M608 1044q-133 0 -190.5 100.5t-65.5 282.5h90q29 -119 69 -182t113.5 -63t133 64.5t123.5 180.5h88q-102 -383 -361 -383zM582 872h-101l-45 -356h51q109 0 138 53l53 107h92l-88 -383h-90l-4 96q-2 33 -24.5 44t-92.5 11h-45l-47 -362h100q166 0 229.5 23.5t98.5 103.5
l45 113h135l-72 -322h-892l12 80l69 18q35 8 39 35l90 688q4 27 -30 35l-64 18l-6 80h918l-43 -327h-125l-17 118q-10 82 -63 104.5t-221 22.5z" />
    <glyph glyph-name="edotaccent.smallcap" horiz-adv-x="1089" 
d="M780 1251.5q0 -61.5 -38 -103.5t-100 -42t-99 42t-37 103.5t37 104.5t99 43t100 -43t38 -104.5zM582 872h-101l-45 -356h51q109 0 138 53l53 107h92l-88 -383h-90l-4 96q-2 33 -24.5 44t-92.5 11h-45l-47 -362h100q166 0 229.5 23.5t98.5 103.5l45 113h135l-72 -322h-892
l12 80l69 18q35 8 39 35l90 688q4 27 -30 35l-64 18l-6 80h918l-43 -327h-125l-17 118q-10 82 -63 104.5t-221 22.5z" />
    <glyph glyph-name="eogonek.smallcap" horiz-adv-x="1089" 
d="M582 872h-101l-45 -356h51q109 0 138 53l53 107h92l-88 -383h-90l-4 96q-2 33 -24.5 44t-92.5 11h-45l-47 -362h100q166 0 229.5 23.5t98.5 103.5l45 113h135l-72 -322h-67q-133 -96 -152 -201q-10 -49 9.5 -85t73.5 -41t108 32l14 -27q-20 -59 -85.5 -98t-153.5 -30
t-133.5 65.5t-26.5 144.5q31 137 233 240h-712l12 80l69 18q35 8 39 35l90 688q4 27 -28 35l-66 18l-6 80h918l-43 -327h-125l-17 118q-10 82 -63 104.5t-221 22.5z" />
    <glyph glyph-name="ecaron.smallcap" horiz-adv-x="1089" 
d="M582 872h-101l-45 -356h51q109 0 138 53l53 107h92l-88 -383h-90l-4 96q-2 33 -24.5 44t-92.5 11h-45l-47 -362h100q166 0 229.5 23.5t98.5 103.5l45 113h135l-72 -322h-892l12 80l69 18q35 8 39 35l90 688q4 27 -30 35l-64 18l-6 80h918l-43 -327h-125l-17 118
q-10 82 -63 104.5t-221 22.5zM983 1427l-231 -372h-244l-131 372h90l176 -245h4l244 245h92z" />
    <glyph glyph-name="gcircumflex.smallcap" horiz-adv-x="1183" 
d="M570 -27q-238 0 -368 116t-130 333t168 381q168 172 419 172q145 0 263 -39l151 37l-49 -352h-139l-43 223q-61 47 -164 47q-158 0 -252 -144.5t-94 -338.5t94 -287q60 -63 146 -63t128 20l29 225q2 29 -37 37l-63 18l-4 80h469l-9 -80l-75 -18q-35 -6 -41 -37l-25 -186
l90 -11l2 -59q-228 -74 -466 -74zM958 1055h-94l-176 245h-4l-242 -245h-94l234 372h241z" />
    <glyph glyph-name="gbreve.smallcap" horiz-adv-x="1183" 
d="M655 1044q-133 0 -190 100.5t-66 282.5h90q29 -119 69 -182t113.5 -63t133 64.5t123.5 180.5h88q-102 -383 -361 -383zM570 -27q-238 0 -368 116t-130 333t168 381q168 172 419 172q145 0 263 -39l151 37l-49 -352h-139l-43 223q-61 47 -164 47q-158 0 -252 -144.5
t-94 -338.5t94 -287q60 -63 146 -63t128 20l29 225q2 29 -37 37l-63 18l-4 80h469l-9 -80l-75 -18q-35 -6 -41 -37l-25 -186l90 -11l2 -59q-228 -74 -466 -74z" />
    <glyph glyph-name="gdotaccent.smallcap" horiz-adv-x="1183" 
d="M838 1251.5q0 -61.5 -38 -103.5t-100 -42t-99.5 42t-37.5 103.5t37 104.5t99 43t100.5 -43t38.5 -104.5zM570 -27q-238 0 -368 116t-130 333t168 381q168 172 419 172q145 0 263 -39l151 37l-49 -352h-139l-43 223q-61 47 -164 47q-158 0 -252 -144.5t-94 -338.5t94 -287
q60 -63 146 -63t128 20l29 225q2 29 -37 37l-63 18l-4 80h469l-9 -80l-75 -18q-35 -6 -41 -37l-25 -186l90 -11l2 -59q-228 -74 -466 -74z" />
    <glyph glyph-name="gcommaaccent.smallcap" horiz-adv-x="1183" 
d="M570 -27q-238 0 -368 116t-130 333t168 381q168 172 419 172q145 0 263 -39l151 37l-49 -352h-139l-43 223q-61 47 -164 47q-158 0 -252 -144.5t-94 -338.5t94 -287q60 -63 146 -63t128 20l29 225q2 29 -37 37l-63 18l-4 80h469l-9 -80l-75 -18q-35 -6 -41 -37l-25 -186
l90 -11l2 -59q-228 -74 -466 -74zM688 -168.5q38 -58.5 18 -144.5t-107 -154t-212 -102l-33 49q158 45 183 153q18 91 -48.5 125.5t-66.5 36.5q10 47 53 78t109 24t104 -65.5z" />
    <glyph glyph-name="hcircumflex.smallcap" horiz-adv-x="1253" 
d="M1116 0h-459l7 80l69 18q37 10 39 35l43 311h-389l-41 -311q-4 -27 29 -35l67 -18l6 -80h-458l6 80l69 18q35 8 39 35l90 688q4 27 -30 35l-64 18l-6 80h457l-4 -80l-72 -18q-35 -8 -39 -35l-39 -295h387l39 295q4 28 -28 35l-66 18l-6 80h459l-7 -80l-71 -18
q-37 -8 -41 -35l-90 -688q-4 -25 32 -35l66 -18zM985 1059h-94l-176 246h-4l-242 -246h-94l233 373h242z" />
    <glyph glyph-name="hbar.smallcap" horiz-adv-x="1253" 
d="M436 526h387l17 119h-389zM1116 0h-459l7 80l69 18q37 10 39 35l43 311h-389l-41 -311q-4 -27 29 -35l67 -18l6 -80h-458l6 80l69 18q35 8 39 35l68 512h-184l22 94h176l8 82q4 27 -28 35l-66 18l-6 80h457l-4 -80l-72 -18q-35 -8 -39 -35l-10 -82h389l8 82q4 28 -28 35
l-66 18l-6 80h459l-7 -80l-71 -18q-37 -8 -41 -35l-8 -82h145l4 -94h-164l-67 -512q-4 -25 32 -35l66 -18z" />
    <glyph glyph-name="igrave.smallcap" horiz-adv-x="659" 
d="M475 1055h-94l-309 372h260zM520 0h-493l10 80l84 18q35 6 39 35l90 688q4 29 -29 35l-80 18l-8 80h494l-9 -80l-86 -18q-35 -6 -38 -35l-91 -688q-4 -29 31 -35l80 -18z" />
    <glyph glyph-name="iacute.smallcap" horiz-adv-x="659" 
d="M809 1427l-412 -372h-92l244 372h260zM520 0h-493l10 80l84 18q35 6 39 35l90 688q4 29 -29 35l-80 18l-8 80h494l-9 -80l-86 -18q-35 -6 -38 -35l-91 -688q-4 -29 31 -35l80 -18z" />
    <glyph glyph-name="icircumflex.smallcap" horiz-adv-x="659" 
d="M688 1055h-94l-176 245h-4l-242 -245h-94l233 372h242zM520 0h-493l10 80l84 18q35 6 39 35l90 688q4 29 -29 35l-80 18l-8 80h494l-9 -80l-86 -18q-35 -6 -38 -35l-91 -688q-4 -29 31 -35l80 -18z" />
    <glyph glyph-name="idieresis.smallcap" horiz-adv-x="659" 
d="M319 1241q0 -59 -35.5 -100t-97 -41t-98.5 41t-37 100t37 101t98.5 42t97 -42t35.5 -101zM758 1241q0 -59 -36 -100t-97.5 -41t-97 41t-35.5 100t35.5 101t97 42t97.5 -42t36 -101zM520 0h-493l10 80l84 18q35 6 39 35l90 688q4 29 -29 35l-80 18l-8 80h494l-9 -80
l-86 -18q-35 -6 -38 -35l-91 -688q-4 -29 31 -35l80 -18z" />
    <glyph glyph-name="imacron.smallcap" horiz-adv-x="659" 
d="M713 1118h-609l25 119h582zM520 0h-493l10 80l84 18q35 6 39 35l90 688q4 29 -29 35l-80 18l-8 80h494l-9 -80l-86 -18q-35 -6 -38 -35l-91 -688q-4 -29 31 -35l80 -18z" />
    <glyph glyph-name="ibreve.smallcap" horiz-adv-x="659" 
d="M379 1044q-133 0 -190.5 100.5t-65.5 282.5h90q29 -119 69 -182t113.5 -63t133 64.5t122.5 180.5h88q-102 -383 -360 -383zM520 0h-493l10 80l84 18q35 6 39 35l90 688q4 29 -29 35l-80 18l-8 80h494l-9 -80l-86 -18q-35 -6 -38 -35l-91 -688q-4 -29 31 -35l80 -18z" />
    <glyph glyph-name="iogonek.smallcap" horiz-adv-x="659" 
d="M392.5 -420q-66.5 -39 -153.5 -30t-132.5 65.5t-26.5 144.5q29 141 239 240h-290l8 80l86 18q35 6 39 35l90 688q4 29 -31 35l-80 18l-6 80h492l-9 -80l-86 -18q-35 -6 -38 -35l-91 -688q-4 -29 31 -35l80 -18l6 -80q-90 -12 -163 -73t-83 -119t9 -94t75 -41t105 32
l16 -27q-20 -59 -86.5 -98z" />
    <glyph glyph-name="idotaccent.smallcap" horiz-adv-x="659" 
d="M580 1251.5q0 -61.5 -38 -103.5t-100 -42t-99.5 42t-37.5 103.5t37 104.5t99 43t100.5 -43t38.5 -104.5zM520 0h-493l10 80l84 18q35 6 39 35l90 688q4 29 -29 35l-80 18l-8 80h494l-9 -80l-86 -18q-35 -6 -38 -35l-91 -688q-4 -29 31 -35l80 -18z" />
    <glyph glyph-name="dotlessi.smallcap" horiz-adv-x="659" 
d="M520 0h-493l10 80l84 18q35 6 39 35l90 688q4 29 -29 35l-80 18l-8 80h494l-9 -80l-86 -18q-35 -6 -38 -35l-91 -688q-4 -29 31 -35l80 -18z" />
    <glyph glyph-name="jcircumflex.smallcap" horiz-adv-x="772" 
d="M840 1055h-95l-176 245h-4l-241 -245h-95l234 372h242zM162 -29q-90 0 -143.5 40.5t-49.5 92.5t33.5 79.5t83.5 27.5t85.5 -44t27.5 -118h20q45 31 70.5 95.5t42.5 187.5l63 489q4 29 -28 35l-95 18l-6 80h494l-6 -80l-76 -18q-37 -8 -41 -35l-49 -381
q-61 -469 -426 -469z" />
    <glyph glyph-name="jcircumflex.smallcap.alt" horiz-adv-x="886" 
d="M284 -31q-146 0 -229.5 59.5t-83.5 129.5t37 109.5t87 39.5t84 -27.5t34 -79.5t-47 -89q44 -55 110 -55q136 -1 164 218l74 547q4 29 -29 35l-94 18v80h488l-11 -80l-73 -18q-37 -8 -41 -35l-70 -506q-23 -164 -138.5 -255t-261.5 -91zM950 1055h-94l-176 245h-4
l-242 -245h-94l233 372h242z" />
    <glyph glyph-name="dotlessj.smallcap" horiz-adv-x="772" 
d="M162 -29q-90 0 -143.5 40.5t-49.5 92.5t33.5 79.5t83.5 27.5t85.5 -44t27.5 -118h20q45 31 70.5 95.5t42.5 187.5l63 489q4 29 -28 35l-95 18l-6 80h494l-6 -80l-76 -18q-37 -8 -41 -35l-49 -381q-61 -469 -426 -469z" />
    <glyph glyph-name="kcommaaccent.smallcap" horiz-adv-x="1157" 
d="M1096 0h-455l4 80l39 12q33 8 10 55q-164 303 -166 304l-114 -97l-29 -221q-4 -27 29 -35l67 -18l6 -80h-458l6 80l69 18q35 8 39 35l90 688q4 27 -30 35l-64 18l-6 80h459l-6 -80l-72 -18q-35 -8 -39 -35l-47 -360l266 233q109 98 111 133q4 35 -39 43l-33 9l-6 75h430
l-6 -80l-66 -12q-96 -23 -254 -157l-118 -101l256 -450q25 -41 84 -62l37 -12zM661 -172.5q37 -58.5 17 -144.5t-106.5 -154t-211.5 -102l-32 49q158 45 182 153q18 91 -48.5 125.5t-66.5 36.5q10 47 53.5 78t109.5 24t103 -65.5z" />
    <glyph glyph-name="lacute.smallcap" horiz-adv-x="1001" 
d="M414 84q162 0 222 27.5t97 111.5l49 121h129l-77 -344h-805l6 80l69 18q35 8 39 35l90 688q4 27 -30 35l-64 18l-6 80h475l-6 -80l-88 -18q-35 -6 -39 -35l-96 -737h35zM797 1391l-412 -373h-92l244 373h260z" />
    <glyph glyph-name="lcommaaccent.smallcap" horiz-adv-x="1001" 
d="M414 84q162 0 222 27.5t97 111.5l49 121h129l-77 -344h-805l6 80l69 18q35 8 39 35l90 688q4 27 -30 35l-64 18l-6 80h475l-6 -80l-88 -18q-35 -6 -39 -35l-96 -737h35zM570.5 -172.5q37.5 -58.5 17.5 -144.5t-106.5 -154t-211.5 -102l-32 49q158 45 182 153
q18 91 -48.5 125.5t-66.5 36.5q10 47 53 78t109 24t103.5 -65.5z" />
    <glyph glyph-name="lcaron.smallcap" horiz-adv-x="1357" 
d="M414 84q162 0 222 27.5t97 111.5l49 121h129l-77 -344h-805l6 80l69 18q35 8 39 35l90 688q4 27 -30 35l-64 18l-6 80h475l-6 -80l-88 -18q-35 -6 -39 -35l-96 -737h35zM1427 764q0 -121 -108.5 -231.5t-276.5 -196.5l-51 49q98 55 163 128t65 144q0 99 -127 172l-15 9
q0 51 47 91t120 40t128 -60.5t55 -144.5z" />
    <glyph glyph-name="ldotaccent.smallcap" horiz-adv-x="1288" 
d="M414 84q162 0 222 27.5t97 111.5l49 121h129l-77 -344h-805l6 80l69 18q35 8 39 35l90 688q4 27 -30 35l-64 18l-6 80h475l-6 -80l-88 -18q-35 -6 -39 -35l-96 -737h35zM1339 528q0 -64 -46.5 -111.5t-112.5 -47.5t-112 46t-46 111.5t46 111.5t113.5 46t112.5 -46
t45 -110z" />
    <glyph glyph-name="lslash.smallcap" horiz-adv-x="1021" 
d="M434 84q162 0 222.5 27.5t97.5 111.5l49 121h129l-78 -344h-805l6 80l70 18q35 8 39 34t12 94.5t12 101.5l5 32l-117 -32l2 100l129 35l47 358q4 27 -31 35l-63 18l-6 80h475l-6 -80l-88 -18q-35 -6 -39 -35l-37 -291l184 52v-99l-199 -55l-45 -344h35z" />
    <glyph glyph-name="ntilde.smallcap" horiz-adv-x="1222" 
d="M513 1217q-32 0 -52.5 -27t-57.5 -100h-88q63 276 246 276q68 0 165 -71.5t129 -71.5t57.5 27.5t60.5 97.5h86q-66 -276 -248 -277q-68 0 -167 73t-131 73zM1210 954l-6 -80l-69 -16q-35 -8 -53.5 -61.5t-43.5 -231.5l-77 -575h-218l-401 731h-27l-41 -332
q-20 -182 -16 -233.5t37 -59.5l78 -16l6 -80h-367l6 80l68 16q37 10 56.5 61.5t41.5 231.5l52 391q6 57 -35 74l-62 20l-8 80h367l385 -702h26l39 313q23 182 19 233.5t-39 59.5l-76 16l-6 80h364z" />
    <glyph glyph-name="nacute.smallcap" horiz-adv-x="1222" 
d="M1210 954l-6 -80l-69 -16q-35 -8 -53.5 -61.5t-43.5 -231.5l-77 -575h-218l-401 731h-27l-41 -332q-20 -182 -16 -233.5t37 -59.5l78 -16l6 -80h-367l6 80l68 16q37 10 56.5 61.5t41.5 231.5l52 391q6 57 -35 74l-62 20l-8 80h367l385 -702h26l39 313q23 182 19 233.5
t-39 59.5l-76 16l-6 80h364zM1110 1427l-412 -372h-92l244 372h260z" />
    <glyph glyph-name="ncommaaccent.smallcap" horiz-adv-x="1222" 
d="M1210 954l-6 -80l-69 -16q-35 -8 -53.5 -61.5t-43.5 -231.5l-77 -575h-218l-401 731h-27l-41 -332q-20 -182 -16 -233.5t37 -59.5l78 -16l6 -80h-367l6 80l68 16q37 10 56.5 61.5t41.5 231.5l52 391q6 57 -35 74l-62 20l-8 80h367l385 -702h26l39 313q23 182 19 233.5
t-39 59.5l-76 16l-6 80h364zM644.5 -172.5q37.5 -58.5 17.5 -144.5t-106.5 -154t-211.5 -102l-33 49q158 45 183 153q18 91 -48.5 125.5t-66.5 36.5q10 47 53 78t109 24t103.5 -65.5z" />
    <glyph glyph-name="ncaron.smallcap" horiz-adv-x="1222" 
d="M1210 954l-6 -80l-69 -16q-35 -8 -53.5 -61.5t-43.5 -231.5l-77 -575h-218l-401 731h-27l-41 -332q-20 -182 -16 -233.5t37 -59.5l78 -16l6 -80h-367l6 80l68 16q37 10 56.5 61.5t41.5 231.5l52 391q6 57 -35 74l-62 20l-8 80h367l385 -702h26l39 313q23 182 19 233.5
t-39 59.5l-76 16l-6 80h364zM1053 1427l-232 -372h-243l-132 372h91l176 -245h4l244 245h92z" />
    <glyph glyph-name="ograve.smallcap" horiz-adv-x="1155" 
d="M733 1055h-94l-309 372h260zM823 590q0 297 -202 297q-76 0 -136.5 -56.5t-107.5 -183t-47 -294.5q0 -169 71 -242q45 -49 127 -49t141.5 56t106.5 182.5t47 289.5zM1081 537q0 -242 -178 -416q-153 -150 -359 -150t-338 126t-132 317q0 244 153 397q164 168 377 168
t345 -126t132 -316z" />
    <glyph glyph-name="oacute.smallcap" horiz-adv-x="1155" 
d="M1057 1427l-412 -372h-92l244 372h260zM823 590q0 297 -202 297q-76 0 -136.5 -56.5t-107.5 -183t-47 -294.5q0 -169 71 -242q45 -49 127 -49t141.5 56t106.5 182.5t47 289.5zM1081 537q0 -242 -178 -416q-153 -150 -359 -150t-338 126t-132 317q0 244 153 397
q164 168 377 168t345 -126t132 -316z" />
    <glyph glyph-name="ocircumflex.smallcap" horiz-adv-x="1155" 
d="M938 1055h-94l-176 245h-4l-242 -245h-94l233 372h242zM823 590q0 297 -202 297q-76 0 -136.5 -56.5t-107.5 -183t-47 -294.5q0 -169 71 -242q45 -49 127 -49t141.5 56t106.5 182.5t47 289.5zM1081 537q0 -242 -178 -416q-153 -150 -359 -150t-338 126t-132 317
q0 244 153 397q164 168 377 168t345 -126t132 -316z" />
    <glyph glyph-name="otilde.smallcap" horiz-adv-x="1155" 
d="M490 1217q-32 0 -52 -27t-57 -100h-88q63 276 246 276q68 0 165 -71.5t129 -71.5t57 27.5t60 97.5h86q-66 -276 -248 -277q-68 0 -167 73t-131 73zM823 590q0 297 -202 297q-76 0 -136.5 -56.5t-107.5 -183t-47 -294.5q0 -169 71 -242q45 -49 127 -49t141.5 56
t106.5 182.5t47 289.5zM1081 537q0 -242 -178 -416q-153 -150 -359 -150t-338 126t-132 317q0 244 153 397q164 168 377 168t345 -126t132 -316z" />
    <glyph glyph-name="odieresis.smallcap" horiz-adv-x="1155" 
d="M600 1241q0 -59 -36 -100t-97 -41t-98 41t-37 100t37 101t98 42t97 -42t36 -101zM1038 1241q0 -59 -35.5 -100t-97 -41t-97.5 41t-36 100t36 101t97.5 42t97 -42t35.5 -101zM823 590q0 297 -202 297q-76 0 -136.5 -56.5t-107.5 -183t-47 -294.5q0 -169 71 -242
q45 -49 127 -49t141.5 56t106.5 182.5t47 289.5zM1081 537q0 -242 -178 -416q-153 -150 -359 -150t-338 126t-132 317q0 244 153 397q164 168 377 168t345 -126t132 -316z" />
    <glyph glyph-name="omacron.smallcap" horiz-adv-x="1155" 
d="M823 590q0 297 -202 297q-76 0 -136.5 -56.5t-107.5 -183t-47 -294.5q0 -169 71 -242q45 -49 127 -49t141.5 56t106.5 182.5t47 289.5zM1081 537q0 -242 -178 -416q-153 -150 -359 -150t-338 126t-132 317q0 244 153 397q164 168 377 168t345 -126t132 -316zM965 1118
h-609l25 119h582z" />
    <glyph glyph-name="obreve.smallcap" horiz-adv-x="1155" 
d="M639 1044q-133 0 -190.5 100.5t-65.5 282.5h90q29 -119 69 -182t113.5 -63t133 64.5t122.5 180.5h88q-102 -383 -360 -383zM823 590q0 297 -202 297q-76 0 -136.5 -56.5t-107.5 -183t-47 -294.5q0 -169 71 -242q45 -49 127 -49t141.5 56t106.5 182.5t47 289.5zM1081 537
q0 -242 -178 -416q-153 -150 -359 -150t-338 126t-132 317q0 244 153 397q164 168 377 168t345 -126t132 -316z" />
    <glyph glyph-name="ohungarumlaut.smallcap" horiz-adv-x="1155" 
d="M823 590q0 297 -202 297q-76 0 -136.5 -56.5t-107.5 -183t-47 -294.5q0 -169 71 -242q45 -49 127 -49t141.5 56t106.5 182.5t47 289.5zM1081 537q0 -242 -178 -416q-153 -150 -359 -150t-338 126t-132 317q0 244 153 397q164 168 377 168t345 -126t132 -316zM846 1427
l-397 -372h-87l240 372h244zM1206 1427l-397 -372h-84l238 372h243z" />
    <glyph glyph-name="oslash.smallcap" horiz-adv-x="1146" 
d="M823 593q0 79 -16 136l-424 -594l18 -24q45 -49 127 -49t141.5 56t91.5 142t47 170t15 163zM628 887q-83 0 -143.5 -56.5t-107.5 -183t-47 -291.5q0 -69 16 -139l426 594l-18 23q-43 53 -126 53zM74 428q0 230 153 383q164 168 391 168q129 0 234 -57l92 129h92
q-121 -168 -121 -170q166 -129 166 -357t-178 -403q-154 -150 -366 -150q-125 0 -232 56l-100 -140h-94l129 181q-166 130 -166 360z" />
    <glyph glyph-name="oslashacute.smallcap" horiz-adv-x="1146" 
d="M1042 1427l-411 -372h-92l243 372h260zM823 593q0 79 -16 136l-424 -594l18 -24q45 -49 127 -49t141.5 56t91.5 142t47 170t15 163zM628 887q-83 0 -143.5 -56.5t-107.5 -183t-47 -291.5q0 -69 16 -139l426 594l-18 23q-43 53 -126 53zM74 428q0 230 153 383
q164 168 391 168q129 0 234 -57l92 129h92q-121 -168 -121 -170q166 -129 166 -357t-178 -403q-154 -150 -366 -150q-125 0 -232 56l-100 -140h-94l129 181q-166 130 -166 360z" />
    <glyph glyph-name="oe.smallcap" horiz-adv-x="1652" 
d="M641 82h55l101 760l-107 28q-156 4 -253 -119.5t-97 -322.5q2 -158 82 -252t219 -94zM717 954h899l-43 -327h-125l-16 118q-10 82 -63.5 104.5t-221.5 22.5h-105l-47 -356h58q109 0 137 53l53 107h92l-88 -383h-90l-4 96q-2 33 -24.5 44t-92.5 11h-49l-47 -362h104
q166 0 229.5 23.5t98.5 103.5l45 113h135l-71 -322h-895q-236 -2 -374 118t-137 314t167 358t475 164z" />
    <glyph glyph-name="thorn.smallcap" horiz-adv-x="1052" 
d="M729 503q0 95 -54 152.5t-149 57.5h-59l-55 -430q40 -9 118 -11t138.5 67t60.5 164zM993 526q0 -116 -104 -228t-352 -105q-84 0 -138 8l-6 -68q-4 -29 31 -35l88 -18v-80h-489l12 80l78 18q35 6 39 35l90 688q4 27 -31 35l-72 18l-6 80h483l-6 -82l-86 -16
q-37 -6 -41 -35l-4 -33h117q197 0 297 -73t100 -189z" />
    <glyph glyph-name="racute.smallcap" horiz-adv-x="1112" 
d="M760 680q0 94 -54.5 146.5t-144.5 52.5h-80l-51 -390l131 -18q82 8 140.5 61.5t58.5 147.5zM633 954q195 0 293 -71.5t98 -180.5q0 -207 -268 -284l147 -258q31 -61 96 -72l35 -8l6 -80h-335l-60 141l-119 256l-106 6l-35 -270q-4 -27 29 -35l67 -18l6 -80h-458l6 80
l69 18q35 8 39 35l90 688q4 27 -30 35l-64 18l-6 80h500zM975 1427l-412 -372h-92l244 372h260z" />
    <glyph glyph-name="rcommaaccent.smallcap" horiz-adv-x="1112" 
d="M760 680q0 94 -54.5 146.5t-144.5 52.5h-80l-51 -390l131 -18q82 8 140.5 61.5t58.5 147.5zM633 954q195 0 293 -71.5t98 -180.5q0 -207 -268 -284l147 -258q31 -61 96 -72l35 -8l6 -80h-335l-60 141l-119 256l-106 6l-35 -270q-4 -27 29 -35l67 -18l6 -80h-458l6 80
l69 18q35 8 39 35l90 688q4 27 -30 35l-64 18l-6 80h500zM661 -172.5q37 -58.5 17 -144.5t-106.5 -154t-211.5 -102l-32 49q158 45 182 153q18 91 -48.5 125.5t-66.5 36.5q10 47 53.5 78t109.5 24t103 -65.5z" />
    <glyph glyph-name="rcaron.smallcap" horiz-adv-x="1112" 
d="M760 680q0 94 -54.5 146.5t-144.5 52.5h-80l-51 -390l131 -18q82 8 140.5 61.5t58.5 147.5zM633 954q195 0 293 -71.5t98 -180.5q0 -207 -268 -284l147 -258q31 -61 96 -72l35 -8l6 -80h-335l-60 141l-119 256l-106 6l-35 -270q-4 -27 29 -35l67 -18l6 -80h-458l6 80
l69 18q35 8 39 35l90 688q4 27 -30 35l-64 18l-6 80h500zM952 1427l-231 -372h-244l-131 372h90l176 -245h4l244 245h92z" />
    <glyph glyph-name="sacute.smallcap" horiz-adv-x="946" 
d="M708.5 62.5q-110.5 -87.5 -293.5 -87.5t-360 45l33 306h127l49 -234q74 -26 157 -26t133 41t50 101t-47 98t-132 79t-120 61.5t-101.5 75t-66.5 173.5q0 118 106.5 198t288.5 82q109 0 267 -31l90 23l-43 -320h-117l-51 213q-86 29 -163 29t-120 -34t-43 -91t48 -97.5
t136 -84.5t185.5 -102t97.5 -194t-110.5 -223.5zM901 1427l-412 -372h-92l244 372h260z" />
    <glyph glyph-name="scircumflex.smallcap" horiz-adv-x="946" 
d="M708.5 62.5q-110.5 -87.5 -293.5 -87.5t-360 45l33 306h127l49 -234q74 -26 157 -26t133 41t50 101t-47 98t-132 79t-120 61.5t-101.5 75t-66.5 173.5q0 118 106.5 198t288.5 82q109 0 267 -31l90 23l-43 -320h-117l-51 213q-86 29 -163 29t-120 -34t-43 -91t48 -97.5
t136 -84.5t185.5 -102t97.5 -194t-110.5 -223.5zM829 1055h-94l-176 245h-4l-242 -245h-94l234 372h241z" />
    <glyph glyph-name="scedilla.smallcap" horiz-adv-x="946" 
d="M442 -334q0 98 -157 98q-74 0 -144 -14l6 49l193 178q-135 4 -285 43l33 306h127l49 -234q74 -26 157 -26t133 41t50 101t-47 98t-132 79t-120 61.5t-101.5 75t-66.5 173.5q0 118 106.5 198t288.5 82q109 0 267 -31l90 23l-43 -320h-117l-51 213q-86 29 -163 29t-120 -34
t-43 -91t48 -97.5t136 -84.5t123 -65t97.5 -74.5t62.5 -171.5q0 -117 -103.5 -202t-275.5 -94l-98 -86q121 -4 190.5 -50t69.5 -126q0 -115 -136 -190.5t-355 -85.5l-13 55q166 20 255 65.5t89 108.5z" />
    <glyph glyph-name="scommaaccent.smallcap" horiz-adv-x="946" 
d="M708.5 62.5q-110.5 -87.5 -293.5 -87.5t-360 45l33 306h127l49 -234q74 -26 157 -26t133 41t50 101t-47 98t-132 79t-120 61.5t-101.5 75t-66.5 173.5q0 118 106.5 198t288.5 82q109 0 267 -31l90 23l-43 -320h-117l-51 213q-86 29 -163 29t-120 -34t-43 -91t48 -97.5
t136 -84.5t185.5 -102t97.5 -194t-110.5 -223.5zM528 -172.5q38 -58.5 18 -144.5t-107 -154t-212 -102l-32 49q158 45 182 153q18 91 -48.5 125.5t-66.5 36.5q10 47 53 78t109 24t104 -65.5z" />
    <glyph glyph-name="scaron.smallcap" horiz-adv-x="946" 
d="M881 1427l-232 -372h-243l-132 372h91l176 -245h4l243 245h93zM708.5 62.5q-110.5 -87.5 -293.5 -87.5t-360 45l33 306h127l49 -234q74 -26 157 -26t133 41t50 101t-47 98t-132 79t-120 61.5t-101.5 75t-66.5 173.5q0 118 106.5 198t288.5 82q109 0 267 -31l90 23
l-43 -320h-117l-51 213q-86 29 -163 29t-120 -34t-43 -91t48 -97.5t136 -84.5t185.5 -102t97.5 -194t-110.5 -223.5z" />
    <glyph glyph-name="tcommaaccent.smallcap" horiz-adv-x="1095" 
d="M748 870h-27l-98 -737q-4 -27 30 -35l84 -18l6 -80h-493l6 80l86 18q35 8 39 35l98 737h-22q-90 0 -133 -25.5t-74 -103.5l-51 -129h-131l71 342h959l-43 -342h-125l-15 125q-10 82 -44.5 107.5t-122.5 25.5zM595 -172.5q37 -58.5 17 -144.5t-106 -154t-211 -102l-33 49
q158 45 182 153q17 89 -48.5 124.5t-65.5 37.5q10 47 53 78t109 24t103 -65.5z" />
    <glyph glyph-name="tcaron.smallcap" horiz-adv-x="1095" 
d="M748 870h-27l-98 -737q-4 -27 30 -35l84 -18l6 -80h-493l6 80l86 18q35 8 39 35l98 737h-22q-90 0 -133 -25.5t-74 -103.5l-51 -129h-131l71 342h959l-43 -342h-125l-15 125q-10 82 -44.5 107.5t-122.5 25.5zM969 1427l-232 -372h-241l-134 372h91l178 -245h4l242 245h92
z" />
    <glyph glyph-name="ugrave.smallcap" horiz-adv-x="1165" 
d="M770 1055h-94l-309 372h260zM550 -33q-183 0 -291.5 83t-108.5 233q0 18 4 63l65 475q4 27 -29 35l-65 18l-6 80h461l-7 -80l-73 -18q-35 -8 -39 -35l-60 -440q-8 -53 -8 -84q0 -215 234 -215q219 0 254 262l30 221q23 182 19 233.5t-39 59.5l-76 16l-6 80h365l-7 -80
l-69 -16q-27 -6 -46 -32.5t-53 -262.5l-34 -250q-23 -164 -127.5 -255t-287.5 -91z" />
    <glyph glyph-name="uacute.smallcap" horiz-adv-x="1165" 
d="M1110 1427l-412 -372h-92l244 372h260zM550 -33q-183 0 -291.5 83t-108.5 233q0 18 4 63l65 475q4 27 -29 35l-65 18l-6 80h461l-7 -80l-73 -18q-35 -8 -39 -35l-60 -440q-8 -53 -8 -84q0 -215 234 -215q219 0 254 262l30 221q23 182 19 233.5t-39 59.5l-76 16l-6 80h365
l-7 -80l-69 -16q-27 -6 -46 -32.5t-53 -262.5l-34 -250q-23 -164 -127.5 -255t-287.5 -91z" />
    <glyph glyph-name="ucircumflex.smallcap" horiz-adv-x="1165" 
d="M965 1055h-95l-176 245h-4l-241 -245h-95l234 372h241zM550 -33q-183 0 -291.5 83t-108.5 233q0 18 4 63l65 475q4 27 -29 35l-65 18l-6 80h461l-7 -80l-73 -18q-35 -8 -39 -35l-60 -440q-8 -53 -8 -84q0 -215 234 -215q219 0 254 262l30 221q23 182 19 233.5t-39 59.5
l-76 16l-6 80h365l-7 -80l-69 -16q-27 -6 -46 -32.5t-53 -262.5l-34 -250q-23 -164 -127.5 -255t-287.5 -91z" />
    <glyph glyph-name="udieresis.smallcap" horiz-adv-x="1165" 
d="M606 1241q0 -59 -35.5 -100t-97 -41t-98.5 41t-37 100t37 101t98.5 42t97 -42t35.5 -101zM1044 1241q0 -59 -35.5 -100t-97 -41t-97.5 41t-36 100t36 101t97.5 42t97 -42t35.5 -101zM550 -33q-183 0 -291.5 83t-108.5 233q0 18 4 63l65 475q4 27 -29 35l-65 18l-6 80h461
l-7 -80l-73 -18q-35 -8 -39 -35l-60 -440q-8 -53 -8 -84q0 -215 234 -215q219 0 254 262l30 221q23 182 19 233.5t-39 59.5l-76 16l-6 80h365l-7 -80l-69 -16q-27 -6 -46 -32.5t-53 -262.5l-34 -250q-23 -164 -127.5 -255t-287.5 -91z" />
    <glyph glyph-name="umacron.smallcap" horiz-adv-x="1165" 
d="M1001 1118h-608l25 119h581zM550 -33q-183 0 -291.5 83t-108.5 233q0 18 4 63l65 475q4 27 -29 35l-65 18l-6 80h461l-7 -80l-73 -18q-35 -8 -39 -35l-60 -440q-8 -53 -8 -84q0 -215 234 -215q219 0 254 262l30 221q23 182 19 233.5t-39 59.5l-76 16l-6 80h365l-7 -80
l-69 -16q-27 -6 -46 -32.5t-53 -262.5l-34 -250q-23 -164 -127.5 -255t-287.5 -91z" />
    <glyph glyph-name="ubreve.smallcap" horiz-adv-x="1165" 
d="M682 1044q-133 0 -190.5 100.5t-65.5 282.5h90q29 -119 69 -182t113.5 -63t133 64.5t122.5 180.5h88q-102 -383 -360 -383zM550 -33q-183 0 -291.5 83t-108.5 233q0 18 4 63l65 475q4 27 -29 35l-65 18l-6 80h461l-7 -80l-73 -18q-35 -8 -39 -35l-60 -440q-8 -53 -8 -84
q0 -215 234 -215q219 0 254 262l30 221q23 182 19 233.5t-39 59.5l-76 16l-6 80h365l-7 -80l-69 -16q-27 -6 -46 -32.5t-53 -262.5l-34 -250q-23 -164 -127.5 -255t-287.5 -91z" />
    <glyph glyph-name="uring.smallcap" horiz-adv-x="1165" 
d="M550 -33q-183 0 -291.5 83t-108.5 233q0 18 4 63l65 475q4 27 -29 35l-65 18l-6 80h461l-7 -80l-73 -18q-35 -8 -39 -35l-60 -440q-8 -53 -8 -84q0 -215 234 -215q219 0 254 262l30 221q23 182 19 233.5t-39 59.5l-76 16l-6 80h365l-7 -80l-69 -16q-27 -6 -46 -32.5
t-53 -262.5l-34 -250q-23 -164 -127.5 -255t-287.5 -91zM842 1255.5q0 57.5 -36 98.5t-95.5 41t-95 -41t-35.5 -98.5t35.5 -97.5t95 -40t95.5 40t36 97.5zM911 1255q0 -86 -55 -145t-146 -59t-147.5 59t-54.5 145t57.5 145.5t145.5 59.5t145 -59.5t55 -145.5z" />
    <glyph glyph-name="uhungarumlaut.smallcap" horiz-adv-x="1165" 
d="M901 1427l-397 -372h-86l239 372h244zM1262 1427l-398 -372h-84l238 372h244zM550 -33q-183 0 -291.5 83t-108.5 233q0 18 4 63l65 475q4 27 -29 35l-65 18l-6 80h461l-7 -80l-73 -18q-35 -8 -39 -35l-60 -440q-8 -53 -8 -84q0 -215 234 -215q219 0 254 262l30 221
q23 182 19 233.5t-39 59.5l-76 16l-6 80h365l-7 -80l-69 -16q-27 -6 -46 -32.5t-53 -262.5l-34 -250q-23 -164 -127.5 -255t-287.5 -91z" />
    <glyph glyph-name="uogonek.smallcap" horiz-adv-x="1165" 
d="M555 -33q-188 0 -295.5 83t-107.5 233q0 41 4 63l65 475q4 27 -31 35l-63 18l-8 80h461l-7 -80l-73 -18q-35 -8 -39 -35l-60 -440q-8 -53 -8 -82q0 -109 61.5 -163t172.5 -54q219 0 254 262l30 221q23 182 19 233.5t-39 59.5l-76 16l-6 80h365l-7 -80l-69 -16
q-27 -6 -46 -32.5t-53 -262.5l-34 -250q-29 -217 -230 -323q-63 -33 -105 -86.5t-54 -103.5t9 -86t77 -41t104 32l16 -27q-20 -59 -86.5 -98t-153.5 -30t-132 65.5t-27 144.5q23 119 182 207h-10z" />
    <glyph glyph-name="wcircumflex.smallcap" horiz-adv-x="1587" 
d="M1659 954l-6 -82l-35 -8q-57 -16 -101 -64t-124 -216l-283 -584h-207l-94 578h-25l-270 -578h-209l-160 803q-8 43 -73 59l-45 10l-7 82h500l-6 -82l-51 -8q-49 -8 -57.5 -35.5t6.5 -111.5l90 -514h24l238 520l-14 80q-4 43 -76 59l-43 10l-6 82h501l-6 -82l-49 -8
q-45 -8 -54 -37.5t3 -109.5l80 -514h24l191 426q61 139 62 182t-50 53l-39 8l-6 82h377zM1194 1055h-94l-176 245h-4l-242 -245h-94l233 372h242z" />
    <glyph glyph-name="wgrave.smallcap" horiz-adv-x="1587" 
d="M1001 1055h-94l-309 372h260zM1659 954l-6 -82l-35 -8q-57 -16 -101 -64t-124 -216l-283 -584h-207l-94 578h-25l-270 -578h-209l-160 803q-8 43 -73 59l-45 10l-7 82h500l-6 -82l-51 -8q-49 -8 -57.5 -35.5t6.5 -111.5l90 -514h24l238 520l-14 80q-4 43 -76 59l-43 10
l-6 82h501l-6 -82l-49 -8q-45 -8 -54 -37.5t3 -109.5l80 -514h24l191 426q61 139 62 182t-50 53l-39 8l-6 82h377z" />
    <glyph glyph-name="wacute.smallcap" horiz-adv-x="1587" 
d="M1659 954l-6 -82l-35 -8q-57 -16 -101 -64t-124 -216l-283 -584h-207l-94 578h-25l-270 -578h-209l-160 803q-8 43 -73 59l-45 10l-7 82h500l-6 -82l-51 -8q-49 -8 -57.5 -35.5t6.5 -111.5l90 -514h24l238 520l-14 80q-4 43 -76 59l-43 10l-6 82h501l-6 -82l-49 -8
q-45 -8 -54 -37.5t3 -109.5l80 -514h24l191 426q61 139 62 182t-50 53l-39 8l-6 82h377zM1286 1427l-412 -372h-92l244 372h260z" />
    <glyph glyph-name="wdieresis.smallcap" horiz-adv-x="1587" 
d="M1659 954l-6 -82l-35 -8q-57 -16 -101 -64t-124 -216l-283 -584h-207l-94 578h-25l-270 -578h-209l-160 803q-8 43 -73 59l-45 10l-7 82h500l-6 -82l-51 -8q-49 -8 -57.5 -35.5t6.5 -111.5l90 -514h24l238 520l-14 80q-4 43 -76 59l-43 10l-6 82h501l-6 -82l-49 -8
q-45 -8 -54 -37.5t3 -109.5l80 -514h24l191 426q61 139 62 182t-50 53l-39 8l-6 82h377zM811 1241q0 -59 -36 -100t-97.5 -41t-98 41t-36.5 100t36.5 101t98 42t97.5 -42t36 -101zM1249 1241q0 -59 -35.5 -100t-97 -41t-97.5 41t-36 100t36 101t97.5 42t97 -42t35.5 -101z
" />
    <glyph glyph-name="yacute.smallcap" horiz-adv-x="1001" 
d="M971 1427l-412 -372h-92l244 372h260zM1079 954l-6 -82l-29 -8q-49 -14 -97 -56t-126 -146l-205 -273l-32 -256q-4 -29 30 -35l86 -18l7 -80h-500l6 80l90 18q35 6 39 35l31 238l-234 448q-14 31 -63 45l-33 8l-6 82h477l-6 -82l-45 -6q-58 -11 -49.5 -59.5t32.5 -106.5
l103 -243h24l166 227q117 158 23 178l-45 10l-6 82h368z" />
    <glyph glyph-name="ycircumflex.smallcap" horiz-adv-x="1001" 
d="M891 1055h-94l-176 245h-5l-241 -245h-94l233 372h242zM1079 954l-6 -82l-29 -8q-49 -14 -97 -56t-126 -146l-205 -273l-32 -256q-4 -29 30 -35l86 -18l7 -80h-500l6 80l90 18q35 6 39 35l31 238l-234 448q-14 31 -63 45l-33 8l-6 82h477l-6 -82l-45 -6
q-58 -11 -49.5 -59.5t32.5 -106.5l103 -243h24l166 227q117 158 23 178l-45 10l-6 82h368z" />
    </font>
</defs>
</svg>
